<svg width="267" height="77" viewBox="0 0 267 77" fill="none" xmlns="http://www.w3.org/2000/svg">
<path d="M43.502 4.2377C43.7455 2.8922 44.0889 1.5667 44.5294 0.272233C44.5798 0.120824 44.6555 -0.109894 44.8899 0.0595396C45.1242 0.228973 45.4306 0.265023 45.2504 0.621916C44.6736 1.82958 44.0968 3.03364 43.502 4.2377Z" fill="white"/>
<path d="M44.0986 4.80078H47.6027C47.8839 4.80078 48.0425 4.90172 48.0208 5.22256C47.9992 5.54341 47.7901 5.63353 47.4945 5.56504L44.0986 4.80078Z" fill="white"/>
<path d="M42.8652 4.60542C41.7177 4.67433 40.5661 4.58211 39.4441 4.33145C39.1918 4.28458 39.0079 4.16922 39.0836 3.84478C39.1593 3.52033 39.3396 3.50951 39.6063 3.59243C40.6914 3.9349 41.7801 4.26656 42.8652 4.60542Z" fill="white"/>
<path d="M42.8932 3.91667C42.3102 3.4024 41.7964 2.81469 41.3646 2.16826C41.206 1.95917 41.5052 1.9087 41.6278 1.82578C41.8297 1.68879 41.9667 1.74287 42.064 1.9844C42.32 2.61167 42.5975 3.23533 42.8679 3.85899C42.8774 3.8786 42.8895 3.8968 42.904 3.91306L42.8932 3.91667Z" fill="white"/>
<path d="M43.9316 4.10306L44.6887 3.40369C44.8293 3.27392 44.9735 3.191 45.0997 3.40369C45.2258 3.61639 45.2222 3.78582 44.9699 3.86874C44.6545 4.0475 44.2933 4.12903 43.9316 4.10306Z" fill="white"/>
<path d="M34.0036 51.5686C34.0036 54.9212 34.0036 58.2738 34.0036 61.6228C34.0036 66.2444 34.0217 70.866 34.0036 75.4876C34.0036 76.0824 34.101 76.277 34.7535 76.2734C38.7189 76.2374 42.706 76.2734 46.6823 76.2734C46.7869 76.2734 46.895 76.2734 47.0032 76.2734C47.288 76.2734 47.7025 76.1869 47.6953 76.6339C47.6881 77.081 47.2843 76.9944 46.996 76.9944C40.8723 76.9944 34.7439 76.9944 28.6106 76.9944C20.1629 76.9944 11.7165 76.9944 3.27124 76.9944C2.9504 76.9944 2.62595 76.9944 2.30871 76.9692C2.25884 76.9694 2.20948 76.9592 2.16375 76.9393C2.11802 76.9194 2.07692 76.8902 2.04304 76.8536C2.00915 76.817 1.98323 76.7738 1.96691 76.7267C1.95059 76.6796 1.94422 76.6296 1.94821 76.5799C1.95991 76.4948 2.00383 76.4174 2.07091 76.3637C2.13799 76.3101 2.22311 76.2842 2.30871 76.2915H2.82783C6.95191 76.2915 11.0796 76.2734 15.2073 76.2915C15.7517 76.2915 15.867 76.1437 15.867 75.6173C15.8454 68.977 15.8454 62.3354 15.867 55.6927C15.867 55.1447 15.7192 55.0365 15.1929 55.0438C12.0998 55.0762 9.10048 54.5895 6.37873 53.0394C2.61874 50.898 0.304346 47.7509 0.0303683 43.3276C-0.168717 40.8335 0.616765 38.3606 2.21859 36.4385C2.34732 36.3092 2.4309 36.1419 2.45688 35.9613C2.48286 35.7807 2.44986 35.5966 2.36279 35.4363C0.837883 31.3483 1.12628 27.4657 3.87327 23.9545C5.07945 22.4486 6.74163 21.3746 8.6102 20.8939C8.9707 20.7929 9.12211 20.6812 9.13653 20.263C9.23652 16.1085 10.7574 12.1137 13.4457 8.94464C16.1339 5.77555 19.8271 3.62355 23.9097 2.84736C29.9012 1.63609 35.3699 2.96632 40.3015 6.53164C40.7774 6.89214 41.0225 6.92819 41.4263 6.45594C41.7108 6.06164 42.1079 5.76257 42.5654 5.59795C42.2554 6.11347 41.9742 6.65421 41.6245 7.14088C41.2028 7.72489 41.8408 7.84025 42.0499 8.04212C42.4104 8.37018 42.4104 7.85106 42.5114 7.69965C42.9548 6.96063 43.0125 6.08823 43.3549 5.28432C43.3784 5.55178 43.3784 5.82077 43.3549 6.08823C43.1963 6.93179 43.5712 7.56266 44.0759 8.18272C46.4841 11.0955 48.8129 14.0805 51.2859 16.9248C51.8738 17.5487 52.3277 18.2863 52.6197 19.0923C52.9117 19.8983 53.0356 20.7556 52.9838 21.6112C52.8468 25.8831 52.9478 30.1622 52.9261 34.4413C52.9261 34.9424 53.0523 35.101 53.5606 35.0686C54.2816 35.0217 55.0206 35.0686 55.7524 35.0686C56.012 35.0686 56.2571 35.0686 56.2463 35.4291C56.2355 35.7896 55.9904 35.7896 55.7344 35.7896C54.8115 35.7896 53.8851 35.7896 52.9622 35.7896C52.7783 35.7896 52.5656 35.7139 52.4178 35.8941C51.7365 36.7413 50.7451 37.1523 49.8944 37.7363C47.7918 38.7097 45.8638 40.0227 44.1877 41.6224C41.3614 44.3478 38.1602 46.5 34.2596 47.4156C34.119 47.4481 33.9279 47.4697 33.9387 47.7761C33.9748 48.9946 33.9712 50.2816 34.0036 51.5686ZM9.65565 41.864C9.95873 41.9651 10.2682 42.0458 10.5821 42.1055C12.2296 42.3218 13.8266 42.3002 15.2686 41.2944C15.463 41.181 15.6206 41.0138 15.7223 40.813C15.824 40.6122 15.8655 40.3863 15.8418 40.1624C15.8061 39.3247 15.6077 38.5019 15.2578 37.7399C13.567 34.2611 8.44798 32.9236 4.9836 35.0542C4.51054 35.2999 4.06467 35.5947 3.65336 35.9338C3.43707 36.0888 3.42265 36.2222 3.55603 36.4601C4.93674 39.0016 6.87982 40.8834 9.63762 41.864H9.65565ZM50.2981 35.7355C50.2353 35.7206 50.1714 35.711 50.107 35.7067C44.8606 35.7067 39.6166 35.6971 34.3749 35.6778C33.9748 35.6778 33.9243 35.8437 33.9243 36.1753C33.9423 39.4631 33.9604 42.7544 33.9423 46.0421C33.9423 46.6622 34.0938 46.7631 34.6633 46.5757C37.9389 45.5621 40.9258 43.7826 43.3766 41.3845C44.9303 39.8493 46.7087 38.5596 48.6506 37.5596C49.2022 37.2857 49.7321 36.9468 50.2585 36.6368C50.7462 36.4034 51.2037 36.1116 51.6211 35.768L50.2981 35.7355ZM15.8129 46.0457V41.7666C15.2694 42.1701 14.6593 42.4752 14.0105 42.6679C13.0912 42.8868 12.1464 42.9789 11.2022 42.9419C11.1449 42.9122 11.0844 42.8892 11.0219 42.8734C7.41696 42.2497 4.89348 40.1624 3.14506 37.0261C3.08739 36.9216 3.06576 36.7738 2.86388 36.7485C2.7341 36.918 2.58269 37.109 2.4457 37.2893C-0.131857 40.8726 0.178172 46.0025 3.19914 49.5245C6.44362 53.3206 10.7696 54.3804 15.539 54.33C15.7985 54.33 15.8634 54.2254 15.8598 53.9695C15.8262 51.3378 15.8045 48.7014 15.7949 46.0602L15.8129 46.0457ZM40.6007 11.438C40.5467 11.4702 40.496 11.5077 40.4493 11.5498L34.4615 19.095C34.3173 19.2822 34.2456 19.5152 34.2596 19.7511C34.2596 24.6755 34.2596 29.6023 34.2596 34.5315C34.2596 34.9496 34.3569 35.0758 34.7895 35.0722C37.2806 35.047 39.7752 35.0722 42.2662 35.0506L50.518 35.0217C50.9254 35.0217 51.3327 35.0217 51.7365 35.0758C52.1403 35.1299 52.2412 34.9569 52.2412 34.5711C52.2268 29.6371 52.2268 24.7007 52.2412 19.7619C52.2415 19.4177 52.1129 19.0859 51.8807 18.8318C50.1791 16.7577 48.48 14.6825 46.7833 12.606L43.1603 8.14667C42.5727 8.50717 42.7781 8.84243 43.1386 9.24619C44.4112 10.6882 45.5864 12.177 46.3182 13.9723C46.4156 14.2174 46.621 14.5311 46.2101 14.6681C45.8712 14.7798 45.8171 14.4698 45.7126 14.2247C44.9411 12.4222 43.6974 10.9477 42.4681 9.46249C42.3419 9.31108 42.2338 9.23537 42.0752 9.46249C41.5741 10.1294 41.0802 10.7963 40.5827 11.4632L40.6007 11.438ZM33.2466 74.6584C33.3661 73.7281 33.3794 72.7871 33.2862 71.8537C33.2862 70.1714 33.2862 68.4795 33.2862 66.7779C33.3619 66.4994 33.3619 66.2057 33.2862 65.9272C33.2862 63.9985 33.2862 62.0662 33.2862 60.134C33.2862 57.3257 33.261 54.5138 33.2502 51.7056C33.2502 50.5051 33.2502 49.301 33.2682 48.1006C33.2682 47.6283 33.0952 47.6391 32.7455 47.7221C31.5372 48.0043 30.3047 48.1708 29.0648 48.2195C27.1181 48.3097 25.1642 48.2952 23.2176 48.3746C22.3207 48.3702 21.4304 48.5277 20.5895 48.8396C19.8284 48.984 19.1041 49.2803 18.46 49.7108C17.8158 50.1412 17.265 50.6971 16.8404 51.3451C16.623 51.6357 16.5111 51.9917 16.5231 52.3544C16.5448 58.3964 16.5592 64.4359 16.5664 70.473C16.5664 72.2142 16.5664 73.9554 16.5447 75.6966C16.5447 76.1581 16.6745 76.2843 17.1179 76.2554C17.6979 76.2248 18.2791 76.2248 18.8591 76.2554C18.9213 76.2667 18.9851 76.2649 19.0465 76.2501C19.108 76.2353 19.1656 76.2078 19.2158 76.1695C19.266 76.1312 19.3077 76.0828 19.3381 76.0274C19.3686 75.9721 19.3872 75.911 19.3927 75.8481C19.8072 74.2078 20.229 72.5639 20.6616 70.9273C20.688 70.8705 20.7023 70.809 20.7037 70.7465C20.7052 70.684 20.6937 70.6218 20.67 70.564C20.6463 70.5061 20.6109 70.4538 20.566 70.4102C20.5212 70.3666 20.4678 70.3328 20.4093 70.3108C19.5513 69.8314 19.4468 69.5285 19.7748 68.5804C20.2002 67.3583 20.8815 66.2624 21.4583 65.1124C21.7251 64.5861 22.0351 64.1139 22.9219 64.1067C22.355 63.8152 21.8587 63.4031 21.4682 62.8992C21.0777 62.3953 20.8024 61.812 20.6616 61.1902C20.4994 60.5161 20.4129 59.9393 19.5441 59.9357C19.4343 59.9339 19.3284 59.8946 19.2438 59.8245C19.1593 59.7544 19.1012 59.6576 19.079 59.55C19.079 59.276 19.3386 59.1895 19.5477 59.0849C20.1011 58.8477 20.6808 58.6771 21.2745 58.5766C21.5232 58.5334 21.635 58.4685 21.653 58.1909C21.8008 56.7165 21.9919 55.2456 22.1397 53.7712C22.2442 52.6897 22.2262 52.7149 21.1267 52.8411C20.384 52.924 19.6522 53.1295 18.8772 53.0286C20.1713 52.2139 21.4944 51.4748 22.7958 50.6962C23.1743 50.4727 23.3005 50.5231 23.4663 50.9269C24.4829 53.3855 25.6798 55.7648 26.8189 58.1657C26.9315 58.4523 27.1083 58.7092 27.3358 58.9167C27.5633 59.1243 27.8354 59.2768 28.1311 59.3625C28.4916 59.4671 29.072 59.5932 28.9567 60.0835C28.8413 60.5738 28.2753 60.4044 27.9004 60.3647C27.5255 60.325 27.3633 60.4873 27.4462 60.8153C27.63 61.5363 27.2768 62.1023 27.0532 62.7151C26.7685 63.501 26.3971 64.2148 25.5103 64.496C26.0907 65.0548 26.0835 65.0295 26.8153 64.8277C27.6336 64.6005 28.4015 64.1067 29.2955 64.2473C29.6741 64.3121 29.7714 64.1499 29.8651 63.8579C30.0346 63.3352 30.2256 62.8197 30.4563 62.1888C30.5468 62.4183 30.5645 62.67 30.5068 62.9098C30.4167 63.5695 30.1463 64.1824 30.2977 64.907C30.4491 65.6316 30.0778 66.1939 29.5371 66.1327C28.9963 66.0714 28.7187 66.3562 28.3763 66.6085C27.9761 66.9041 27.6012 67.2286 27.1902 67.4989C27.0689 67.5617 26.975 67.667 26.9264 67.7947C26.8778 67.9224 26.8781 68.0636 26.9271 68.1911C27.5111 70.7146 28.0843 73.2561 28.5169 75.8156C28.5781 76.1761 28.744 76.2482 29.072 76.2446C30.0382 76.2446 31.0079 76.2446 31.974 76.2446C33.2286 76.2446 33.2286 76.2446 33.2358 74.9648C33.2358 74.8711 33.243 74.763 33.2466 74.6584ZM4.86464 34.2827C5.04128 34.2106 5.22513 34.1421 5.39457 34.0664C10.1603 31.9575 16.9305 34.7225 16.57 41.2151C16.466 43.0344 16.4757 44.8585 16.5988 46.6766C16.4835 47.8951 16.5736 49.1028 16.5664 50.3825C17.1215 49.9283 17.5577 49.5534 18.0084 49.2037C18.4986 48.864 19.0229 48.5764 19.5729 48.3457C20.6059 48.0342 21.6674 47.8265 22.7417 47.7257C24.09 47.6355 25.4454 47.6283 26.7973 47.6139C28.7757 47.6285 30.7509 47.451 32.695 47.084C33.1456 46.9902 33.2718 46.8316 33.2718 46.381C33.2538 43.2879 33.2718 40.1949 33.2718 37.0982C33.2718 35.7139 33.2718 35.7139 31.8551 35.7139C30.8457 35.7139 29.8363 35.7139 28.8269 35.7139C28.5781 35.7139 28.2501 35.7608 28.2357 35.3967C28.2213 35.0326 28.5745 35.0362 28.8485 35.0362C28.9999 35.0362 29.1477 35.0362 29.2991 35.0362C30.5465 35.0362 31.7938 35.0362 33.0375 35.0614C33.5134 35.0614 33.6467 34.9605 33.6431 34.4702C33.6179 30.4074 33.6215 26.3482 33.6431 22.2854C33.6431 21.2039 33.3475 20.0575 33.7405 19.095C34.1334 18.1324 35.0058 17.3826 35.6619 16.5318C37.1328 14.6356 38.7153 12.8187 40.0924 10.8468C40.5503 10.4863 40.8134 9.98881 41.2424 9.59226C41.8625 8.99744 41.8084 8.76672 41.1703 8.15027C40.9176 7.89344 40.6491 7.65264 40.3664 7.42928C35.7881 4.00456 30.6762 2.53373 24.9948 3.39532C16.141 4.73276 9.92602 11.9319 9.85392 20.8614C9.85392 21.2471 9.72414 21.3805 9.36725 21.4526C8.2148 21.6436 7.12186 22.0975 6.17324 22.7793C3.00447 25.1477 1.84727 28.3634 2.23661 32.2135C2.34673 33.3348 2.63897 34.4307 3.1018 35.4579L4.86464 34.2827ZM22.8895 64.1535C22.8895 64.1535 22.8643 64.1247 22.8498 64.1247C22.8354 64.1247 22.8246 64.1247 22.8138 64.1535C22.803 64.1824 22.839 64.186 22.8498 64.186C22.8607 64.186 22.8679 64.1607 22.8823 64.1499L22.8895 64.1535Z" fill="white"/>
<path d="M34.0032 51.569C34.0032 50.2821 34.0032 48.9951 33.9455 47.7117C33.9455 47.4089 34.1257 47.3873 34.2663 47.3512C38.1669 46.4356 41.3681 44.2834 44.1944 41.558C45.8705 39.9583 47.7985 38.6453 49.9011 37.6719C49.4517 39.014 48.8467 40.2989 48.0986 41.5004C45.9761 45.1924 42.7884 48.1576 38.9528 50.0081C37.4004 50.798 35.7279 51.3254 34.0032 51.569Z" fill="#CAD8C6"/>
<path d="M43.924 5.25586C44.4287 5.80021 44.9442 6.33735 45.4416 6.89252C45.7481 7.23138 45.3479 7.3179 45.2037 7.47652C44.973 7.73608 44.8973 7.50897 44.8108 7.33232C44.4791 6.66901 44.1439 6.0093 43.8086 5.34598L43.924 5.25586Z" fill="white"/>
<path d="M16.58 46.6734C16.4568 44.8552 16.4472 43.0312 16.5511 41.2118C16.9116 34.7229 10.1595 31.9543 5.39374 34.0632C5.2207 34.1389 5.03324 34.2074 4.86381 34.2795C4.30089 32.6496 4.17656 30.9004 4.50331 29.2073C5.10174 25.9123 6.85736 23.5475 10.1271 22.484C10.2706 22.4559 10.401 22.3814 10.498 22.272C10.5951 22.1626 10.6535 22.0242 10.6642 21.8784C10.6931 21.6657 10.6642 21.4458 10.7039 21.2367C11.6051 16.3051 13.7176 12.0404 17.6651 8.83557C20.0019 6.90975 22.8816 5.76161 25.9024 5.55144C28.9538 5.29802 32.0191 5.83435 34.8031 7.10878C36.7776 8.0112 38.5673 9.27273 40.0808 10.8291C38.7037 12.801 37.1211 14.6179 35.6503 16.5142C34.9942 17.3649 34.1218 18.122 33.7288 19.0773C33.3359 20.0326 33.6315 21.197 33.6315 22.2677C33.6315 26.3305 33.6315 30.3897 33.6315 34.4525C33.6315 34.9428 33.5017 35.0581 33.0259 35.0437C31.7821 35.0041 30.5348 35.0221 29.2875 35.0185C29.1361 35.0185 28.9883 35.0185 28.8369 35.0185C28.5629 35.0185 28.2096 34.9752 28.224 35.379C28.2385 35.7827 28.5845 35.6962 28.8152 35.6962C29.8246 35.6962 30.834 35.6962 31.8434 35.6962C33.2494 35.6962 33.2602 35.6962 33.2602 37.0805C33.2602 40.1772 33.2602 43.2703 33.2602 46.3633C33.2602 46.814 33.134 46.9726 32.6834 47.0663C30.7421 47.4377 28.7693 47.62 26.7929 47.6107C25.441 47.6107 24.0855 47.6323 22.7373 47.7224C21.663 47.8232 20.6015 48.0309 19.5685 48.3425C18.5687 47.7873 17.5725 47.2309 16.58 46.6734Z" fill="#CAD8C6"/>
<path d="M50.5328 35.0077L42.2955 35.0366C39.8044 35.0366 37.3098 35.0366 34.8188 35.0582C34.3862 35.0582 34.2888 34.9356 34.2888 34.5174C34.2888 29.5954 34.2888 24.6687 34.2888 19.7371C34.2749 19.5012 34.3466 19.2682 34.4907 19.0809L40.4605 11.561C40.5073 11.5189 40.558 11.4815 40.6119 11.4492C41.3072 12.0199 41.922 12.682 42.4397 13.4175C44.6799 16.346 46.5449 19.5432 47.9913 22.9347C49.6712 26.7812 51.1349 30.6781 50.5328 35.0077ZM46.7007 24.8201C46.6837 23.9085 46.3076 23.0405 45.6542 22.4046C45.0008 21.7688 44.1228 21.4164 43.2111 21.4242C42.3143 21.4285 41.4559 21.7889 40.8248 22.4261C40.1937 23.0632 39.8416 23.925 39.8459 24.8219C39.8502 25.7187 40.2106 26.5771 40.8478 27.2082C41.485 27.8393 42.3468 28.1914 43.2436 28.1871C44.1465 28.192 45.0151 27.8417 45.6619 27.2118C46.3087 26.5818 46.6818 25.7228 46.7007 24.8201Z" fill="#CAD8C6"/>
<path d="M50.2583 36.6179C49.7247 36.9279 49.202 37.2668 48.6504 37.5408C46.7073 38.5462 44.9288 39.8421 43.3764 41.3837C40.9282 43.7864 37.9424 45.571 34.6668 46.5892C34.0936 46.7587 33.9458 46.6758 33.9458 46.0557C33.9638 42.768 33.9458 39.4766 33.9277 36.1889C33.9277 35.8572 33.9782 35.6914 34.3784 35.6914C39.6248 35.7106 44.8688 35.7202 50.1105 35.7202C50.1748 35.7245 50.2387 35.7342 50.3015 35.7491L50.2583 36.6179Z" fill="#CAD8C6"/>
<path d="M4.97681 35.0552C8.44119 32.9247 13.5602 34.2621 15.251 37.7409C15.6022 38.5027 15.8018 39.3255 15.8386 40.1635C15.8623 40.3873 15.8208 40.6132 15.7191 40.8141C15.6174 41.0149 15.4599 41.182 15.2654 41.2954C13.8234 42.3012 12.212 42.3228 10.5789 42.1065C10.2651 42.0468 9.95554 41.9661 9.65245 41.865C9.60411 41.6768 9.49038 41.512 9.33161 41.4C7.53416 39.7335 6.13771 37.6813 5.24718 35.3977C5.22702 35.3256 5.19273 35.2581 5.14632 35.1993C5.09991 35.1406 5.04229 35.0916 4.97681 35.0552Z" fill="#CAD8C6"/>
<path d="M33.2434 51.7056C29.6831 51.8287 26.1361 51.2087 22.8287 49.8851C22.0451 49.6186 21.2922 49.2694 20.5828 48.8433C21.4236 48.5314 22.3139 48.3738 23.2108 48.3782C25.1575 48.2989 27.1114 48.3133 29.0581 48.2232C30.2979 48.1745 31.5304 48.0079 32.7387 47.7257C33.0992 47.6428 33.2759 47.632 33.2615 48.1043C33.2254 49.3011 33.247 50.5052 33.2434 51.7056Z" fill="#CAD8C6"/>
<path d="M15.7945 46.0596C14.6914 45.6667 13.8154 44.8916 12.8493 44.2571C12.2545 43.8966 11.5911 43.5361 11.1766 42.9233C12.1208 42.9603 13.0656 42.8682 13.9848 42.6493C14.6337 42.4566 15.2438 42.1515 15.7873 41.748L15.7945 46.0596Z" fill="#CAD8C6"/>
<path d="M22.8834 64.1499C22.8834 64.1499 22.8581 64.1824 22.8437 64.1824C22.8293 64.1824 22.8185 64.1607 22.8077 64.1499C22.7968 64.1391 22.8329 64.1211 22.8437 64.1211C22.8545 64.1211 22.8689 64.1391 22.8834 64.1499Z" fill="white"/>
<path d="M46.6999 24.8185C46.681 25.7212 46.3079 26.5802 45.6611 27.2102C45.0142 27.8401 44.1456 28.1905 43.2428 28.1855C42.3469 28.1898 41.486 27.8381 40.8495 27.2077C40.213 26.5772 39.853 25.7198 39.8487 24.8239C39.8444 23.928 40.1961 23.0672 40.8266 22.4306C41.457 21.7941 42.3144 21.4341 43.2103 21.4298C44.1208 21.422 44.9977 21.7734 45.6509 22.4077C46.3041 23.042 46.681 23.9082 46.6999 24.8185ZM43.0156 23.3332C43.0156 23.0737 42.9976 22.8141 43.0156 22.5582C43.0517 22.1112 42.857 22.0499 42.4821 22.1977C42.0931 22.3273 41.7371 22.5403 41.4388 22.8217C41.1406 23.1032 40.9073 23.4463 40.7553 23.8271C40.4994 24.44 40.5354 24.4796 41.224 24.4868H41.8693C42.994 24.4796 42.994 24.4796 43.0156 23.3332ZM41.7972 25.1177C41.5412 25.1177 41.2853 25.1177 41.0293 25.1177C40.6255 25.0853 40.5607 25.2295 40.694 25.5972C40.9093 26.2453 41.3491 26.7951 41.9341 27.1473C42.8642 27.688 43.0156 27.5943 43.0156 26.5345C43.0156 26.4696 43.0156 26.4083 43.0156 26.3434C43.0156 25.1141 43.0156 25.1141 41.7827 25.1177H41.7972ZM44.7965 24.4688C45.0561 24.4688 45.312 24.4688 45.568 24.4688C46.033 24.5049 46.0618 24.303 45.9285 23.9317C45.6864 23.3067 45.2372 22.7837 44.6559 22.45C44.3855 22.2842 44.0611 22.0354 43.7763 22.1869C43.4915 22.3383 43.7042 22.6916 43.6754 22.9619C43.6681 23.0904 43.6681 23.2192 43.6754 23.3477C43.6357 24.4796 43.6357 24.4796 44.7821 24.4688H44.7965ZM44.8434 25.1177C44.6298 25.134 44.4153 25.134 44.2017 25.1177C43.7583 25.0528 43.596 25.215 43.6357 25.6693C43.6753 26.1368 43.6826 26.6066 43.6573 27.0752C43.6357 27.5258 43.8304 27.5078 44.1584 27.3888C44.7856 27.1645 45.3206 26.7385 45.6797 26.1776C45.8636 25.8892 46.1267 25.5503 45.9789 25.2439C45.8311 24.9375 45.4418 25.1826 45.1606 25.1321C45.0471 25.1168 44.9325 25.112 44.8181 25.1177H44.8434Z" fill="white"/>
<path d="M43.0162 23.3347C43.0162 24.4811 43.0162 24.4811 41.8734 24.4811H41.2137C40.5252 24.4811 40.4927 24.4342 40.7451 23.8214C40.8971 23.4406 41.1303 23.0975 41.4286 22.816C41.7268 22.5346 42.0828 22.3216 42.4719 22.192C42.8324 22.055 43.0414 22.1162 43.0054 22.5525C42.9838 22.8156 43.0162 23.0752 43.0162 23.3347Z" fill="#FCFCFC"/>
<path d="M41.7828 25.1192C42.9977 25.1192 42.9977 25.1192 43.0121 26.3449C43.0121 26.4098 43.0121 26.4711 43.0121 26.536C43.0121 27.5958 42.8715 27.6896 41.9306 27.1488C41.3354 26.8003 40.8861 26.2485 40.6653 25.5951C40.5319 25.2346 40.5968 25.0832 41.0005 25.1156C41.2709 25.1336 41.5269 25.1192 41.7828 25.1192Z" fill="#FCFCFC"/>
<path d="M44.782 24.4702C43.6356 24.4702 43.6356 24.4702 43.65 23.3527C43.6428 23.2242 43.6428 23.0954 43.65 22.9669C43.6788 22.6966 43.5166 22.3144 43.7509 22.1919C43.9853 22.0693 44.3602 22.2892 44.6306 22.455C45.2105 22.7893 45.6584 23.3122 45.8995 23.9367C46.0401 24.2972 46.0113 24.5099 45.539 24.4738C45.2975 24.4522 45.0415 24.4702 44.782 24.4702Z" fill="#FCFCFC"/>
<path d="M44.818 25.1186C44.9235 25.1095 45.0297 25.1095 45.1352 25.1186C45.4164 25.169 45.8202 24.9491 45.9536 25.2303C46.0869 25.5115 45.8382 25.8756 45.6543 26.164C45.2952 26.7249 44.7602 27.1509 44.133 27.3753C43.805 27.4942 43.6103 27.5123 43.632 27.0616C43.6572 26.5931 43.65 26.1233 43.6103 25.6557C43.5707 25.2015 43.7329 25.0393 44.1763 25.1041C44.3899 25.1204 44.6044 25.1204 44.818 25.1041V25.1186Z" fill="#FCFCFC"/>
<path d="M31.0331 62.6494L30.5716 61.9681L29.7461 61.9609L30.2544 61.3084L30.0057 60.5225L30.7807 60.8037L31.4512 60.3242L31.4224 61.1498L32.0857 61.6364L31.2962 61.8671L31.0331 62.6494Z" fill="white"/>
<path d="M72.555 29.2455C72.4606 29.2479 72.3669 29.2279 72.2817 29.1872C72.1965 29.1465 72.1222 29.0862 72.0647 29.0112C71.9377 28.8518 71.8713 28.6525 71.8773 28.4488C71.971 27.699 72.0791 26.8662 72.2053 25.9253C72.3315 24.9844 72.4685 24.0616 72.6271 23.0954C72.7857 22.1293 72.9371 21.1704 73.0921 20.2655C73.2472 19.3607 73.4274 18.5243 73.586 17.8069C73.7446 17.0895 73.8816 16.4983 74.0078 16.0765C74.0511 15.915 74.1492 15.7735 74.2854 15.6764C74.4056 15.6018 74.5441 15.5619 74.6855 15.561C74.87 15.5604 75.0502 15.6171 75.2011 15.7233C75.2659 15.6995 75.3276 15.668 75.3849 15.6295C75.4428 15.5958 75.5063 15.5726 75.5724 15.561C76.2401 15.4568 76.9127 15.387 77.5875 15.3519C78.3662 15.2871 79.1233 15.2582 79.8551 15.2582C80.7894 15.241 81.723 15.3183 82.6417 15.4889C83.2909 15.59 83.8813 15.923 84.3036 16.4262C84.7187 17.0166 84.9162 17.7326 84.8624 18.4522V18.7803C84.8621 18.9008 84.8549 19.0211 84.8407 19.1408C84.7795 19.732 84.7218 20.3701 84.6749 21.0586C84.6281 21.7472 84.6281 22.3997 84.6281 23.0702C84.6239 23.9628 84.6866 24.8546 84.8155 25.7379C84.9429 26.5502 85.1616 27.1114 85.4716 27.4214C85.5933 27.5569 85.7452 27.6619 85.915 27.7278C86.0983 27.7763 86.2886 27.7922 86.4774 27.7747C86.5723 27.755 86.6704 27.7575 86.7642 27.7818C86.858 27.8062 86.9449 27.8519 87.0182 27.9153C87.0948 27.9862 87.1551 28.0728 87.1949 28.1693C87.2347 28.2658 87.2532 28.3698 87.2489 28.474C87.2957 28.9896 87.0073 29.2491 86.3837 29.2491C86.028 29.2705 85.6718 29.2175 85.3378 29.0933C85.0039 28.9692 84.6995 28.7767 84.4442 28.5281C83.9538 28.0044 83.6138 27.358 83.46 26.6571C83.3976 26.7841 83.3 26.8904 83.1789 26.9636C83.0555 27.0516 82.9086 27.1006 82.7571 27.1042H73.5139C73.5139 27.1943 73.4743 27.3529 73.4454 27.5692C73.4166 27.7855 73.413 27.991 73.3986 28.1784C73.3841 28.3659 73.3733 28.5137 73.3733 28.575C73.3457 28.7689 73.2462 28.9454 73.0947 29.0696C72.9432 29.1937 72.7506 29.2565 72.555 29.2455ZM83.2942 25.8496C83.2285 25.5964 83.1827 25.3385 83.1572 25.0782C83.1392 24.7826 83.132 24.4617 83.132 24.1192C83.132 23.4956 83.1572 22.8106 83.2005 22.0608C83.2437 21.311 83.3122 20.4926 83.3411 19.6491C83.358 19.5176 83.3664 19.3851 83.3663 19.2525V18.892C83.407 18.3818 83.302 17.8705 83.0635 17.4176C82.9477 17.2496 82.7941 17.1112 82.615 17.0135C82.4359 16.9158 82.2364 16.8616 82.0325 16.8552C81.3418 16.764 80.6454 16.7242 79.9488 16.7363C79.3107 16.7363 78.633 16.7687 77.9156 16.83C77.1982 16.8913 76.5097 16.9634 75.8067 17.0427C75.6967 17.0472 75.5866 17.0388 75.4786 17.0174C75.4225 16.9998 75.3682 16.9768 75.3164 16.9489C75.0208 18.0088 74.7805 19.0146 74.5954 19.9663C74.4104 20.918 74.2686 21.8553 74.17 22.7782C74.0439 23.7011 73.8961 24.642 73.7266 25.6117H82.7571C82.8583 25.6114 82.9584 25.6325 83.051 25.6735C83.1435 25.7145 83.2264 25.7745 83.2942 25.8496Z" fill="white" stroke="white" stroke-width="0.304845" stroke-miterlimit="10"/>
<path d="M102.368 28.872C101.046 28.9027 99.7389 28.5883 98.5754 27.96C97.5248 27.3598 96.6651 26.475 96.0952 25.4077C95.494 24.1946 95.197 22.8534 95.23 21.4999C95.1977 20.1488 95.4868 18.8095 96.0736 17.5921C96.609 16.51 97.4566 15.6134 98.5069 15.0181C99.691 14.3791 101.023 14.0644 102.368 14.1061C103.735 14.0595 105.09 14.3741 106.297 15.0181C107.343 15.6124 108.184 16.5099 108.709 17.5921C109.282 18.8133 109.562 20.1514 109.527 21.4999C109.527 23.9032 108.911 25.7285 107.678 26.9758C106.445 28.2232 104.675 28.8552 102.368 28.872ZM102.368 27.3976C104.319 27.3976 105.754 26.9061 106.672 25.9232C107.59 24.9402 108.051 23.4658 108.053 21.4999C108.053 19.6421 107.572 18.1917 106.611 17.1487C105.65 16.1056 104.235 15.5793 102.368 15.5697C100.479 15.5697 99.0585 16.108 98.1068 17.1847C97.1551 18.2614 96.6744 19.6962 96.6648 21.4891C96.6648 23.2988 97.1563 24.7407 98.1392 25.815C99.1222 26.8893 100.532 27.4168 102.368 27.3976Z" fill="white" stroke="white" stroke-width="0.304845" stroke-miterlimit="10"/>
<path d="M132.156 28.3559C132.083 28.3511 132.011 28.3353 131.943 28.309C131.755 28.2389 131.593 28.1131 131.478 27.9485C131.384 27.7847 131.358 27.5905 131.406 27.4078C131.618 26.6891 131.766 25.9533 131.849 25.2087C131.943 24.401 131.99 23.5885 131.99 22.7754C131.99 22.3067 131.99 21.8561 131.943 21.4199C131.896 20.9837 131.867 20.5367 131.803 20.1329C131.734 19.6007 131.594 19.0804 131.384 18.5864C131.209 18.1421 130.927 17.7482 130.562 17.44C130.175 17.1373 129.692 16.9807 129.201 16.9979C128.709 17.015 128.239 17.2047 127.873 17.5337C127.468 17.9425 127.157 18.4346 126.961 18.9757C126.726 19.623 126.545 20.2886 126.42 20.9657C126.399 21.1337 126.32 21.2889 126.196 21.4043C126.072 21.5196 125.912 21.5877 125.743 21.5965C125.563 21.6055 125.386 21.5468 125.247 21.4321C125.109 21.3173 125.018 21.1548 124.993 20.9765C124.862 20.3169 124.659 19.6738 124.387 19.0586C124.161 18.5124 123.836 18.0126 123.428 17.5842C123.255 17.3982 123.044 17.251 122.81 17.1522C122.576 17.0534 122.323 17.0053 122.069 17.011C121.838 17.0079 121.609 17.052 121.396 17.1407C121.183 17.2293 120.99 17.3606 120.829 17.5265C120.459 17.9121 120.18 18.3751 120.011 18.882C119.816 19.4762 119.675 20.0867 119.589 20.7061C119.497 21.3425 119.45 21.9846 119.448 22.6276C119.449 23.4407 119.496 24.2531 119.589 25.0609C119.683 25.8877 119.803 26.6904 119.949 27.469C119.972 27.5747 119.971 27.684 119.947 27.7893C119.922 27.8945 119.875 27.9932 119.809 28.0783C119.7 28.2191 119.541 28.3121 119.365 28.3378C119.268 28.3707 119.163 28.3748 119.064 28.3499C118.964 28.325 118.873 28.272 118.803 28.1973C118.663 28.0825 118.565 27.9257 118.522 27.7502C118.367 26.9571 118.233 26.1352 118.125 25.2952C118.032 24.4477 117.985 23.5956 117.985 22.7429C117.982 21.8651 118.052 20.9885 118.194 20.1221C118.317 19.3243 118.545 18.5461 118.871 17.8077C119.164 17.1644 119.607 16.6007 120.162 16.1639C120.754 15.7492 121.466 15.5402 122.188 15.569C122.72 15.5655 123.244 15.7036 123.706 15.9692C124.169 16.2289 124.576 16.5782 124.903 16.9966C125.236 17.3879 125.49 17.8412 125.649 18.3304C125.976 17.5456 126.481 16.8472 127.123 16.29C127.737 15.8036 128.503 15.5484 129.286 15.569C129.996 15.5444 130.694 15.7506 131.276 16.1566C131.828 16.5582 132.264 17.0995 132.538 17.7248C132.869 18.4377 133.097 19.1939 133.216 19.9707C133.297 20.4479 133.353 20.9293 133.382 21.4127C133.428 21.9282 133.45 22.4509 133.45 22.9809C133.45 23.8342 133.396 24.6867 133.288 25.5332C133.207 26.311 133.05 27.079 132.819 27.8259C132.778 27.9883 132.677 28.1296 132.538 28.2225C132.428 28.3065 132.294 28.3533 132.156 28.3559Z" fill="white" stroke="white" stroke-width="0.304845" stroke-miterlimit="10"/>
<path d="M143.879 28.5185C143.737 28.4987 143.608 28.429 143.513 28.3219C143.419 28.2148 143.365 28.0774 143.363 27.9345C143.302 27.5308 143.248 26.99 143.201 26.3195C143.154 25.649 143.115 24.9027 143.082 24.0736C143.05 23.2445 143.05 22.4045 143.035 21.5501C143.021 20.6957 143.014 19.8414 143.014 19.0483V16.9141C143.018 16.803 143.045 16.6939 143.092 16.5935C143.14 16.4931 143.208 16.4035 143.291 16.3301C143.362 16.2716 143.445 16.2289 143.534 16.2046C143.623 16.1804 143.716 16.1753 143.807 16.1895C143.898 16.1885 143.988 16.2093 144.069 16.25C144.151 16.2908 144.222 16.3503 144.275 16.4238C144.415 16.576 144.491 16.776 144.488 16.9826C144.47 17.2818 144.456 17.5846 144.441 17.8983V18.832C144.441 19.8774 144.47 20.995 144.535 22.1774C144.6 23.3598 144.658 24.636 144.719 25.9914C146.252 24.2274 147.773 22.5559 149.283 20.9769C150.792 19.3979 152.329 17.9247 153.893 16.5572C154.035 16.4282 154.218 16.3529 154.409 16.3445C154.583 16.3454 154.751 16.4124 154.878 16.532C155.022 16.6398 155.121 16.7981 155.155 16.9754C155.235 17.5522 155.296 18.1326 155.343 18.7094C155.39 19.2862 155.447 19.9567 155.462 20.721C155.476 21.4852 155.508 22.4225 155.508 23.5292C155.508 24.636 155.53 26.0095 155.53 27.6461C155.539 27.7509 155.521 27.8562 155.476 27.9513C155.431 28.0463 155.361 28.1276 155.274 28.1869C155.126 28.3021 154.946 28.3676 154.759 28.3743C154.651 28.381 154.543 28.3608 154.445 28.3155C154.347 28.2702 154.261 28.2012 154.196 28.1148C154.093 27.9722 154.036 27.8008 154.034 27.6245C154.034 27.3758 154.056 27.1018 154.056 26.8062V25.8509C154.056 25.1058 154.048 24.3103 154.034 23.4644C154.02 22.6184 153.996 21.7844 153.962 20.9625C153.933 20.1526 153.895 19.4508 153.847 18.8572C152.943 19.6022 152.123 20.3112 151.388 20.9841C150.667 21.6547 149.971 22.3504 149.283 23.0678C148.594 23.7852 147.92 24.5819 147.156 25.4327C146.392 26.2834 145.588 27.2352 144.65 28.3167C144.545 28.4456 144.394 28.5284 144.229 28.5474C144.174 28.5463 144.119 28.5391 144.066 28.5257C144.004 28.5303 143.941 28.5279 143.879 28.5185Z" fill="white" stroke="white" stroke-width="0.304845" stroke-miterlimit="10"/>
<path d="M167.816 28.402C167.718 28.4092 167.619 28.3915 167.529 28.3506C167.439 28.3097 167.36 28.2468 167.301 28.1677C167.198 28.0379 167.127 27.8862 167.092 27.7243C167.059 27.4756 167.038 27.0934 167.02 26.5779C167.002 26.0624 166.991 25.345 166.973 24.4149C166.955 23.4848 166.951 22.306 166.951 20.8568V15.4494C166.943 15.3452 166.962 15.2406 167.007 15.1462C167.052 15.0519 167.121 14.9711 167.207 14.9122C167.355 14.7975 167.536 14.7319 167.723 14.7248C167.832 14.7224 167.941 14.7468 168.039 14.7958C168.137 14.8448 168.221 14.9169 168.285 15.006C168.389 15.1485 168.446 15.3199 168.447 15.4962C168.447 15.6368 168.447 15.9252 168.426 16.365V17.9548C168.426 18.5641 168.426 19.2094 168.4 19.8979V21.8878C169.496 21.873 170.586 21.7229 171.645 21.4408C172.646 21.1901 173.604 20.7903 174.486 20.2548C175.259 19.7774 175.914 19.1302 176.4 18.3622C176.854 17.611 177.06 16.7354 176.987 15.8603C176.978 15.7584 176.989 15.6556 177.021 15.5583C177.053 15.4609 177.104 15.3711 177.172 15.2943C177.24 15.2176 177.322 15.1555 177.415 15.112C177.508 15.0684 177.608 15.0443 177.711 15.0411C177.813 15.0379 177.915 15.0557 178.01 15.0933C178.105 15.131 178.192 15.1878 178.264 15.2601C178.336 15.3325 178.393 15.4189 178.431 15.5141C178.469 15.6093 178.487 15.7111 178.484 15.8135C178.545 17.0695 178.191 18.3109 177.478 19.3463C176.756 20.3624 175.821 21.2088 174.738 21.8266C175.755 22.8864 176.621 23.8694 177.337 24.7754C177.927 25.4322 178.401 26.1843 178.74 26.9997C178.805 27.1293 178.827 27.2767 178.802 27.4197C178.776 27.5627 178.705 27.6937 178.599 27.7928C178.524 27.872 178.434 27.934 178.333 27.9745C178.232 28.015 178.123 28.0329 178.015 28.0271C177.869 28.0313 177.726 27.9878 177.608 27.9032C177.49 27.8185 177.402 27.6975 177.359 27.5585C177.086 26.9788 176.741 26.4361 176.331 25.9434C175.851 25.321 175.344 24.7057 174.81 24.0977C174.262 23.474 173.765 22.9405 173.314 22.5043C172.987 22.6403 172.649 22.75 172.305 22.8323C171.886 22.9405 171.425 23.045 170.924 23.1388C170.423 23.2325 169.972 23.2758 169.522 23.3226C169.163 23.365 168.802 23.389 168.44 23.3947C168.473 24.5195 168.487 25.4063 168.487 26.0624C168.487 26.7185 168.534 27.2088 168.581 27.5837C168.6 27.6872 168.594 27.7937 168.566 27.895C168.537 27.9962 168.485 28.0895 168.415 28.1677C168.341 28.2518 168.248 28.3169 168.144 28.3577C168.04 28.3985 167.928 28.4137 167.816 28.402Z" fill="white" stroke="white" stroke-width="0.304845" stroke-miterlimit="10"/>
<path d="M84.0437 50.7562C83.8392 50.7374 83.6484 50.6452 83.5065 50.4967C83.4311 50.4304 83.3725 50.3471 83.3355 50.2537C83.2985 50.1603 83.2843 50.0595 83.2938 49.9595V49.0943C83.2938 48.6581 83.3263 48.1642 83.3407 47.6199C83.3551 47.0755 83.3659 46.5384 83.3659 46.0049C83.3659 45.4713 83.3876 45.0928 83.3876 44.8116H73.3513V46.4735C73.3513 46.971 73.3802 47.4937 73.3982 48.0417C73.4162 48.5896 73.427 49.2097 73.4451 49.9595C73.4602 50.0576 73.451 50.1578 73.4183 50.2515C73.3856 50.3451 73.3304 50.4293 73.2576 50.4967C73.19 50.5727 73.1065 50.6331 73.0131 50.6736C72.9197 50.714 72.8186 50.7336 72.7169 50.731C72.6135 50.7534 72.5058 50.7456 72.4068 50.7085C72.3077 50.6714 72.2214 50.6067 72.1581 50.5219C72.0519 50.3748 71.9793 50.2062 71.9454 50.028C71.9454 49.718 71.9165 49.2169 71.8985 48.5319C71.8805 47.847 71.8985 47.0575 71.8769 46.1671V41.185C71.8769 40.464 71.8985 39.8115 71.8985 39.2636C71.8985 38.7156 71.931 38.3299 71.9454 38.0956C71.9911 37.6149 72.2254 37.3806 72.6484 37.3926C72.767 37.377 72.8877 37.3927 72.9984 37.4382C73.1091 37.4838 73.2059 37.5575 73.2792 37.6521C73.3407 37.7258 73.3852 37.8122 73.4095 37.905C73.4338 37.9979 73.4373 38.0949 73.4198 38.1893C73.4198 38.3299 73.4198 38.6255 73.3982 39.0797C73.3766 39.5339 73.3982 40.0134 73.373 40.5758C73.3477 41.1381 73.3441 41.6573 73.3261 42.1656V43.3264H83.3912C83.3912 43.062 83.384 42.6727 83.3695 42.1584C83.3695 41.6428 83.3695 41.1129 83.3443 40.565C83.3191 40.017 83.3155 39.5051 83.2974 39.0689V38.2037C83.2816 38.0943 83.2949 37.9827 83.3361 37.8802C83.3772 37.7776 83.4447 37.6878 83.5318 37.6197C83.6815 37.4875 83.8729 37.4122 84.0725 37.407C84.2537 37.4057 84.4287 37.4726 84.5628 37.5945C84.6335 37.6597 84.6889 37.7397 84.725 37.8288C84.7612 37.9179 84.7772 38.0139 84.7719 38.11C84.8301 38.5885 84.8614 39.0699 84.8656 39.552C84.8993 40.1768 84.9149 40.887 84.9125 41.6825C84.9101 42.478 84.9185 43.2807 84.9377 44.0906C84.9377 44.9174 84.9293 45.7285 84.9125 46.524C84.9125 47.3063 84.9125 48.0056 84.8656 48.6293C84.8603 49.1113 84.829 49.5926 84.7719 50.0713C84.7631 50.2597 84.6843 50.438 84.551 50.5714C84.4176 50.7047 84.2393 50.7835 84.0509 50.7923L84.0437 50.7562Z" fill="white" stroke="white" stroke-width="0.304845" stroke-miterlimit="10"/>
<path d="M107.281 51.3156C106.968 51.2399 106.788 51.1209 106.741 50.9551C106.688 50.7651 106.665 50.5681 106.672 50.3711C105.097 50.9858 103.424 51.3106 101.733 51.33C100.604 51.3467 99.4833 51.1396 98.4348 50.7208C97.4831 50.3391 96.6628 49.6891 96.0736 48.8498C95.4613 47.8816 95.1582 46.7499 95.2048 45.6053C95.1824 45.0067 95.2832 44.4099 95.5008 43.8518C95.7185 43.2937 96.0484 42.7863 96.4701 42.3609C97.3776 41.468 98.51 40.8376 99.747 40.5367C100.468 40.3661 101.206 40.2802 101.946 40.2808C103.597 40.2879 105.226 40.6571 106.719 41.3623C106.594 40.7594 106.341 40.1903 105.978 39.6929C105.615 39.1956 105.15 38.7815 104.614 38.4783C103.456 37.8861 102.168 37.5959 100.868 37.6347C100.188 37.6364 99.5088 37.6833 98.835 37.7753C98.158 37.8499 97.4854 37.9594 96.8198 38.1034C96.7246 38.1268 96.6256 38.1306 96.5289 38.1145C96.4322 38.0984 96.3399 38.0627 96.2574 38.0097C96.0928 37.8916 95.9773 37.7171 95.933 37.5194C95.9122 37.3164 95.9524 37.1118 96.0483 36.9318C96.0936 36.8451 96.1606 36.7717 96.2427 36.7186C96.3249 36.6655 96.4194 36.6346 96.517 36.6289C97.9634 36.3222 99.4365 36.158 100.915 36.1387C103.333 36.1387 105.174 36.7539 106.438 37.9844C107.702 39.2149 108.423 41.033 108.601 43.4387C108.652 43.9044 108.676 44.3726 108.673 44.8411C108.673 45.4503 108.648 46.1136 108.601 46.831C108.554 47.5484 108.493 48.2442 108.413 48.9147C108.334 49.5852 108.251 50.162 108.157 50.6451C108.157 50.7531 108.125 50.8587 108.067 50.9498C108.009 51.041 107.927 51.114 107.829 51.1606C107.661 51.2537 107.474 51.3068 107.281 51.3156ZM100.237 49.7006C100.514 49.7649 100.797 49.8047 101.081 49.8195C101.36 49.8513 101.64 49.867 101.921 49.8664C102.758 49.8658 103.592 49.7555 104.401 49.5384C105.26 49.3127 106.103 49.0309 106.925 48.6948C107.004 47.9738 107.066 47.2961 107.112 46.6616C107.173 46.0379 107.206 45.4359 107.206 44.8591C107.206 44.5923 107.206 44.3364 107.18 44.0876C107.155 43.8389 107.144 43.5649 107.112 43.3126H107.087V43.2909C106.309 42.8082 105.467 42.438 104.585 42.1914C103.743 41.9296 102.867 41.7947 101.986 41.7913C101.721 41.7925 101.456 41.8082 101.193 41.8381C100.924 41.8565 100.658 41.8963 100.396 41.9571C99.4076 42.1613 98.4931 42.6298 97.7499 43.3126C97.4139 43.6306 97.1488 44.0158 96.9718 44.4432C96.7948 44.8705 96.7098 45.3304 96.7225 45.7928C96.7225 46.9776 97.0577 47.8753 97.7282 48.4857C98.4412 49.1073 99.3075 49.5268 100.237 49.7006Z" fill="white" stroke="white" stroke-width="0.304845" stroke-miterlimit="10"/>
<path d="M132.734 51.5968C132.639 51.6001 132.545 51.5805 132.459 51.5398C132.373 51.499 132.298 51.4382 132.24 51.3625C132.115 51.2033 132.049 51.006 132.053 50.8037C132.147 50.0539 132.258 49.2175 132.381 48.2802C132.503 47.3429 132.648 46.4165 132.803 45.4503C132.958 44.4842 133.116 43.5217 133.271 42.6168C133.426 41.712 133.607 40.8792 133.762 40.1618C133.917 39.4445 134.057 38.8496 134.183 38.4279C134.227 38.2663 134.326 38.1256 134.465 38.0313C134.582 37.9537 134.72 37.9124 134.861 37.9123C135.046 37.9125 135.226 37.9705 135.377 38.0782C135.442 38.0536 135.505 38.0221 135.564 37.9844C135.622 37.9488 135.685 37.9244 135.752 37.9123C136.328 37.8186 136.999 37.7489 137.763 37.7033C138.545 37.642 139.299 37.6095 140.034 37.6095C140.967 37.5932 141.9 37.6717 142.817 37.8438C143.467 37.9423 144.059 38.2758 144.479 38.7811C144.896 39.3693 145.094 40.0848 145.038 40.8035V41.1316C145.038 41.2522 145.03 41.3727 145.013 41.4921C144.951 42.0869 144.897 42.725 144.851 43.4099C144.804 44.0949 144.804 44.7546 144.804 45.4251C144.798 46.3178 144.86 47.2097 144.991 48.0928C145.117 48.9039 145.334 49.4627 145.647 49.7763C145.77 49.9098 145.922 50.0134 146.091 50.0791C146.274 50.1298 146.464 50.1457 146.653 50.126C146.747 50.1082 146.844 50.1116 146.937 50.1359C147.03 50.1602 147.117 50.2049 147.19 50.2666C147.268 50.3375 147.329 50.4247 147.37 50.5218C147.41 50.619 147.429 50.7238 147.424 50.829C147.471 51.3445 147.183 51.6004 146.559 51.6004C146.203 51.6213 145.847 51.5679 145.512 51.4438C145.178 51.3197 144.873 51.1275 144.616 50.8794C144.126 50.3557 143.786 49.7093 143.632 49.0084C143.562 49.1349 143.461 49.2418 143.339 49.3193C143.217 49.3967 143.077 49.4423 142.933 49.4519H133.693C133.693 49.5456 133.653 49.7006 133.621 49.9205C133.589 50.1404 133.592 50.3423 133.574 50.5297C133.556 50.7172 133.553 50.865 133.553 50.9263C133.526 51.1206 133.426 51.2976 133.275 51.4219C133.123 51.5462 132.93 51.6087 132.734 51.5968ZM143.473 48.2045C143.409 47.951 143.362 47.6932 143.333 47.4331C143.333 47.1375 143.308 46.8166 143.308 46.4741C143.308 45.8505 143.333 45.1619 143.38 44.4121C143.427 43.6623 143.488 42.8475 143.52 42.004C143.534 41.8723 143.541 41.7399 143.542 41.6074V41.2469C143.582 40.7367 143.477 40.2255 143.239 39.7725C143.123 39.6053 142.969 39.4675 142.79 39.3699C142.611 39.2723 142.412 39.2176 142.208 39.2101C141.518 39.1223 140.823 39.0837 140.128 39.0948C139.486 39.0948 138.809 39.1272 138.091 39.1885C137.374 39.2498 136.689 39.3219 135.986 39.3976C135.876 39.4011 135.766 39.3939 135.658 39.376C135.601 39.3563 135.545 39.3322 135.492 39.3039C135.196 40.3661 134.963 41.3731 134.793 42.3248C134.62 43.2765 134.472 44.2102 134.346 45.1331C134.219 46.056 134.075 46.9969 133.902 47.963H142.936C143.038 47.9645 143.137 47.9867 143.23 48.0282C143.322 48.0698 143.405 48.1298 143.473 48.2045Z" fill="white" stroke="white" stroke-width="0.304845" stroke-miterlimit="10"/>
<path d="M162.496 51.2566C161.149 51.2857 159.818 50.9626 158.635 50.3193C157.558 49.7116 156.674 48.8118 156.086 47.7237C155.457 46.5189 155.142 45.1748 155.171 43.8159C155.149 42.5056 155.455 41.2106 156.061 40.0487C156.645 38.965 157.519 38.0651 158.585 37.4495C159.755 36.785 161.082 36.4487 162.428 36.4762C163.672 36.4591 164.896 36.7913 165.96 37.4351C167.007 38.0778 167.869 38.9808 168.462 40.0559C169.102 41.2019 169.448 42.489 169.468 43.8015C169.476 43.9885 169.413 44.1715 169.292 44.3144C169.171 44.4573 169.001 44.5496 168.816 44.5729C168.455 44.6198 167.965 44.6595 167.294 44.6883C166.624 44.7171 165.852 44.7532 164.976 44.782L162.215 44.8289H156.692C156.778 45.7755 157.1 46.6853 157.629 47.4749C158.147 48.213 158.849 48.8023 159.666 49.1837C160.544 49.5957 161.505 49.8028 162.474 49.7893C163.399 49.7884 164.317 49.6312 165.189 49.3243C166.029 49.0474 166.808 48.6103 167.482 48.0373C167.631 47.9281 167.812 47.8699 167.997 47.8715C168.098 47.8691 168.199 47.8889 168.292 47.9293C168.384 47.9698 168.467 48.03 168.534 48.1058C168.628 48.2442 168.677 48.4076 168.675 48.5745C168.681 48.6761 168.663 48.7778 168.622 48.8712C168.582 48.9645 168.519 49.0469 168.441 49.1116C167.605 49.8161 166.643 50.3566 165.607 50.705C164.608 51.0625 163.557 51.249 162.496 51.2566ZM156.645 43.3581H159.854L163.127 43.3112C164.208 43.2824 165.142 43.2571 165.982 43.2427L167.95 43.1706C167.856 42.1695 167.518 41.2067 166.966 40.3659C166.454 39.5998 165.752 38.9789 164.929 38.5634C164.057 38.1305 163.094 37.9129 162.121 37.929C161.169 37.9279 160.233 38.1765 159.407 38.65C158.614 39.1147 157.953 39.775 157.489 40.5678C156.989 41.4172 156.7 42.374 156.645 43.3581Z" fill="white" stroke="white" stroke-width="0.304845" stroke-miterlimit="10"/>
<path d="M181.357 51.2575C180.95 51.2575 180.694 51.0232 180.586 50.5581C180.552 49.9645 180.521 49.2435 180.492 48.3952C180.46 47.5227 180.438 46.5927 180.42 45.6121C180.402 44.6316 180.398 43.6366 180.398 42.6849C180.398 41.6106 180.414 40.6204 180.445 39.7144C180.474 38.8095 180.521 38.121 180.586 37.6559C180.628 37.4803 180.727 37.3233 180.867 37.2089C180.987 37.1106 181.132 37.0459 181.285 37.0215C181.584 36.9926 181.887 36.9674 182.201 36.953C182.515 36.9385 182.864 36.9277 183.207 36.9277C184.293 36.9304 185.378 37.0171 186.451 37.1873C187.428 37.3008 188.382 37.5609 189.281 37.9588C190.294 38.3835 191.186 39.0508 191.88 39.9018C192.53 40.7199 192.87 41.7414 192.839 42.7858C192.873 43.7054 192.602 44.6103 192.068 45.3598C191.531 46.0589 190.821 46.6067 190.009 46.9496C189.068 47.3636 188.076 47.6544 187.06 47.8148C186.215 47.9493 185.363 48.0359 184.508 48.0743C183.59 48.12 182.74 48.1356 181.959 48.1212V48.4817C181.959 48.716 181.988 48.99 182.006 49.3C182.024 49.61 182.035 49.884 182.053 50.1183L182.075 50.4788C182.129 50.9583 181.887 51.2215 181.357 51.2575ZM181.941 46.6251C182.816 46.6251 183.643 46.6023 184.422 46.5566C185.204 46.5098 185.997 46.4304 186.808 46.3223C187.965 46.1735 189.08 45.7908 190.085 45.1975C190.488 44.9431 190.815 44.5857 191.033 44.1623C191.251 43.7389 191.352 43.2649 191.325 42.7894C191.36 42.009 191.091 41.2454 190.575 40.6589C190.043 40.062 189.379 39.5968 188.636 39.2998C187.824 38.9807 186.977 38.7616 186.112 38.6473C185.207 38.505 184.292 38.4338 183.376 38.4346C183.142 38.4346 182.907 38.4346 182.673 38.4598C182.439 38.4851 182.23 38.4598 181.995 38.4815C181.977 38.7951 181.963 39.2313 181.949 39.7937C181.934 40.3561 181.949 40.9689 181.923 41.643C181.898 42.3172 181.923 42.9516 181.902 43.6077V46.1312C181.934 46.3619 181.941 46.5278 181.941 46.6359V46.6251Z" fill="white" stroke="white" stroke-width="0.304845" stroke-miterlimit="10"/>
<path d="M209.295 51.2565C207.949 51.2849 206.618 50.9618 205.434 50.3193C204.357 49.7116 203.474 48.8118 202.886 47.7237C202.258 46.5186 201.944 45.1745 201.974 43.8159C201.951 42.5059 202.256 41.211 202.86 40.0487C203.444 38.965 204.318 38.0651 205.384 37.4495C206.554 36.785 207.882 36.4487 209.227 36.4762C210.471 36.4591 211.695 36.7913 212.76 37.4351C213.806 38.0778 214.668 38.9808 215.262 40.0559C215.903 41.2016 216.25 42.4886 216.271 43.8015C216.278 43.9888 216.214 44.1719 216.093 44.3147C215.971 44.4575 215.801 44.5496 215.615 44.5729C215.272 44.6198 214.764 44.6594 214.094 44.6883C213.423 44.7171 212.652 44.7532 211.776 44.782L209.014 44.8289H203.491C203.577 45.7755 203.9 46.6853 204.429 47.4749C204.946 48.213 205.649 48.8023 206.465 49.1837C207.344 49.5953 208.304 49.8024 209.274 49.7893C210.198 49.7884 211.116 49.6312 211.988 49.3243C212.828 49.0474 213.607 48.6103 214.281 48.0373C214.431 47.9281 214.611 47.8699 214.797 47.8715C214.898 47.8691 214.998 47.8889 215.091 47.9293C215.184 47.9698 215.267 48.03 215.334 48.1058C215.427 48.2442 215.476 48.4076 215.474 48.5744C215.48 48.6761 215.462 48.7778 215.422 48.8712C215.381 48.9645 215.319 49.0469 215.24 49.1116C214.405 49.8152 213.445 50.3557 212.41 50.705C211.41 51.0622 210.357 51.2487 209.295 51.2565ZM203.437 43.3581H206.646L209.926 43.3256C210.986 43.2968 211.938 43.2715 212.778 43.2571L214.746 43.185C214.651 42.1839 214.314 41.2211 213.762 40.3803C213.249 39.6142 212.548 38.9933 211.725 38.5779C210.853 38.1449 209.89 37.9273 208.917 37.9434C207.965 37.9423 207.029 38.1909 206.202 38.6644C205.409 39.1291 204.749 39.7894 204.284 40.5822C203.785 41.427 203.495 42.3786 203.437 43.3581Z" fill="white" stroke="white" stroke-width="0.304845" stroke-miterlimit="10"/>
<path d="M232.136 50.8235C231.714 50.8235 231.231 50.8235 230.694 50.8235C230.157 50.8235 229.649 50.7694 229.151 50.7081C228.654 50.6469 228.246 50.6036 227.933 50.5423C227.788 50.4781 227.654 50.3918 227.536 50.2864C227.423 50.1928 227.342 50.0671 227.302 49.9259C227.189 49.4805 227.117 49.0255 227.089 48.5668C227.041 47.8818 226.994 47.0707 226.949 46.1334C226.92 45.1997 226.887 44.2228 226.859 43.2098C226.83 42.1968 226.833 41.2126 226.833 40.3258C226.833 39.5291 226.833 38.8298 226.859 38.2205C226.884 37.6113 226.895 37.139 226.927 36.8398C226.964 36.6814 227.041 36.5354 227.152 36.4165C227.262 36.2975 227.403 36.2098 227.558 36.1621C228.433 36.0347 229.259 35.941 230.038 35.8809C230.817 35.8208 231.589 35.7811 232.356 35.7619C233.362 35.7567 234.365 35.8509 235.352 36.0431C236.225 36.1897 237.07 36.4745 237.854 36.8867C238.546 37.2249 239.143 37.7319 239.588 38.3611C240.005 38.9733 240.222 39.7003 240.208 40.4412C240.221 40.8795 240.141 41.3156 239.971 41.7199C239.801 42.1242 239.546 42.4873 239.224 42.7844C238.521 43.4135 237.691 43.8844 236.79 44.1651C237.42 44.4005 237.954 44.8362 238.312 45.4052C238.716 45.9882 238.929 46.6823 238.921 47.3916C238.931 47.6965 238.88 48.0004 238.772 48.2857C238.664 48.571 238.5 48.8319 238.29 49.0535C237.842 49.5157 237.287 49.8611 236.675 50.0592C235.977 50.3206 235.251 50.502 234.512 50.6C233.707 50.7178 232.915 50.7923 232.136 50.8235ZM231.556 49.3274C232.495 49.3293 233.433 49.2667 234.364 49.14C235.133 49.0529 235.883 48.8474 236.588 48.5307C237.165 48.2351 237.454 47.853 237.454 47.3844C237.469 47.102 237.415 46.8203 237.297 46.5634C237.179 46.3065 237 46.0822 236.776 45.9099C236.266 45.5165 235.673 45.244 235.042 45.1132C234.312 44.9343 233.57 44.8138 232.821 44.7527C232.626 44.7238 232.445 44.6328 232.306 44.4932C232.244 44.419 232.198 44.3333 232.17 44.241C232.142 44.1488 232.133 44.0519 232.143 43.956C232.133 43.8458 232.154 43.7348 232.203 43.6356C232.252 43.5363 232.327 43.4525 232.421 43.3937C232.638 43.2624 232.889 43.1973 233.142 43.2062C233.806 43.2374 234.472 43.1987 235.128 43.0908C235.758 42.9773 236.372 42.7885 236.956 42.5285C237.457 42.3087 237.904 41.9813 238.265 41.5695C238.423 41.3885 238.543 41.1764 238.615 40.9468C238.688 40.7172 238.712 40.4751 238.686 40.2357C238.66 39.8813 238.551 39.538 238.368 39.2332C238.185 38.9284 237.934 38.6705 237.634 38.4801C236.913 37.9952 236.101 37.6616 235.247 37.4995C234.271 37.2934 233.275 37.1919 232.277 37.1967C231.624 37.1967 230.968 37.2436 230.312 37.2904C229.656 37.3373 229.011 37.4094 228.369 37.5031C228.34 37.7519 228.315 38.0871 228.301 38.5089C228.286 38.9307 228.275 39.4066 228.275 39.9509C228.275 40.6971 228.275 41.5191 228.301 42.4059C228.326 43.2927 228.369 44.1543 228.416 45.0267C228.463 45.8991 228.51 46.703 228.557 47.4384C228.603 48.1738 228.65 48.7326 228.697 49.1688C229.151 49.2313 229.62 49.271 230.103 49.2878C230.582 49.3094 231.066 49.3274 231.556 49.3274Z" fill="white" stroke="white" stroke-width="0.304845" stroke-miterlimit="10"/>
<path d="M256.096 51.2565C254.749 51.2849 253.419 50.9618 252.235 50.3193C251.159 49.7105 250.275 48.811 249.686 47.7237C249.058 46.5186 248.745 45.1745 248.774 43.8159C248.752 42.5059 249.056 41.211 249.661 40.0487C250.245 38.965 251.119 38.0651 252.185 37.4495C253.355 36.785 254.682 36.4487 256.027 36.4762C257.272 36.4591 258.496 36.7913 259.56 37.4351C260.614 38.0762 261.483 38.9791 262.084 40.0559C262.721 41.2032 263.066 42.4894 263.09 43.8015C263.096 43.9888 263.033 44.1719 262.911 44.3147C262.79 44.4575 262.62 44.5496 262.434 44.5729C262.073 44.6198 261.583 44.6594 260.912 44.6883C260.242 44.7171 259.47 44.7532 258.594 44.782L255.833 44.8289H250.303C250.386 45.7755 250.707 46.6858 251.236 47.4749C251.755 48.2123 252.457 48.8014 253.273 49.1837C254.152 49.5953 255.112 49.8024 256.082 49.7893C257.006 49.7884 257.924 49.6312 258.796 49.3243C259.636 49.0474 260.415 48.6103 261.089 48.0373C261.238 47.9281 261.419 47.8699 261.604 47.8715C261.706 47.8691 261.806 47.8889 261.899 47.9293C261.992 47.9698 262.074 48.03 262.142 48.1058C262.235 48.2442 262.284 48.4076 262.282 48.5744C262.288 48.6761 262.27 48.7778 262.229 48.8712C262.189 48.9645 262.126 49.0469 262.048 49.1116C261.213 49.8152 260.253 50.3557 259.218 50.705C258.216 51.063 257.16 51.2495 256.096 51.2565ZM250.249 43.3689H253.454L256.73 43.322C257.79 43.2932 258.742 43.2679 259.586 43.2535L261.55 43.1814C261.457 42.1799 261.119 41.2167 260.566 40.3767C260.054 39.6116 259.354 38.9909 258.533 38.5743C257.658 38.133 256.69 37.908 255.71 37.9182C254.759 37.9158 253.824 38.1645 252.999 38.6391C252.205 39.1027 251.543 39.7632 251.078 40.557C250.58 41.4102 250.295 42.3712 250.249 43.3581V43.3689Z" fill="white" stroke="white" stroke-width="0.304845" stroke-miterlimit="10"/>
<path d="M77.1955 59.2455H75.0325V64.7719H74.1493V59.2455H71.9863V58.4668H77.1883L77.1955 59.2455Z" fill="white"/>
<path d="M83.3917 63.4569C83.4005 63.6457 83.3619 63.8337 83.2794 64.0037C83.1969 64.1737 83.0732 64.3203 82.9195 64.4303C82.4981 64.6931 82.0057 64.819 81.5099 64.7908H79.21V59.9962H81.427C81.8913 59.9691 82.3531 60.0808 82.7537 60.317C82.9053 60.4129 83.0291 60.547 83.1126 60.7058C83.1961 60.8646 83.2364 61.0426 83.2295 61.2218C83.2363 61.4557 83.1653 61.6852 83.0276 61.8743C82.8843 62.0649 82.689 62.2101 82.4653 62.2925C82.7371 62.336 82.983 62.4795 83.1544 62.695C83.3258 62.9105 83.4105 63.1822 83.3917 63.4569ZM80.0571 62.051H81.3549C81.6185 62.0681 81.8811 62.0053 82.1084 61.8707C82.1922 61.8128 82.2598 61.7344 82.3046 61.6428C82.3495 61.5513 82.37 61.4498 82.3643 61.348C82.3643 60.8902 82.0291 60.6631 81.3549 60.6631H80.0571V62.051ZM82.2562 63.9328C82.3451 63.8774 82.4173 63.7987 82.4649 63.7054C82.5126 63.612 82.5339 63.5074 82.5265 63.4029C82.5337 63.2979 82.5152 63.1928 82.4724 63.0966C82.4297 63.0005 82.3641 62.9163 82.2814 62.8513C82.0449 62.7134 81.7721 62.6505 81.4991 62.671H80.0571V64.113H81.445C81.7245 64.1279 82.0026 64.0655 82.249 63.9328H82.2562Z" fill="white"/>
<path d="M86.6753 64.5084C86.3044 64.3073 85.9972 64.0063 85.7885 63.6396C85.5761 63.253 85.4648 62.819 85.4648 62.3779C85.4648 61.9368 85.5761 61.5028 85.7885 61.1162C85.9972 60.7495 86.3044 60.4485 86.6753 60.2474C87.0705 60.0437 87.5087 59.9375 87.9533 59.9375C88.3979 59.9375 88.836 60.0437 89.2312 60.2474C89.5997 60.4506 89.9052 60.7511 90.1145 61.1162C90.3246 61.5035 90.4347 61.9372 90.4347 62.3779C90.4347 62.8186 90.3246 63.2523 90.1145 63.6396C89.9052 64.0047 89.5997 64.3052 89.2312 64.5084C88.8375 64.7168 88.3988 64.8257 87.9533 64.8257C87.5078 64.8257 87.0691 64.7168 86.6753 64.5084ZM88.7986 63.874C89.0408 63.7334 89.2382 63.5272 89.3682 63.2792C89.5057 63.007 89.5774 62.7063 89.5774 62.4013C89.5774 62.0964 89.5057 61.7957 89.3682 61.5235C89.2397 61.2754 89.0418 61.07 88.7986 60.9323C88.5451 60.7951 88.2614 60.7232 87.9731 60.7232C87.6848 60.7232 87.4011 60.7951 87.1476 60.9323C86.9035 61.0712 86.7036 61.2761 86.5708 61.5235C86.431 61.795 86.3581 62.096 86.3581 62.4013C86.3581 62.7067 86.431 63.0077 86.5708 63.2792C86.7045 63.5269 86.9041 63.7327 87.1476 63.874C87.4004 64.0135 87.6844 64.0866 87.9731 64.0866C88.2618 64.0866 88.5459 64.0135 88.7986 63.874Z" fill="white"/>
<path d="M96.6324 60.2697C96.9947 60.4687 97.2934 60.7661 97.494 61.1276C97.6978 61.5209 97.8042 61.9573 97.8042 62.4002C97.8042 62.8431 97.6978 63.2795 97.494 63.6728C97.2953 64.0366 96.9962 64.3356 96.6324 64.5343C96.2517 64.7435 95.8229 64.8491 95.3887 64.8408C95.0642 64.8452 94.7428 64.7775 94.4478 64.6425C94.1652 64.51 93.9181 64.3123 93.7268 64.0657V66.5351H92.8616V60.0101H93.6907V60.7671C93.8751 60.5085 94.1236 60.3023 94.4117 60.1687C94.7171 60.0296 95.0495 59.9594 95.3851 59.9632C95.8203 59.9561 96.25 60.0616 96.6324 60.2697ZM96.1421 63.8746C96.3863 63.7343 96.5861 63.5282 96.7189 63.2798C96.8587 63.0083 96.9316 62.7074 96.9316 62.402C96.9316 62.0966 96.8587 61.7957 96.7189 61.5242C96.587 61.2761 96.3869 61.0709 96.1421 60.933C95.8908 60.7948 95.6087 60.7223 95.322 60.7223C95.0352 60.7223 94.7531 60.7948 94.5018 60.933C94.2594 61.074 94.06 61.2784 93.925 61.5242C93.7802 61.7918 93.7069 62.0923 93.7124 62.3966C93.7062 62.7028 93.7781 63.0055 93.9214 63.2762C94.0514 63.5266 94.2519 63.7334 94.4982 63.871C94.7497 64.0105 95.0326 64.0837 95.3202 64.0837C95.6078 64.0837 95.8906 64.0105 96.1421 63.871V63.8746Z" fill="white"/>
<path d="M100.231 59.9961H101.096V63.4749L104.024 59.9961H104.809V64.7727H103.941V61.2939L101.021 64.7727H100.228L100.231 59.9961Z" fill="white"/>
<path d="M111.216 60.7531H109.467V64.7727H108.602V60.7531H106.854V59.9961H111.216V60.7531Z" fill="white"/>
<path d="M116.867 62.0329C117.028 62.1751 117.154 62.3518 117.236 62.5497C117.318 62.7476 117.355 62.9616 117.343 63.1757C117.357 63.4019 117.317 63.6282 117.227 63.8362C117.136 64.0441 116.998 64.2279 116.824 64.3725C116.393 64.6772 115.869 64.8213 115.342 64.7799H113.269V59.9961H114.135V61.6075H115.479C115.978 61.5812 116.469 61.7319 116.867 62.0329ZM116.146 63.8895C116.249 63.8011 116.33 63.69 116.383 63.5648C116.435 63.4396 116.458 63.3039 116.449 63.1685C116.46 63.0391 116.439 62.909 116.388 62.7896C116.337 62.6702 116.258 62.5651 116.157 62.4835C115.888 62.3186 115.575 62.2394 115.259 62.2564H114.124V64.131H115.259C115.579 64.1559 115.898 64.0651 116.157 63.875L116.146 63.8895Z" fill="white"/>
<path d="M119.319 64.6498C119.259 64.5923 119.212 64.5227 119.181 64.4457C119.15 64.3686 119.136 64.2858 119.139 64.2028C119.137 64.1216 119.152 64.0407 119.183 63.9656C119.214 63.8904 119.26 63.8227 119.319 63.7666C119.376 63.7098 119.444 63.665 119.518 63.6346C119.592 63.6043 119.672 63.5891 119.752 63.59C119.83 63.5882 119.908 63.6027 119.981 63.6325C120.054 63.6622 120.119 63.7067 120.174 63.763C120.231 63.8204 120.277 63.8891 120.306 63.9648C120.336 64.0405 120.35 64.1215 120.347 64.2028C120.349 64.2854 120.334 64.3676 120.304 64.4444C120.274 64.5212 120.228 64.5911 120.17 64.6498C120.116 64.7059 120.051 64.7504 119.979 64.7807C119.907 64.8111 119.83 64.8267 119.752 64.8265C119.672 64.8274 119.592 64.8122 119.518 64.7819C119.444 64.7515 119.376 64.7066 119.319 64.6498Z" fill="white"/>
<path d="M132.369 64.7719V60.1756L130.091 64.004H129.677L127.373 60.2008V64.7719H126.508V58.4668H127.247L129.878 62.9009L132.474 58.4668H133.213V64.7755L132.369 64.7719Z" fill="white"/>
<path d="M140.523 62.6713H136.648C136.668 62.8687 136.727 63.0601 136.823 63.2341C136.918 63.4082 137.048 63.5612 137.203 63.6843C137.581 63.9644 138.048 64.0992 138.517 64.0641C138.986 64.029 139.427 63.8264 139.759 63.4932L140.235 64.052C140.016 64.3065 139.739 64.5044 139.427 64.6288C139.084 64.7665 138.716 64.834 138.346 64.8271C137.879 64.8357 137.417 64.7292 137.001 64.5171C136.622 64.3195 136.308 64.0165 136.097 63.6447C135.88 63.2598 135.769 62.8245 135.776 62.3829C135.77 61.9462 135.877 61.5155 136.086 61.132C136.286 60.7681 136.583 60.4663 136.944 60.2596C137.319 60.0507 137.743 59.9438 138.173 59.9496C138.601 59.9424 139.023 60.0494 139.395 60.2596C139.75 60.4661 140.04 60.7684 140.231 61.132C140.439 61.5262 140.543 61.9665 140.534 62.4118C140.541 62.4766 140.534 62.5632 140.523 62.6713ZM137.138 61.0599C136.856 61.3171 136.681 61.671 136.648 62.0513H139.712C139.676 61.6728 139.502 61.3209 139.222 61.0635C138.93 60.8182 138.561 60.6836 138.18 60.6836C137.799 60.6836 137.43 60.8182 137.138 61.0635V61.0599Z" fill="white"/>
<path d="M146.868 59.9961V64.7727H146.003V62.844C145.522 63.0748 144.997 63.1978 144.463 63.2045C143.968 63.235 143.479 63.088 143.083 62.7899C142.914 62.6322 142.782 62.4386 142.698 62.2233C142.614 62.0081 142.579 61.7767 142.596 61.5462V59.9961H143.461V61.4922C143.452 61.632 143.475 61.7722 143.529 61.9016C143.582 62.0311 143.665 62.1464 143.771 62.2384C144.024 62.4211 144.332 62.5103 144.644 62.4907C145.113 62.4794 145.576 62.3727 146.003 62.1771V60.0141L146.868 59.9961Z" fill="white"/>
<path d="M153.278 60.7531H151.526V64.7727H150.661V60.7531H148.912V59.9961H153.274L153.278 60.7531Z" fill="white"/>
<path d="M158.551 60.4359C158.736 60.6253 158.879 60.8517 158.971 61.1002C159.062 61.3487 159.1 61.6138 159.081 61.8779V64.7619H158.259V64.131C158.11 64.3588 157.895 64.536 157.643 64.6393C157.341 64.7626 157.017 64.8227 156.691 64.8159C156.231 64.8392 155.777 64.7015 155.408 64.4266C155.259 64.3036 155.138 64.1496 155.055 63.9751C154.971 63.8007 154.927 63.6102 154.925 63.4168C154.923 63.2235 154.963 63.032 155.043 62.8559C155.122 62.6797 155.24 62.5231 155.386 62.397C155.814 62.1048 156.33 61.9687 156.846 62.0113H158.216V61.8418C158.226 61.684 158.203 61.5257 158.147 61.3778C158.091 61.2298 158.004 61.0955 157.892 60.9838C157.622 60.7688 157.281 60.6632 156.936 60.6882C156.654 60.6884 156.374 60.7359 156.107 60.8288C155.858 60.9049 155.626 61.0272 155.422 61.1893L155.062 60.5404C155.324 60.3335 155.624 60.1793 155.945 60.0862C156.296 59.9801 156.66 59.9266 157.027 59.9276C157.581 59.8949 158.127 60.0769 158.551 60.4359ZM157.693 63.9399C157.931 63.7935 158.115 63.5732 158.216 63.3127V62.6457H156.882C156.161 62.6457 155.783 62.8909 155.783 63.3667C155.778 63.4767 155.802 63.586 155.85 63.6848C155.899 63.7836 155.971 63.8688 156.06 63.9327C156.289 64.0849 156.561 64.1583 156.835 64.1418C157.135 64.1541 157.431 64.0842 157.693 63.9399Z" fill="white"/>
<path d="M165.373 60.7531H163.624V64.7727H162.759V60.7531H161.011V59.9961H165.373V60.7531Z" fill="white"/>
<path d="M171.021 62.0329C171.181 62.1751 171.308 62.3518 171.39 62.5497C171.472 62.7476 171.509 62.9616 171.497 63.1757C171.511 63.4016 171.472 63.6277 171.382 63.8357C171.292 64.0436 171.155 64.2275 170.981 64.3725C170.55 64.6761 170.026 64.8201 169.5 64.7799H167.427V59.9961H168.292V61.6075H169.633C170.131 61.5809 170.623 61.7316 171.021 62.0329ZM170.3 63.8895C170.403 63.801 170.483 63.6897 170.535 63.5645C170.587 63.4393 170.609 63.3037 170.599 63.1685C170.61 63.0391 170.59 62.909 170.539 62.7896C170.488 62.6702 170.408 62.5651 170.307 62.4835C170.038 62.3186 169.725 62.2394 169.41 62.2564H168.278V64.131H169.41C169.732 64.1567 170.053 64.0659 170.314 63.875L170.3 63.8895Z" fill="white"/>
<path d="M173.472 64.6499C173.413 64.5918 173.367 64.5221 173.336 64.4452C173.305 64.3682 173.29 64.2857 173.292 64.2028C173.291 64.1217 173.306 64.0411 173.337 63.9661C173.368 63.8911 173.414 63.8232 173.472 63.7666C173.529 63.7098 173.597 63.665 173.671 63.6346C173.745 63.6043 173.825 63.5891 173.905 63.59C173.984 63.5882 174.063 63.6026 174.136 63.6324C174.209 63.6621 174.275 63.7066 174.33 63.763C174.441 63.884 174.503 64.0423 174.503 64.2064C174.503 64.3706 174.441 64.5288 174.33 64.6499C174.276 64.7061 174.211 64.7507 174.139 64.781C174.068 64.8114 173.99 64.8269 173.912 64.8265C173.831 64.8283 173.75 64.8136 173.674 64.7833C173.599 64.7529 173.53 64.7075 173.472 64.6499Z" fill="white"/>
<path d="M185.57 62.0471C185.827 62.3882 185.941 62.815 185.891 63.2386C185.841 63.6623 185.629 64.0502 185.3 64.3218C184.782 64.6538 184.172 64.8117 183.559 64.7724H180.675V58.4673H183.386C183.956 58.4349 184.521 58.5811 185.004 58.8855C185.194 59.0218 185.346 59.2034 185.448 59.4137C185.549 59.624 185.596 59.8564 185.585 60.0896C185.594 60.4001 185.504 60.7056 185.329 60.962C185.148 61.2098 184.897 61.398 184.608 61.5027C184.979 61.5757 185.317 61.7667 185.57 62.0471ZM181.565 61.2395H183.324C183.678 61.2685 184.031 61.1812 184.33 60.9908C184.441 60.8957 184.529 60.7779 184.59 60.6453C184.651 60.5128 184.683 60.3687 184.683 60.2229C184.683 60.0771 184.651 59.9331 184.59 59.8005C184.529 59.668 184.441 59.5502 184.33 59.4551C184.035 59.2601 183.685 59.1665 183.332 59.1883H181.572L181.565 61.2395ZM184.99 62.9771C185.001 62.8248 184.974 62.672 184.911 62.5328C184.848 62.3936 184.751 62.2724 184.629 62.1804C184.302 61.9896 183.926 61.9005 183.548 61.9245H181.572V64.0586H183.548C184.509 64.0586 184.99 63.6981 184.99 62.9771Z" fill="white"/>
<path d="M189.201 64.5089C188.829 64.308 188.52 64.0071 188.31 63.6401C188.1 63.2527 187.99 62.819 187.99 62.3784C187.99 61.9377 188.1 61.504 188.31 61.1166C188.52 60.7497 188.829 60.4487 189.201 60.2478C189.594 60.0378 190.035 59.9312 190.481 59.9378C190.924 59.9311 191.362 60.0378 191.753 60.2478C192.122 60.4501 192.428 60.7509 192.636 61.1166C192.849 61.5033 192.96 61.9372 192.96 62.3784C192.96 62.8195 192.849 63.2535 192.636 63.6401C192.428 64.0058 192.122 64.3066 191.753 64.5089C191.364 64.7249 190.925 64.8344 190.481 64.8261C190.034 64.8338 189.592 64.7244 189.201 64.5089ZM191.303 63.8564C191.547 63.7169 191.745 63.5105 191.876 63.2616C192.013 62.9894 192.085 62.6887 192.085 62.3838C192.085 62.0788 192.013 61.7781 191.876 61.506C191.746 61.2574 191.547 61.0519 191.303 60.9147C191.05 60.7775 190.767 60.7056 190.479 60.7056C190.191 60.7056 189.908 60.7775 189.655 60.9147C189.41 61.0527 189.21 61.2578 189.078 61.506C188.939 61.7775 188.866 62.0784 188.866 62.3838C188.866 62.6891 188.939 62.9901 189.078 63.2616C189.211 63.51 189.411 63.7161 189.655 63.8564C189.907 63.9959 190.191 64.0691 190.479 64.0691C190.767 64.0691 191.05 63.9959 191.303 63.8564Z" fill="white"/>
<path d="M199.446 59.9961V64.7727H198.58V60.7531H196.526L196.472 61.8166C196.453 62.3559 196.397 62.8932 196.302 63.4244C196.241 63.7943 196.099 64.1462 195.888 64.4554C195.796 64.5814 195.675 64.6828 195.534 64.7507C195.394 64.8186 195.239 64.8509 195.084 64.8448C194.904 64.8408 194.726 64.8129 194.554 64.7619L194.608 64.0409C194.679 64.0577 194.751 64.0662 194.824 64.0661C194.935 64.0696 195.044 64.042 195.139 63.9866C195.235 63.9312 195.313 63.8501 195.365 63.7525C195.489 63.5194 195.569 63.2651 195.599 63.0026C195.635 62.7142 195.668 62.3033 195.697 61.7697L195.779 60.0033L199.446 59.9961Z" fill="white"/>
<path d="M209.1 59.9961V64.7727H202.294V59.9961H203.159V64.0156H205.268V59.9961H206.133V64.0156H208.231V59.9961H209.1Z" fill="white"/>
<path d="M216.245 62.6713H212.37C212.39 62.8687 212.449 63.0601 212.545 63.2341C212.64 63.4082 212.769 63.5612 212.925 63.6843C213.259 63.9475 213.675 64.0841 214.1 64.07C214.358 64.0798 214.614 64.0332 214.852 63.9336C215.09 63.834 215.303 63.6837 215.477 63.4932L215.957 64.052C215.737 64.3057 215.46 64.5034 215.149 64.6288C214.806 64.7665 214.438 64.834 214.068 64.8271C213.601 64.8357 213.139 64.7292 212.723 64.5171C212.344 64.3195 212.029 64.0165 211.818 63.6447C211.602 63.2598 211.491 62.8245 211.497 62.3829C211.492 61.9462 211.598 61.5155 211.807 61.132C212.008 60.7681 212.305 60.4663 212.665 60.2596C213.041 60.0502 213.465 59.9433 213.895 59.9496C214.322 59.9424 214.744 60.0494 215.117 60.2596C215.471 60.4672 215.761 60.7692 215.953 61.132C216.16 61.5262 216.264 61.9665 216.256 62.4118C216.263 62.4766 216.256 62.5632 216.245 62.6713ZM212.86 61.0599C212.578 61.3171 212.403 61.671 212.37 62.0513H215.434C215.398 61.6728 215.223 61.3209 214.944 61.0635C214.652 60.8182 214.283 60.6836 213.902 60.6836C213.521 60.6836 213.152 60.8182 212.86 61.0635V61.0599Z" fill="white"/>
<path d="M222.4 60.4533C222.744 60.6468 223.028 60.9328 223.218 61.2788C223.417 61.6486 223.518 62.0631 223.51 62.4829C223.518 62.9129 223.411 63.3372 223.2 63.7122C222.993 64.0674 222.69 64.3562 222.324 64.5449C221.928 64.7488 221.487 64.8516 221.041 64.8441C220.684 64.8639 220.328 64.7987 220.002 64.6539C219.675 64.5091 219.388 64.2889 219.163 64.0114C218.681 63.3259 218.447 62.497 218.499 61.6609C218.455 60.8491 218.665 60.0435 219.101 59.3574C219.557 58.7702 220.218 58.3764 220.951 58.2543L223.114 57.7676L223.24 58.5607L221.228 58.9933C220.703 59.0825 220.217 59.3274 219.833 59.6962C219.497 60.1017 219.312 60.6115 219.311 61.1382C219.509 60.8338 219.782 60.5855 220.104 60.4172C220.438 60.2467 220.81 60.1601 221.185 60.1649C221.609 60.1497 222.028 60.2494 222.4 60.4533ZM221.874 63.9141C222.109 63.78 222.301 63.5826 222.429 63.3445C222.565 63.087 222.633 62.7992 222.627 62.5081C222.637 62.2951 222.604 62.0823 222.53 61.8825C222.455 61.6827 222.341 61.5001 222.194 61.3458C222.047 61.1914 221.87 61.0686 221.674 60.9846C221.478 60.9007 221.267 60.8574 221.054 60.8574C220.84 60.8574 220.629 60.9007 220.433 60.9846C220.237 61.0686 220.06 61.1914 219.913 61.3458C219.766 61.5001 219.652 61.6827 219.577 61.8825C219.503 62.0823 219.47 62.2951 219.48 62.5081C219.475 62.8 219.546 63.0882 219.685 63.3445C219.815 63.5836 220.01 63.7811 220.248 63.9141C220.497 64.0513 220.776 64.1233 221.061 64.1233C221.345 64.1233 221.625 64.0513 221.874 63.9141Z" fill="white"/>
<path d="M225.915 59.9961H226.78V62.0221H229.502V59.9961H230.367V64.7727H229.502V62.7719H226.78V64.7727H225.915V59.9961Z" fill="white"/>
<path d="M233.226 59.9961H234.08V63.4749L237.007 59.9961H237.793V64.7727H236.928V61.2939L234.008 64.7727H233.215L233.226 59.9961Z" fill="white"/>
<path d="M244.462 59.9961V64.7727H243.596V62.844C243.116 63.0753 242.59 63.1983 242.057 63.2045C241.563 63.236 241.073 63.0903 240.676 62.7936C240.507 62.6358 240.376 62.4422 240.292 62.2269C240.208 62.0117 240.173 61.7803 240.19 61.5498V59.9997H241.055V61.4958C241.045 61.636 241.068 61.7766 241.123 61.9062C241.177 62.0359 241.261 62.1509 241.368 62.242C241.62 62.4248 241.927 62.514 242.237 62.4943C242.707 62.4833 243.169 62.3766 243.596 62.1807V60.0177L244.462 59.9961Z" fill="white"/>
<path d="M250.533 60.4352C250.717 60.625 250.859 60.8515 250.95 61.1C251.041 61.3485 251.078 61.6133 251.059 61.8772V64.7612H250.241V64.1303C250.091 64.3581 249.876 64.5354 249.624 64.6386C249.322 64.7612 248.999 64.8213 248.673 64.8153C248.213 64.8391 247.759 64.7014 247.389 64.4259C247.234 64.307 247.109 64.1527 247.025 63.976C246.941 63.7992 246.9 63.605 246.906 63.4093C246.899 63.2165 246.936 63.0246 247.016 62.8488C247.095 62.673 247.214 62.5181 247.364 62.3963C247.787 62.1082 248.296 61.9722 248.806 62.0106H250.176V61.8412C250.186 61.6833 250.162 61.5251 250.106 61.3771C250.05 61.2291 249.964 61.0948 249.851 60.9832C249.582 60.7675 249.24 60.6618 248.896 60.6876C248.614 60.6877 248.334 60.7352 248.067 60.8282C247.818 60.905 247.586 61.0273 247.382 61.1887L247.022 60.5398C247.284 60.3336 247.584 60.1794 247.905 60.0855C248.255 59.9797 248.62 59.9263 248.986 59.9269C249.548 59.8885 250.103 60.0709 250.533 60.4352ZM249.671 63.9392C249.91 63.7939 250.094 63.5732 250.194 63.312V62.6451H248.86C248.139 62.6451 247.779 62.8902 247.779 63.3661C247.775 63.4763 247.799 63.5857 247.848 63.6845C247.897 63.7832 247.97 63.8683 248.06 63.932C248.288 64.0847 248.561 64.1582 248.835 64.1411C249.127 64.1505 249.416 64.0808 249.671 63.9392Z" fill="white"/>
<path d="M257.349 60.7531H255.601V64.7727H254.736V60.7531H252.987V59.9961H257.349V60.7531Z" fill="white"/>
<path d="M263.003 62.0329C263.163 62.1751 263.29 62.3518 263.372 62.5497C263.454 62.7476 263.491 62.9616 263.479 63.1757C263.493 63.4016 263.454 63.6277 263.364 63.8357C263.274 64.0436 263.137 64.2275 262.963 64.3725C262.531 64.6766 262.005 64.8206 261.478 64.7799H259.405V59.9961H260.27V61.6075H261.615C262.113 61.5812 262.605 61.7319 263.003 62.0329ZM262.282 63.8895C262.384 63.8004 262.464 63.689 262.516 63.564C262.568 63.4389 262.59 63.3036 262.581 63.1685C262.592 63.0391 262.572 62.909 262.521 62.7896C262.47 62.6702 262.39 62.5651 262.289 62.4835C262.02 62.3186 261.707 62.2394 261.392 62.2564H260.256V64.131H261.392C261.714 64.1567 262.035 64.0659 262.296 63.875L262.282 63.8895Z" fill="white"/>
<path d="M265.442 64.6498C265.383 64.5923 265.335 64.5227 265.304 64.4457C265.273 64.3686 265.259 64.2858 265.262 64.2028C265.26 64.1216 265.275 64.0407 265.306 63.9656C265.337 63.8904 265.384 63.8227 265.442 63.7666C265.499 63.7098 265.567 63.665 265.641 63.6346C265.715 63.6043 265.795 63.5891 265.875 63.59C265.954 63.5882 266.031 63.6027 266.104 63.6325C266.177 63.6622 266.242 63.7067 266.297 63.763C266.355 63.8204 266.4 63.8891 266.43 63.9648C266.459 64.0405 266.473 64.1215 266.47 64.2028C266.473 64.2855 266.459 64.3679 266.428 64.4449C266.398 64.5218 266.352 64.5916 266.293 64.6498C266.239 64.706 266.174 64.7507 266.102 64.781C266.03 64.8114 265.953 64.8269 265.875 64.8265C265.795 64.8274 265.715 64.8122 265.641 64.7819C265.567 64.7515 265.499 64.7066 265.442 64.6498Z" fill="white"/>
</svg>
