<svg width="1601" height="655" viewBox="0 0 1601 655" fill="none" xmlns="http://www.w3.org/2000/svg">
<rect x="49" y="248" width="1500" height="407" fill="#3E6E3D"/>
<path d="M25.1785 169.629C25.1785 169.629 32.2323 192.328 40.1299 214.847C44.4229 227.179 48.9593 239.424 52.193 248H1548.82C1552.05 239.422 1556.59 227.179 1560.88 214.847C1568.77 192.328 1575.83 169.629 1575.83 169.629C1575.83 169.629 1582.94 146.933 1589.21 124.088C1595.52 101.242 1601 78.2771 1601 78.2771C1601 78.2771 1590.41 99.2542 1579.13 119.716C1567.88 140.215 1555.97 160.18 1555.97 160.18C1555.97 160.18 1550.33 169.687 1542.72 181.958L1541.11 157.154L1535.49 71.1017L1519.29 155.703L1514.52 180.615C1511.47 171.121 1509.45 164.25 1509.45 164.25C1509.45 164.25 1503.72 144.997 1499.14 125.227C1494.48 105.499 1491.01 85.3207 1491.01 85.3207C1491.01 85.3207 1489.01 105.686 1488.26 126.33C1487.43 146.942 1487.85 167.761 1487.85 167.761C1487.85 167.761 1488.07 180.289 1488.93 195.669C1487.55 191.76 1486.16 187.719 1484.79 183.656C1477.04 160.778 1470.24 137.433 1470.24 137.433C1470.24 137.433 1463.38 114.125 1457.51 90.3953C1451.58 66.6987 1446.65 42.616 1446.65 42.616C1446.65 42.616 1446.13 67.207 1446.68 91.9301C1447.16 116.636 1448.72 141.431 1448.72 141.431C1448.72 141.431 1450.22 166.212 1452.79 191.033C1453.34 196.465 1453.94 201.88 1454.55 207.051C1453.13 199.672 1451.53 191.369 1449.93 183.045C1444.92 158.447 1439.91 133.848 1439.91 133.848C1439.91 133.848 1434.64 109.339 1429.37 84.8314C1423.84 60.4154 1418.32 35.9969 1418.32 35.9969C1418.32 35.9969 1418.41 61.0437 1418.51 86.0881C1418.33 111.104 1418.16 136.117 1418.16 136.117C1418.16 136.117 1417.72 161.097 1417.27 186.076C1416.97 196.7 1416.67 207.305 1416.42 216.001H1416.24C1416.3 211.305 1416.33 206.375 1416.31 201.437C1416.3 179.484 1415.39 157.677 1415.39 157.677C1415.39 157.677 1414.53 135.851 1412.78 114.212C1411.08 92.5512 1408.5 71.109 1408.5 71.109C1408.5 71.109 1405.61 92.5249 1401.86 113.665C1398.16 134.831 1393.61 155.693 1393.61 155.693C1393.61 155.693 1389.11 176.582 1383.79 197.129C1383.71 197.436 1383.63 197.743 1383.55 198.05C1383.84 193 1384.07 187.748 1384.19 182.503C1384.32 169.629 1383.87 156.871 1383.06 147.364C1382.78 142.614 1382.22 138.669 1381.98 135.913C1381.69 133.162 1381.53 131.589 1381.53 131.589C1381.53 131.589 1381.31 130.023 1380.93 127.28C1380.5 124.543 1380.11 120.632 1379.25 115.982C1377.76 106.662 1375.17 94.3835 1372.07 82.3541C1368.8 70.3439 1365.03 58.6024 1361.77 49.9904C1360.26 45.6521 1358.68 42.1459 1357.73 39.6542C1356.73 37.1793 1356.16 35.7667 1356.16 35.7667C1356.16 35.7667 1356.41 37.28 1356.83 39.9276C1357.2 42.5848 1357.95 46.314 1358.46 50.8729C1359.72 59.9285 1360.77 72.0514 1361.27 84.0904C1361.61 96.1653 1361.42 108.14 1360.83 117.073C1360.66 121.533 1360.19 125.246 1360.02 127.831C1359.8 130.416 1359.67 131.894 1359.67 131.894C1359.67 131.894 1359.49 133.366 1359.18 135.947C1358.83 138.52 1358.53 142.194 1357.8 146.571C1356.98 152.41 1355.7 159.521 1354.15 166.941C1348.92 152.593 1345.32 141.331 1345.32 141.331C1345.32 141.331 1337.85 118.267 1332.13 94.4314C1326.3 70.6581 1322.29 46.2373 1322.29 46.2373C1322.29 46.2373 1320.83 70.9315 1321.29 95.9015C1321.64 120.843 1323.92 145.918 1323.92 145.918C1323.92 145.918 1325.62 165.572 1328.88 187.45C1328.7 187.177 1328.52 186.913 1328.34 186.637C1323.5 178.812 1318.98 170.617 1315.94 164.25C1312.87 157.9 1311 153.521 1311 153.521C1311 153.521 1309.15 149.17 1306.63 142.448C1304.74 137.448 1302.66 131.078 1300.71 124.255C1300.77 122.706 1300.84 121.085 1300.91 119.327C1301.33 108.696 1301.28 94.5345 1300.71 80.4883C1299.98 66.4228 1298.72 52.4869 1297.33 42.1147C1296.75 36.925 1295.95 32.6298 1295.54 29.6201C1295.09 26.6176 1294.83 24.9005 1294.83 24.9005C1294.83 24.9005 1294.75 26.6368 1294.6 29.6753C1294.42 32.7138 1294.36 37.0377 1293.91 42.2202C1293.25 52.5828 1291.77 66.3221 1289.8 79.8887C1287.65 93.4553 1285.02 106.84 1282.63 116.754C1280.27 126.67 1278.48 133.186 1278.48 133.186C1278.48 133.186 1276.68 139.724 1273.67 149.367C1273.38 150.297 1273.02 151.372 1272.71 152.353C1272.17 149 1271.81 147.012 1271.81 147.012C1271.81 147.012 1268.33 127.169 1262.77 108.209C1257.32 89.165 1249.88 71.2217 1249.88 71.2217C1249.88 71.2217 1252.02 90.6638 1251.96 109.878C1252.01 125.63 1250.65 141.06 1250.15 146.168C1247.72 132.4 1246.09 122.231 1246.09 122.231C1246.09 122.231 1242.04 97.2277 1238.84 71.9867C1235.59 46.7673 1233.19 21.3344 1233.19 21.3344C1233.19 21.3344 1232.43 27.668 1231.38 37.1937C1232.73 23.8309 1233.89 14.4084 1233.89 14.4084C1233.89 14.4084 1225.09 41.2754 1217.75 68.7827C1210.32 96.2421 1204.38 124.263 1204.38 124.263C1204.38 124.263 1198.58 151.185 1194.11 179.069C1195.15 151.494 1194.71 127.184 1194.71 127.184C1194.71 127.184 1194.34 95.0381 1191.69 63.226C1189.24 31.3732 1184.53 0 1184.53 0C1184.53 0 1183.77 31.7617 1180.76 63.1589C1177.95 94.5993 1172.91 125.534 1172.91 125.534C1172.91 125.534 1170.77 139.239 1167.29 157.315C1165.49 150.82 1163.93 144.662 1162.79 139.412C1161.59 134.539 1160.94 130.416 1160.32 127.546C1159.75 124.665 1159.43 123.018 1159.43 123.018C1159.43 123.018 1159.16 121.363 1158.68 118.466C1158.26 115.564 1157.42 111.42 1156.84 106.406C1155.41 96.3859 1154.15 82.9057 1153.49 69.2743C1153.02 55.6669 1153.14 41.9301 1153.76 31.6274C1153.93 26.4569 1154.45 22.1905 1154.64 19.1688C1154.88 16.1518 1155.02 14.4275 1155.02 14.4275C1155.02 14.4275 1154.55 16.0847 1153.72 18.9841C1152.94 21.8955 1151.58 26.0204 1150.39 31.071C1147.74 41.1267 1144.86 54.746 1142.58 68.5884C1140.5 82.4332 1139.01 96.4818 1138.41 107.084C1137.98 112.387 1137.98 116.811 1137.81 119.919C1137.7 123.03 1137.64 124.807 1137.64 124.807C1137.64 124.807 1137.63 126.584 1137.62 129.692C1137.66 132.8 1137.48 137.273 1137.71 142.614C1137.72 143.659 1137.75 144.767 1137.79 145.878C1137.6 144.822 1137.4 143.719 1137.18 142.522C1135.85 135.498 1133.8 126.232 1131.34 117.154C1128.9 108.068 1126.02 99.1847 1123.64 92.64C1121.31 86.0833 1119.57 81.8145 1119.57 81.8145C1119.57 81.8145 1121.23 100.326 1120.49 118.543C1120.21 127.651 1119.49 136.668 1118.76 143.371C1118.35 146.914 1117.98 149.789 1117.71 151.741C1116.2 140.949 1115.17 133.642 1115.17 133.642L1099.92 24.8645L1094.53 114.725C1093.77 110.945 1092.96 107.053 1092.11 103.168C1087.55 81.5866 1081.85 60.4465 1081.85 60.4465C1081.85 60.4465 1082.14 82.4044 1081.23 104.192C1080.46 125.996 1078.54 147.575 1078.54 147.575C1078.54 147.575 1078.15 152.206 1077.45 159.255C1072.97 144.904 1070.05 132.831 1070.05 132.831C1070.05 132.831 1065.07 112.739 1062.14 91.9037C1059.09 71.1305 1058.2 49.813 1058.2 49.813C1058.2 49.813 1053.63 70.5789 1051.21 92.0428C1049.11 109.715 1048.52 127.682 1048.37 133.424C1048.35 131.632 1048.32 129.898 1048.25 128.323C1047.99 121.272 1047.61 116.634 1047.61 116.634C1047.61 116.634 1046.14 97.9304 1041.73 80.2581C1039.51 71.4135 1036.87 62.816 1034.53 56.5327C1032.22 50.2446 1030.5 46.1797 1030.5 46.1797C1030.5 46.1797 1032.17 63.9815 1030.85 81.2869C1030.17 89.954 1029.07 98.4556 1027.9 104.739C1026.75 111.025 1025.8 115.125 1025.8 115.125C1025.8 115.125 1022.28 130.57 1016.43 145.28C1012.26 132.119 1009.04 120.049 1009.04 120.049C1009.04 120.049 1004.87 104.629 1001.57 88.8076C998.215 73.0227 995.755 56.8828 995.755 56.8828C995.755 56.8828 992.747 72.898 990.651 89.2465C988.5 105.561 987.283 122.157 987.283 122.157C987.283 122.157 987.223 122.941 987.13 124.282C985.619 119.152 984.756 115.931 984.756 115.931C984.756 115.931 978.729 93.9685 975.034 71.1329C971.2 48.3692 969.819 24.9628 969.819 24.9628C969.819 24.9628 965.725 47.9831 964.119 71.6557C962.362 95.2708 963.141 119.282 963.141 119.282C963.141 119.282 963.18 120.773 963.287 123.38C961.641 115.315 958.984 102.88 955.894 90.5751C950.783 69.8978 944.506 49.7554 944.506 49.7554C944.506 49.7554 945.403 70.9219 945.044 91.9205C944.761 112.945 943.245 133.731 943.245 133.731C943.245 133.731 941.801 154.547 939.154 175.049C939.068 175.73 938.977 176.409 938.889 177.088C937.334 171.589 935.741 165.66 934.272 159.662C928.572 136.868 924.784 113.37 924.784 113.37C924.784 113.37 920.885 89.93 918.975 65.9696C916.944 42.0548 916.968 17.7778 916.968 17.7778C916.968 17.7778 911.509 41.3545 908.052 65.5955C904.478 89.7813 902.953 114.468 902.953 114.468C902.953 114.468 902.016 128.455 901.752 146.024C900.834 142.194 900.306 139.853 900.306 139.853C900.306 139.853 895.44 118.687 891.991 97.0166C888.458 75.3897 886.386 53.3431 886.386 53.3431C886.386 53.3431 882.987 75.1835 881.068 97.422C879.061 119.624 878.558 142.132 878.558 142.132C878.558 142.132 878.47 145.52 878.414 150.955C877.519 147.117 876.617 143.472 875.751 140.347C873.551 132.335 871.877 127.102 871.877 127.102C871.877 127.102 870.203 121.84 867.394 114.137C864.61 106.42 860.403 96.3691 855.797 86.6372C851.05 76.9461 845.915 67.5884 841.729 60.8158C837.565 54.0313 834.629 49.6738 834.629 49.6738C834.629 49.6738 841.634 69.7899 845.463 90.3185C847.359 100.6 848.78 110.857 849.457 118.567C850.157 126.272 850.414 131.38 850.414 131.38C850.414 131.38 850.618 135.433 850.716 141.681L823.896 78.2796L830.152 148.748L833.43 185.678C832.999 184.652 832.556 183.652 832.132 182.618C827.858 171.711 824.054 160.475 821.661 151.873C820.338 147.597 819.573 143.954 818.875 141.426C818.226 138.887 817.855 137.436 817.855 137.436C817.855 137.436 817.538 135.973 816.984 133.412C816.478 130.843 815.521 127.186 814.786 122.735C813.059 113.854 811.39 101.861 810.282 89.683C809.362 77.5217 809.017 65.1997 809.274 55.9355C809.269 51.2878 809.628 47.4459 809.712 44.724C809.849 42.0068 809.925 40.4552 809.925 40.4552C809.925 40.4552 809.51 41.9468 808.787 44.5585C808.112 47.1821 806.909 50.8993 805.89 55.4559C803.59 64.5259 801.182 76.8262 799.357 89.3448C799.114 91.2106 798.91 93.0692 798.692 94.9326C797.686 87.9203 796.416 80.39 794.758 72.9172C791.685 59.4393 787.948 46.2276 783.961 36.7931C782.271 31.9871 780.243 28.222 779.06 25.5288C777.818 22.862 777.109 21.3368 777.109 21.3368C777.109 21.3368 777.498 22.9843 778.18 25.8669C778.796 28.7639 780.002 32.7713 780.681 37.786C782.649 47.6354 783.613 61.0341 783.905 74.2649C784.121 87.5414 783.122 100.767 782.206 110.614C781.121 120.478 780.24 126.994 780.24 126.994C780.24 126.994 779.988 128.625 779.545 131.481C779.056 134.335 778.578 138.4 777.614 143.266C775.913 152.998 773.207 165.888 770.06 178.635C769.151 182.33 768.194 185.997 767.225 189.585L770.85 148.755L777.106 78.2867L750.289 141.686C750.389 135.438 750.59 131.385 750.59 131.385C750.59 131.385 750.848 126.277 751.548 118.572C752.225 110.861 753.646 100.604 755.542 90.3233C759.371 69.7947 766.376 49.6787 766.376 49.6787C766.376 49.6787 763.437 54.0362 759.276 60.8207C755.09 67.5932 749.958 76.9534 745.208 86.6421C740.602 96.374 736.392 106.425 733.611 114.142C730.804 121.848 729.128 127.107 729.128 127.107C729.128 127.107 727.454 132.34 725.254 140.352C724.385 143.477 723.486 147.122 722.591 150.957C722.535 145.52 722.447 142.134 722.447 142.134C722.447 142.134 721.944 119.627 719.937 97.4244C718.017 75.1835 714.619 53.3455 714.619 53.3455C714.619 53.3455 712.547 75.3897 709.014 97.0191C705.565 118.692 700.702 139.856 700.702 139.856C700.702 139.856 700.173 142.194 699.255 146.026C698.991 128.459 698.054 114.471 698.054 114.471C698.054 114.471 696.529 89.7837 692.955 65.5979C689.498 41.3569 684.039 17.7802 684.039 17.7802C684.039 17.7802 684.06 42.0572 682.032 65.972C680.122 89.9324 676.223 113.372 676.223 113.372C676.223 113.372 672.435 136.868 666.735 159.665C665.268 165.665 663.673 171.591 662.118 177.09C662.03 176.411 661.939 175.733 661.854 175.052C659.206 154.549 657.762 133.733 657.762 133.733C657.762 133.733 656.246 112.945 655.963 91.9229C655.606 70.9243 656.501 49.7578 656.501 49.7578C656.501 49.7578 650.224 69.9002 645.113 90.5775C642.023 102.883 639.369 115.32 637.72 123.382C637.829 120.776 637.866 119.282 637.866 119.282C637.866 119.282 638.645 95.2708 636.888 71.6557C635.282 47.9831 631.188 24.9628 631.188 24.9628C631.188 24.9628 629.807 48.3692 625.973 71.1329C622.278 93.9661 616.251 115.931 616.251 115.931C616.251 115.931 615.388 119.152 613.877 124.282C613.784 122.941 613.724 122.155 613.724 122.155C613.724 122.155 612.507 105.559 610.356 89.2441C608.26 72.898 605.252 56.8804 605.252 56.8804C605.252 56.8804 602.79 73.0203 599.436 88.8053C596.13 104.626 591.962 120.047 591.962 120.047C591.962 120.047 588.743 132.114 584.579 145.278C578.724 130.57 575.21 115.123 575.21 115.123C575.21 115.123 574.262 111.022 573.11 104.737C571.934 98.4508 570.833 89.9492 570.156 81.2845C568.838 63.9791 570.509 46.1772 570.509 46.1772C570.509 46.1772 568.789 50.2398 566.475 56.5303C564.141 62.8136 561.496 71.4111 559.273 80.2557C554.869 97.928 553.402 116.632 553.402 116.632C553.402 116.632 553.012 121.27 552.753 128.32C552.69 129.896 552.655 131.63 552.634 133.421C552.491 127.68 551.897 109.713 549.795 92.0404C547.377 70.5766 542.804 49.8105 542.804 49.8105C542.804 49.8105 541.916 71.1281 538.865 91.9013C535.94 112.737 530.952 132.829 530.952 132.829C530.952 132.829 528.028 144.902 523.557 159.252C522.855 152.204 522.467 147.573 522.467 147.573C522.467 147.573 520.546 125.994 519.776 104.19C518.868 82.402 519.155 60.4441 519.155 60.4441C519.155 60.4441 513.455 81.5842 508.893 103.166C508.045 107.051 507.236 110.943 506.478 114.723L501.086 24.8621L485.829 133.64C485.829 133.64 484.804 140.947 483.29 151.739C483.024 149.787 482.651 146.914 482.247 143.371C481.51 136.668 480.796 127.651 480.511 118.543C479.769 100.326 481.431 81.8145 481.431 81.8145C481.431 81.8145 479.693 86.0809 477.361 92.64C474.98 99.1847 472.103 108.068 469.665 117.154C467.198 126.232 465.149 135.498 463.823 142.522C463.601 143.722 463.404 144.822 463.216 145.875C463.249 144.765 463.279 143.659 463.297 142.614C463.52 137.27 463.341 132.798 463.383 129.692C463.371 126.584 463.367 124.807 463.367 124.807C463.367 124.807 463.302 123.03 463.188 119.919C463.024 116.811 463.026 112.387 462.595 107.084C461.997 96.4818 460.506 82.4356 458.418 68.5884C456.139 54.746 453.267 41.1243 450.613 31.071C449.419 26.0204 448.061 21.8955 447.284 18.9841C446.454 16.0847 445.982 14.4275 445.982 14.4275C445.982 14.4275 446.121 16.1518 446.362 19.1688C446.552 22.1905 447.066 26.4569 447.24 31.6274C447.859 41.9325 447.982 55.6669 447.509 69.2743C446.844 82.9033 445.594 96.3859 444.164 106.406C443.58 111.42 442.739 115.564 442.317 118.466C441.846 121.363 441.575 123.018 441.575 123.018C441.575 123.018 441.248 124.665 440.678 127.546C440.057 130.416 439.41 134.541 438.211 139.412C437.066 144.662 435.509 150.818 433.714 157.315C430.23 139.242 428.086 125.536 428.086 125.536C428.086 125.536 423.054 94.6017 420.24 63.1613C417.224 31.7641 416.471 0.00234199 416.471 0.00234199C416.471 0.00234199 411.763 31.3756 409.31 63.2285C406.654 95.0406 406.285 127.186 406.285 127.186C406.285 127.186 405.849 151.494 406.885 179.069C402.414 151.185 396.619 124.265 396.619 124.265C396.619 124.265 390.68 96.242 383.251 68.7851C375.907 41.2777 367.11 14.4108 367.11 14.4108C367.11 14.4108 368.272 23.8453 369.618 37.2224C368.573 27.6824 367.803 21.3368 367.803 21.3368C367.803 21.3368 365.411 46.7696 362.159 71.989C358.955 97.2301 354.906 122.234 354.906 122.234C354.906 122.234 353.278 132.402 350.849 146.17C350.348 141.062 348.985 125.63 349.041 109.881C348.978 90.6663 351.123 71.224 351.123 71.224C351.123 71.224 343.682 89.1673 338.232 108.211C332.664 127.172 329.192 147.014 329.192 147.014C329.192 147.014 328.83 149.002 328.292 152.355C327.977 151.372 327.613 150.297 327.326 149.367C324.317 139.724 322.52 133.186 322.52 133.186C322.52 133.186 320.731 126.67 318.366 116.754C315.977 106.84 313.343 93.4577 311.201 79.8887C309.224 66.3221 307.745 52.5828 307.082 42.2202C306.635 37.0377 306.579 32.7114 306.391 29.6753C306.25 26.6368 306.169 24.9005 306.169 24.9005C306.169 24.9005 305.909 26.6176 305.453 29.6201C305.042 32.6274 304.245 36.9226 303.668 42.1147C302.279 52.4869 301.021 66.4228 300.286 80.4883C299.716 94.5369 299.671 108.698 300.091 119.327C300.156 121.085 300.223 122.704 300.29 124.253C298.339 131.076 296.255 137.448 294.365 142.448C291.853 149.17 289.996 153.521 289.996 153.521C289.996 153.521 288.125 157.9 285.061 164.25C282.022 170.617 277.502 178.81 272.659 186.637C272.483 186.913 272.3 187.175 272.124 187.45C275.376 165.572 277.078 145.918 277.078 145.918C277.078 145.918 279.361 120.843 279.709 95.9015C280.172 70.9315 278.714 46.2373 278.714 46.2373C278.714 46.2373 274.702 70.6581 268.872 94.4314C263.146 118.265 255.675 141.331 255.675 141.331C255.675 141.331 252.082 152.593 246.846 166.941C245.302 159.521 244.015 152.41 243.197 146.571C242.465 142.196 242.173 138.52 241.818 135.947C241.507 133.369 241.331 131.894 241.331 131.894C241.331 131.894 241.204 130.416 240.983 127.831C240.807 125.246 240.341 121.533 240.165 117.073C239.576 108.14 239.386 96.1653 239.727 84.0904C240.235 72.0514 241.282 59.9309 242.539 50.8729C243.049 46.3164 243.797 42.5848 244.173 39.9276C244.595 37.28 244.838 35.7667 244.838 35.7667C244.838 35.7667 244.268 37.1817 243.271 39.6542C242.321 42.1459 240.745 45.6521 239.231 49.9904C235.972 58.6024 232.198 70.3439 228.927 82.3541C225.826 94.3811 223.239 106.66 221.753 115.982C220.893 120.632 220.497 124.546 220.072 127.28C219.692 130.021 219.474 131.589 219.474 131.589C219.474 131.589 219.31 133.16 219.02 135.913C218.779 138.666 218.218 142.611 217.935 147.364C217.133 156.871 216.686 169.629 216.813 182.503C216.934 187.75 217.156 193.002 217.451 198.05C217.372 197.743 217.291 197.436 217.212 197.129C211.887 176.582 207.39 155.693 207.39 155.693C207.39 155.693 202.845 134.834 199.143 113.665C195.392 92.5249 192.499 71.109 192.499 71.109C192.499 71.109 189.922 92.5488 188.225 114.212C186.475 135.851 185.615 157.677 185.615 157.677C185.615 157.677 184.701 179.484 184.69 201.437C184.674 206.375 184.708 211.305 184.764 216.001H183.883L182.26 141.57L180.323 50.3717L160.517 139.263L147.483 197.938C147.731 195.647 147.977 193.345 148.211 191.036C150.788 166.217 152.279 141.434 152.279 141.434C152.279 141.434 153.837 116.639 154.321 91.9325C154.871 67.2095 154.349 42.6184 154.349 42.6184C154.349 42.6184 149.423 66.6987 143.494 90.3977C137.62 114.128 130.765 137.436 130.765 137.436C130.765 137.436 123.966 160.78 116.208 183.659C114.843 187.721 113.447 191.762 112.075 195.671C112.933 180.292 113.146 167.763 113.146 167.763C113.146 167.763 113.575 146.947 112.742 126.332C111.987 105.691 109.986 85.3231 109.986 85.3231C109.986 85.3231 106.516 105.501 101.864 125.229C97.2788 144.997 91.551 164.253 91.551 164.253C91.551 164.253 89.532 171.123 86.4768 180.618L81.7063 155.705L65.5055 71.1041L59.8935 157.156L58.2755 181.961C50.67 169.687 45.0256 160.183 45.0256 160.183C45.0256 160.183 33.1155 140.218 21.873 119.718C10.5934 99.2566 0 78.2796 0 78.2796C0 78.2796 5.47521 101.245 11.7942 124.09C18.0691 146.93 25.1785 169.629 25.1785 169.629Z" fill="#3E6E3D"/>
</svg>
