<svg width="45" height="45" viewBox="0 0 45 45" fill="none" xmlns="http://www.w3.org/2000/svg">
<circle cx="22.5" cy="22.5" r="22.5" fill="#679FBF"/>
<path d="M22.9998 26.3333C24.1491 26.3333 25.2513 25.8768 26.064 25.0641C26.8766 24.2515 27.3332 23.1493 27.3332 22C27.3332 20.8507 26.8766 19.7485 26.064 18.9359C25.2513 18.1232 24.1491 17.6667 22.9998 17.6667C21.8506 17.6667 20.7484 18.1232 19.9357 18.9359C19.1231 19.7485 18.6665 20.8507 18.6665 22C18.6665 23.1493 19.1231 24.2515 19.9357 25.0641C20.7484 25.8768 21.8506 26.3333 22.9998 26.3333Z" stroke="white" stroke-width="1.5" stroke-linecap="round" stroke-linejoin="round"/>
<path d="M13.25 26.3333V17.6667C13.25 16.2301 13.8207 14.8523 14.8365 13.8365C15.8523 12.8207 17.2301 12.25 18.6667 12.25H27.3333C28.7699 12.25 30.1477 12.8207 31.1635 13.8365C32.1793 14.8523 32.75 16.2301 32.75 17.6667V26.3333C32.75 27.7699 32.1793 29.1477 31.1635 30.1635C30.1477 31.1793 28.7699 31.75 27.3333 31.75H18.6667C17.2301 31.75 15.8523 31.1793 14.8365 30.1635C13.8207 29.1477 13.25 27.7699 13.25 26.3333Z" stroke="white" stroke-width="1.5"/>
<path d="M28.9585 16.0525L28.9693 16.0406" stroke="white" stroke-width="1.5" stroke-linecap="round" stroke-linejoin="round"/>
</svg>
