<svg width="151" height="44" viewBox="0 0 151 44" fill="none" xmlns="http://www.w3.org/2000/svg">
<path d="M24.5247 2.389C24.6619 1.63047 24.8555 0.883228 25.1039 0.153471C25.1323 0.0681145 25.175 -0.0619527 25.3071 0.0335654C25.4392 0.129083 25.6119 0.149407 25.5103 0.350604C25.1852 1.03142 24.86 1.71021 24.5247 2.389Z" fill="white"/>
<path d="M24.8599 2.70605H26.8353C26.9938 2.70605 27.0833 2.76296 27.0711 2.94383C27.0589 3.12471 26.941 3.17552 26.7743 3.1369L24.8599 2.70605Z" fill="white"/>
<path d="M24.1649 2.59639C23.518 2.63523 22.8688 2.58324 22.2362 2.44193C22.094 2.41551 21.9903 2.35048 22.033 2.16757C22.0757 1.98467 22.1773 1.97857 22.3277 2.02531C22.9394 2.21838 23.5532 2.40535 24.1649 2.59639Z" fill="white"/>
<path d="M24.1812 2.20815C23.8525 1.91823 23.5629 1.58691 23.3195 1.22248C23.2301 1.10461 23.3987 1.07616 23.4678 1.02941C23.5817 0.952188 23.6589 0.982672 23.7138 1.11884C23.858 1.47246 24.0145 1.82404 24.167 2.17563C24.1723 2.18669 24.1791 2.19695 24.1873 2.20612L24.1812 2.20815Z" fill="white"/>
<path d="M24.7665 2.31389L25.1933 1.91962C25.2725 1.84646 25.3538 1.79972 25.4249 1.91962C25.4961 2.03953 25.494 2.13505 25.3518 2.18179C25.174 2.28257 24.9703 2.32853 24.7665 2.31389Z" fill="white"/>
<path d="M19.1695 29.0711C19.1695 30.9612 19.1695 32.8512 19.1695 34.7392C19.1695 37.3446 19.1797 39.9501 19.1695 42.5555C19.1695 42.8908 19.2244 43.0005 19.5922 42.9985C21.8278 42.9782 24.0755 42.9985 26.3171 42.9985C26.376 42.9985 26.437 42.9985 26.498 42.9985C26.6585 42.9985 26.8922 42.9497 26.8882 43.2017C26.8841 43.4537 26.6565 43.405 26.4939 43.405C23.0417 43.405 19.5868 43.405 16.1292 43.405C11.3668 43.405 6.60516 43.405 1.84416 43.405C1.66328 43.405 1.48038 43.405 1.30153 43.3907C1.27342 43.3908 1.24559 43.3851 1.21981 43.3739C1.19403 43.3626 1.17086 43.3462 1.15176 43.3256C1.13266 43.305 1.11804 43.2806 1.10884 43.254C1.09964 43.2275 1.09605 43.1993 1.0983 43.1712C1.1049 43.1233 1.12966 43.0797 1.16747 43.0494C1.20529 43.0191 1.25328 43.0046 1.30153 43.0087H1.59418C3.91913 43.0087 6.24612 42.9985 8.5731 43.0087C8.87998 43.0087 8.94501 42.9253 8.94501 42.6286C8.93282 38.8851 8.93282 35.141 8.94501 31.3961C8.94501 31.0872 8.86169 31.0262 8.56497 31.0303C6.82126 31.0486 5.13038 30.7742 3.596 29.9003C1.47631 28.6931 0.171575 26.9189 0.0171201 24.4253C-0.095114 23.0193 0.347701 21.6252 1.25073 20.5416C1.3233 20.4687 1.37041 20.3744 1.38506 20.2726C1.39971 20.1708 1.3811 20.067 1.33202 19.9766C0.472355 17.672 0.634938 15.4832 2.18355 13.5037C2.86354 12.6548 3.80059 12.0493 4.85399 11.7783C5.05722 11.7214 5.14258 11.6584 5.15071 11.4227C5.20708 9.08057 6.06447 6.82854 7.57997 5.04196C9.09547 3.25539 11.1775 2.0422 13.4791 1.60463C16.8568 0.921775 19.9397 1.67169 22.7199 3.68164C22.9882 3.88487 23.1264 3.90519 23.354 3.63896C23.5144 3.41668 23.7383 3.24807 23.9962 3.15527C23.8214 3.44589 23.6629 3.75074 23.4658 4.0251C23.228 4.35433 23.5877 4.41936 23.7056 4.53317C23.9088 4.71811 23.9088 4.42546 23.9657 4.3401C24.2157 3.92348 24.2482 3.43166 24.4413 2.97846C24.4545 3.12924 24.4545 3.28089 24.4413 3.43166C24.3519 3.90722 24.5632 4.26287 24.8478 4.61243C26.2053 6.25453 27.5182 7.93727 28.9123 9.54076C29.2438 9.89248 29.4997 10.3083 29.6643 10.7627C29.8289 11.2171 29.8988 11.7004 29.8696 12.1827C29.7923 14.591 29.8492 17.0034 29.837 19.4157C29.837 19.6982 29.9082 19.7876 30.1947 19.7693C30.6012 19.7429 31.0178 19.7693 31.4304 19.7693C31.5767 19.7693 31.7149 19.7693 31.7088 19.9725C31.7027 20.1758 31.5645 20.1758 31.4202 20.1758C30.8999 20.1758 30.3776 20.1758 29.8574 20.1758C29.7537 20.1758 29.6338 20.1331 29.5505 20.2347C29.1664 20.7123 28.6075 20.944 28.1279 21.2732C26.9425 21.822 25.8556 22.5622 24.9108 23.464C23.3174 25.0005 21.5128 26.2137 19.3138 26.7299C19.2345 26.7482 19.1268 26.7604 19.1329 26.9332C19.1533 27.6201 19.1512 28.3456 19.1695 29.0711ZM5.44336 23.6002C5.61422 23.6572 5.78871 23.7027 5.96566 23.7364C6.89442 23.8583 7.79473 23.8461 8.60765 23.2791C8.71727 23.2152 8.80609 23.1209 8.86342 23.0077C8.92075 22.8945 8.94414 22.7672 8.93078 22.641C8.91066 22.1687 8.79884 21.7048 8.60155 21.2753C7.6484 19.3141 4.76254 18.5601 2.8095 19.7612C2.54281 19.8997 2.29145 20.0659 2.05958 20.2571C1.93764 20.3445 1.92951 20.4197 2.00471 20.5538C2.78308 21.9866 3.87849 23.0474 5.4332 23.6002H5.44336ZM28.3555 20.1453C28.3201 20.1369 28.2841 20.1315 28.2478 20.129C25.2901 20.129 22.3338 20.1236 19.3788 20.1128C19.1532 20.1128 19.1248 20.2063 19.1248 20.3932C19.135 22.2467 19.1451 24.1022 19.135 25.9556C19.135 26.3052 19.2203 26.3621 19.5414 26.2564C21.388 25.685 23.0719 24.6818 24.4535 23.3299C25.3294 22.4644 26.332 21.7373 27.4267 21.1736C27.7377 21.0192 28.0364 20.8281 28.3331 20.6534C28.6081 20.5218 28.866 20.3573 29.1014 20.1636L28.3555 20.1453ZM8.91453 25.9577V23.5453C8.60812 23.7728 8.26419 23.9448 7.89838 24.0534C7.38016 24.1768 6.84751 24.2288 6.31521 24.2079C6.28293 24.1911 6.24884 24.1782 6.2136 24.1692C4.1813 23.8177 2.75869 22.641 1.77303 20.8729C1.74051 20.8139 1.72832 20.7306 1.61451 20.7164C1.54134 20.8119 1.45599 20.9196 1.37876 21.0212C-0.074334 23.0413 0.100445 25.9333 1.80351 27.9188C3.63258 30.0588 6.07134 30.6563 8.76007 30.6279C8.9064 30.6279 8.94298 30.569 8.94094 30.4247C8.92198 28.9411 8.90978 27.4548 8.90436 25.9658L8.91453 25.9577ZM22.8886 6.4476C22.8582 6.46577 22.8296 6.48687 22.8033 6.5106L19.4276 10.7642C19.3463 10.8698 19.3059 11.0011 19.3138 11.1341C19.3138 13.9102 19.3138 16.6877 19.3138 19.4665C19.3138 19.7023 19.3687 19.7734 19.6125 19.7713C21.0169 19.7571 22.4232 19.7713 23.8275 19.7592L28.4795 19.7429C28.7091 19.7429 28.9388 19.7429 29.1664 19.7734C29.394 19.8039 29.4509 19.7063 29.4509 19.4889C29.4428 16.7073 29.4428 13.9244 29.4509 11.1402C29.4511 10.9461 29.3786 10.7591 29.2477 10.6158C28.2884 9.44659 27.3305 8.27667 26.374 7.10606L24.3315 4.59211C24.0003 4.79534 24.1161 4.98434 24.3194 5.21196C25.0368 6.02488 25.6993 6.86422 26.1118 7.8763C26.1667 8.0145 26.2826 8.19131 26.0509 8.26854C25.8598 8.33154 25.8294 8.15676 25.7704 8.01856C25.3355 7.00241 24.6344 6.1712 23.9413 5.3339C23.8702 5.24854 23.8092 5.20586 23.7198 5.3339C23.4373 5.70987 23.1589 6.08585 22.8785 6.46182L22.8886 6.4476ZM18.7427 42.088C18.8101 41.5635 18.8176 41.0331 18.7651 40.5069C18.7651 39.5585 18.7651 38.6047 18.7651 37.6454C18.8077 37.4884 18.8077 37.3228 18.7651 37.1658C18.7651 36.0785 18.7651 34.9892 18.7651 33.8999C18.7651 32.3167 18.7509 30.7315 18.7448 29.1484C18.7448 28.4716 18.7448 27.7928 18.7549 27.1161C18.7549 26.8498 18.6574 26.8559 18.4602 26.9027C17.779 27.0618 17.0842 27.1557 16.3853 27.1831C15.2878 27.234 14.1863 27.2258 13.0889 27.2705C12.5833 27.268 12.0814 27.3569 11.6073 27.5327C11.1782 27.6141 10.7699 27.7811 10.4068 28.0238C10.0436 28.2665 9.73312 28.5798 9.49373 28.9451C9.37119 29.109 9.30811 29.3097 9.31489 29.5142C9.32708 32.9203 9.33521 36.3251 9.33928 39.7285C9.33928 40.7101 9.33928 41.6917 9.32708 42.6733C9.32708 42.9335 9.40025 43.0046 9.65022 42.9883C9.97719 42.9711 10.3048 42.9711 10.6318 42.9883C10.6669 42.9947 10.7028 42.9937 10.7375 42.9853C10.7721 42.977 10.8046 42.9615 10.8329 42.9399C10.8612 42.9183 10.8847 42.891 10.9019 42.8598C10.919 42.8286 10.9295 42.7942 10.9326 42.7587C11.1663 41.834 11.4041 40.9073 11.648 39.9846C11.6628 39.9526 11.6709 39.9179 11.6717 39.8827C11.6725 39.8474 11.666 39.8124 11.6527 39.7798C11.6393 39.7472 11.6194 39.7177 11.5941 39.6931C11.5688 39.6685 11.5387 39.6495 11.5057 39.6371C11.022 39.3668 10.9631 39.1961 11.148 38.6616C11.3878 37.9726 11.7719 37.3548 12.0971 36.7065C12.2475 36.4098 12.4223 36.1436 12.9222 36.1395C12.6026 35.9752 12.3228 35.7428 12.1027 35.4588C11.8825 35.1747 11.7273 34.8459 11.648 34.4954C11.5565 34.1153 11.5077 33.7901 11.018 33.7881C10.956 33.7871 10.8963 33.765 10.8487 33.7254C10.801 33.6859 10.7683 33.6313 10.7558 33.5707C10.7558 33.4162 10.9021 33.3674 11.02 33.3085C11.332 33.1747 11.6588 33.0786 11.9935 33.0219C12.1337 32.9976 12.1967 32.961 12.2069 32.8045C12.2902 31.9733 12.3979 31.1441 12.4812 30.3129C12.5401 29.7032 12.53 29.7174 11.9101 29.7886C11.4915 29.8353 11.0789 29.9511 10.642 29.8942C11.3716 29.4349 12.1174 29.0183 12.8511 28.5793C13.0645 28.4533 13.1356 28.4818 13.2291 28.7094C13.8022 30.0954 14.4769 31.4367 15.1191 32.7903C15.1826 32.9518 15.2823 33.0967 15.4105 33.2137C15.5388 33.3307 15.6922 33.4166 15.8589 33.465C16.0621 33.5239 16.3893 33.595 16.3243 33.8714C16.2593 34.1478 15.9402 34.0523 15.7288 34.03C15.5175 34.0076 15.426 34.0991 15.4728 34.284C15.5764 34.6905 15.3772 35.0095 15.2512 35.355C15.0907 35.7981 14.8814 36.2005 14.3814 36.359C14.7086 36.674 14.7045 36.6598 15.1171 36.5459C15.5784 36.4179 16.0113 36.1395 16.5153 36.2187C16.7287 36.2553 16.7836 36.1639 16.8364 35.9993C16.9319 35.7046 17.0397 35.414 17.1697 35.0583C17.2207 35.1877 17.2307 35.3296 17.1982 35.4648C17.1474 35.8367 16.9949 36.1822 17.0803 36.5907C17.1657 36.9991 16.9563 37.3162 16.6515 37.2816C16.3466 37.2471 16.1902 37.4076 15.9971 37.5499C15.7715 37.7166 15.5601 37.8995 15.3285 38.0519C15.2601 38.0873 15.2071 38.1466 15.1797 38.2186C15.1524 38.2906 15.1525 38.3702 15.1801 38.4421C15.5093 39.8647 15.8325 41.2975 16.0763 42.7404C16.1109 42.9436 16.2044 42.9843 16.3893 42.9822C16.934 42.9822 17.4807 42.9822 18.0253 42.9822C18.7326 42.9822 18.7326 42.9822 18.7366 42.2608C18.7366 42.2079 18.7407 42.147 18.7427 42.088ZM2.74243 19.3263C2.84202 19.2856 2.94566 19.247 3.04118 19.2043C5.72788 18.0154 9.54454 19.5742 9.34131 23.2344C9.28272 24.26 9.28815 25.2883 9.35757 26.3133C9.29253 27.0002 9.34334 27.6811 9.33928 28.4025C9.65225 28.1465 9.89816 27.9351 10.1522 27.738C10.4286 27.5465 10.7242 27.3843 11.0342 27.2543C11.6166 27.0786 12.215 26.9615 12.8206 26.9047C13.5807 26.8539 14.3448 26.8498 15.1069 26.8417C16.2223 26.8499 17.3358 26.7499 18.4318 26.543C18.6858 26.4901 18.757 26.4007 18.757 26.1467C18.7468 24.403 18.757 22.6592 18.757 20.9135C18.757 20.1331 18.757 20.1331 17.9583 20.1331C17.3892 20.1331 16.8202 20.1331 16.2511 20.1331C16.1109 20.1331 15.926 20.1595 15.9178 19.9543C15.9097 19.749 16.1089 19.751 16.2633 19.751C16.3487 19.751 16.432 19.751 16.5174 19.751C17.2205 19.751 17.9237 19.751 18.6249 19.7653C18.8931 19.7653 18.9683 19.7083 18.9663 19.432C18.9521 17.1416 18.9541 14.8532 18.9663 12.5628C18.9663 11.9531 18.7996 11.3068 19.0212 10.7642C19.2427 10.2216 19.7345 9.79886 20.1044 9.31923C20.9335 8.25025 21.8257 7.22597 22.6021 6.1143C22.8602 5.91107 23.0085 5.63061 23.2504 5.40706C23.5999 5.07173 23.5694 4.94166 23.2097 4.59414C23.0673 4.44935 22.9159 4.3136 22.7565 4.18768C20.1755 2.25699 17.2937 1.42782 14.0908 1.91354C9.09946 2.66752 5.59578 6.72602 5.55514 11.76C5.55514 11.9775 5.48197 12.0527 5.28078 12.0933C4.63108 12.201 4.01494 12.4569 3.48016 12.8412C1.69377 14.1764 1.0414 15.9892 1.26089 18.1597C1.32297 18.7919 1.48771 19.4097 1.74864 19.9888L2.74243 19.3263ZM12.9039 36.1659C12.9039 36.1659 12.8897 36.1497 12.8816 36.1497C12.8734 36.1497 12.8673 36.1497 12.8613 36.1659C12.8552 36.1822 12.8755 36.1842 12.8816 36.1842C12.8877 36.1842 12.8917 36.17 12.8999 36.1639L12.9039 36.1659Z" fill="white"/>
<path d="M19.1695 29.0711C19.1695 28.3456 19.1695 27.62 19.137 26.8965C19.137 26.7258 19.2386 26.7136 19.3179 26.6933C21.5168 26.1771 23.3215 24.9638 24.9149 23.4274C25.8597 22.5255 26.9466 21.7853 28.132 21.2366C27.8786 21.9932 27.5376 22.7175 27.1158 23.3949C25.9192 25.4762 24.1222 27.1479 21.9599 28.1911C21.0847 28.6364 20.1418 28.9337 19.1695 29.0711Z" fill="#7C9878"/>
<path d="M24.7624 2.96216C25.0469 3.26904 25.3375 3.57185 25.618 3.88482C25.7907 4.07586 25.5651 4.12463 25.4838 4.21405C25.3538 4.36038 25.3111 4.23235 25.2623 4.13276C25.0753 3.75882 24.8863 3.38691 24.6973 3.01297L24.7624 2.96216Z" fill="white"/>
<path d="M9.3474 26.3114C9.27798 25.2864 9.27254 24.2581 9.33114 23.2325C9.53437 19.5744 5.72787 18.0135 3.04117 19.2024C2.94362 19.2451 2.83794 19.2837 2.74242 19.3244C2.42508 18.4055 2.35499 17.4194 2.53919 16.4649C2.87656 14.6074 3.86629 13.2742 5.70958 12.6747C5.79051 12.6589 5.864 12.6169 5.91872 12.5552C5.97343 12.4935 6.00635 12.4155 6.01239 12.3333C6.02865 12.2134 6.01239 12.0894 6.03475 11.9715C6.54282 9.19133 7.73375 6.78712 9.95912 4.98041C11.2765 3.89473 12.9 3.24747 14.6029 3.12898C16.3231 2.98612 18.0512 3.28848 19.6207 4.00694C20.7338 4.51567 21.7427 5.22686 22.596 6.10427C21.8196 7.21594 20.9274 8.24022 20.0983 9.30921C19.7284 9.78883 19.2366 10.2156 19.015 10.7542C18.7935 11.2927 18.9602 11.9492 18.9602 12.5528C18.9602 14.8432 18.9602 17.1315 18.9602 19.4219C18.9602 19.6983 18.887 19.7634 18.6187 19.7552C17.9176 19.7329 17.2144 19.743 16.5113 19.741C16.4259 19.741 16.3426 19.741 16.2572 19.741C16.1028 19.741 15.9036 19.7166 15.9117 19.9442C15.9199 20.1718 16.115 20.1231 16.245 20.1231C16.8141 20.1231 17.3831 20.1231 17.9521 20.1231C18.7447 20.1231 18.7508 20.1231 18.7508 20.9035C18.7508 22.6492 18.7508 24.3929 18.7508 26.1366C18.7508 26.3907 18.6797 26.4801 18.4257 26.5329C17.3313 26.7423 16.2191 26.8451 15.1049 26.8398C14.3428 26.8398 13.5786 26.852 12.8186 26.9028C12.213 26.9596 11.6145 27.0767 11.0322 27.2524C10.4685 26.9394 9.90696 26.6258 9.3474 26.3114Z" fill="#7C9878"/>
<path d="M28.4876 19.7349L23.8438 19.7512C22.4395 19.7512 21.0331 19.7512 19.6288 19.7634C19.3849 19.7634 19.3301 19.6943 19.3301 19.4585C19.3301 16.6838 19.3301 13.9063 19.3301 11.1261C19.3222 10.9931 19.3626 10.8618 19.4439 10.7562L22.8094 6.51686C22.8357 6.49313 22.8643 6.47203 22.8947 6.45386C23.2867 6.77557 23.6333 7.14884 23.9251 7.56349C25.188 9.21439 26.2394 11.0168 27.0548 12.9288C28.0019 15.0972 28.827 17.2941 28.4876 19.7349ZM26.3273 13.9917C26.3177 13.4778 26.1056 12.9884 25.7373 12.6299C25.3689 12.2715 24.874 12.0729 24.36 12.0772C23.8544 12.0797 23.3705 12.2828 23.0147 12.642C22.6589 13.0013 22.4604 13.4871 22.4629 13.9927C22.4653 14.4983 22.6685 14.9822 23.0277 15.3379C23.3869 15.6937 23.8727 15.8922 24.3783 15.8898C24.8873 15.8926 25.377 15.6951 25.7416 15.34C26.1063 14.9848 26.3166 14.5005 26.3273 13.9917Z" fill="#7C9878"/>
<path d="M28.3331 20.6432C28.0324 20.8179 27.7377 21.009 27.4267 21.1634C26.3313 21.7302 25.3287 22.4608 24.4535 23.3299C23.0733 24.6844 21.3901 25.6904 19.5435 26.2645C19.2203 26.36 19.137 26.3133 19.137 25.9637C19.1472 24.1103 19.137 22.2548 19.1268 20.4013C19.1268 20.2143 19.1553 20.1208 19.3809 20.1208C22.3385 20.1317 25.2949 20.1371 28.2498 20.1371C28.2861 20.1395 28.3221 20.145 28.3575 20.1534L28.3331 20.6432Z" fill="#7C9878"/>
<path d="M2.80542 19.7613C4.75846 18.5603 7.64432 19.3142 8.59747 21.2754C8.79546 21.7048 8.90798 22.1687 8.92874 22.6411C8.94209 22.7673 8.9187 22.8947 8.86137 23.0079C8.80405 23.1211 8.71523 23.2153 8.6056 23.2793C7.79268 23.8463 6.88424 23.8585 5.96361 23.7365C5.78667 23.7028 5.61217 23.6574 5.44131 23.6004C5.41405 23.4943 5.34994 23.4013 5.26044 23.3382C4.24712 22.3987 3.45988 21.2418 2.95784 19.9544C2.94647 19.9137 2.92715 19.8757 2.90098 19.8426C2.87482 19.8095 2.84234 19.7818 2.80542 19.7613Z" fill="#7C9878"/>
<path d="M18.7407 29.1484C16.7336 29.2178 14.734 28.8683 12.8694 28.1221C12.4277 27.9719 12.0032 27.775 11.6033 27.5348C12.0773 27.3589 12.5792 27.2701 13.0848 27.2726C14.1823 27.2279 15.2838 27.236 16.3812 27.1852C17.0802 27.1577 17.775 27.0638 18.4562 26.9047C18.6594 26.858 18.759 26.8519 18.7509 27.1181C18.7305 27.7929 18.7427 28.4716 18.7407 29.1484Z" fill="#7C9878"/>
<path d="M8.90434 25.9658C8.28246 25.7443 7.78861 25.3073 7.24395 24.9496C6.90862 24.7464 6.53468 24.5432 6.30096 24.1977C6.83326 24.2186 7.36591 24.1666 7.88413 24.0432C8.24994 23.9346 8.59387 23.7626 8.90028 23.5352L8.90434 25.9658Z" fill="#7C9878"/>
<path d="M12.8999 36.164C12.8999 36.164 12.8857 36.1823 12.8775 36.1823C12.8694 36.1823 12.8633 36.1701 12.8572 36.164C12.8511 36.1579 12.8714 36.1477 12.8775 36.1477C12.8836 36.1477 12.8918 36.1579 12.8999 36.164Z" fill="white"/>
<path d="M26.3273 13.9915C26.3166 14.5004 26.1062 14.9847 25.7416 15.3398C25.3769 15.6949 24.8873 15.8924 24.3783 15.8897C23.8732 15.8921 23.3879 15.6938 23.0291 15.3384C22.6702 14.983 22.4673 14.4996 22.4649 13.9945C22.4624 13.4895 22.6607 13.0042 23.0161 12.6453C23.3716 12.2865 23.8549 12.0836 24.36 12.0811C24.8733 12.0767 25.3676 12.2748 25.7358 12.6324C26.1041 12.99 26.3166 13.4783 26.3273 13.9915ZM24.2502 13.1542C24.2502 13.0079 24.2401 12.8615 24.2502 12.7172C24.2706 12.4652 24.1608 12.4307 23.9495 12.514C23.7302 12.5871 23.5294 12.7072 23.3613 12.8658C23.1932 13.0245 23.0617 13.2179 22.976 13.4326C22.8317 13.7781 22.852 13.8005 23.2402 13.8045H23.604C24.238 13.8005 24.238 13.8005 24.2502 13.1542ZM23.5633 14.1602C23.419 14.1602 23.2747 14.1602 23.1304 14.1602C22.9028 14.1419 22.8662 14.2232 22.9414 14.4305C23.0628 14.7958 23.3107 15.1058 23.6406 15.3044C24.1649 15.6092 24.2502 15.5564 24.2502 14.9589C24.2502 14.9223 24.2502 14.8877 24.2502 14.8511C24.2502 14.1581 24.2502 14.1581 23.5552 14.1602H23.5633ZM25.2542 13.7944C25.4005 13.7944 25.5448 13.7944 25.6891 13.7944C25.9513 13.8147 25.9675 13.7009 25.8923 13.4915C25.7559 13.1392 25.5026 12.8443 25.1749 12.6563C25.0225 12.5628 24.8396 12.4226 24.6791 12.5079C24.5185 12.5933 24.6384 12.7924 24.6222 12.9449C24.6181 13.0173 24.6181 13.0899 24.6222 13.1623C24.5998 13.8005 24.5998 13.8005 25.2461 13.7944H25.2542ZM25.2806 14.1602C25.1602 14.1693 25.0393 14.1693 24.9189 14.1602C24.6689 14.1236 24.5774 14.215 24.5998 14.4711C24.6221 14.7347 24.6262 14.9995 24.612 15.2637C24.5998 15.5177 24.7095 15.5076 24.8945 15.4405C25.248 15.3141 25.5497 15.0739 25.7521 14.7577C25.8558 14.5951 26.0041 14.404 25.9208 14.2313C25.8375 14.0586 25.618 14.1967 25.4595 14.1683C25.3955 14.1597 25.3309 14.1569 25.2664 14.1602H25.2806Z" fill="white"/>
<path d="M24.2503 13.1543C24.2503 13.8005 24.2503 13.8005 23.6061 13.8005H23.2341C22.846 13.8005 22.8277 13.7741 22.9699 13.4286C23.0556 13.2139 23.1871 13.0205 23.3553 12.8619C23.5234 12.7032 23.7241 12.5831 23.9434 12.51C24.1466 12.4328 24.2645 12.4674 24.2442 12.7133C24.232 12.8616 24.2503 13.0079 24.2503 13.1543Z" fill="#FCFCFC"/>
<path d="M23.5552 14.1602C24.2401 14.1602 24.2401 14.1602 24.2482 14.8512C24.2482 14.8878 24.2482 14.9223 24.2482 14.9589C24.2482 15.5564 24.169 15.6092 23.6385 15.3044C23.303 15.1079 23.0497 14.7969 22.9252 14.4285C22.85 14.2252 22.8866 14.1399 23.1142 14.1582C23.2666 14.1683 23.4109 14.1602 23.5552 14.1602Z" fill="#FCFCFC"/>
<path d="M25.2461 13.7945C24.5998 13.7945 24.5998 13.7945 24.608 13.1645C24.6039 13.092 24.6039 13.0194 24.608 12.947C24.6242 12.7946 24.5328 12.5792 24.6649 12.5101C24.797 12.441 25.0083 12.5649 25.1607 12.6584C25.4877 12.8469 25.7402 13.1417 25.8761 13.4937C25.9554 13.6969 25.9391 13.8168 25.6729 13.7965C25.5367 13.7843 25.3924 13.7945 25.2461 13.7945Z" fill="#FCFCFC"/>
<path d="M25.2664 14.1601C25.3259 14.155 25.3857 14.155 25.4453 14.1601C25.6038 14.1886 25.8314 14.0646 25.9066 14.2231C25.9818 14.3816 25.8416 14.5869 25.7379 14.7495C25.5354 15.0657 25.2338 15.3059 24.8803 15.4323C24.6953 15.4994 24.5856 15.5096 24.5978 15.2555C24.612 14.9914 24.6079 14.7265 24.5856 14.4629C24.5632 14.2069 24.6547 14.1154 24.9047 14.152C25.0251 14.1612 25.146 14.1612 25.2664 14.152V14.1601Z" fill="#FCFCFC"/>
<path d="M17.4949 35.3184L17.2347 34.9343L16.7693 34.9302L17.0559 34.5624L16.9157 34.1193L17.3526 34.2779L17.7306 34.0076L17.7144 34.473L18.0883 34.7473L17.6432 34.8774L17.4949 35.3184Z" fill="white"/>
<path d="M40.9029 16.487C40.8497 16.4883 40.7969 16.4771 40.7489 16.4541C40.7008 16.4312 40.6589 16.3972 40.6265 16.3549C40.5549 16.265 40.5175 16.1527 40.5208 16.0379C40.5737 15.6151 40.6346 15.1457 40.7058 14.6152C40.7769 14.0848 40.8541 13.5645 40.9436 13.0199C41.033 12.4752 41.1183 11.9346 41.2057 11.4245C41.2931 10.9144 41.3947 10.4429 41.4841 10.0385C41.5736 9.63408 41.6508 9.30078 41.7219 9.063C41.7463 8.97193 41.8017 8.89218 41.8784 8.83742C41.9462 8.79537 42.0243 8.77287 42.104 8.77238C42.208 8.77202 42.3096 8.80398 42.3946 8.86384C42.4312 8.85042 42.466 8.83268 42.4983 8.811C42.5309 8.79197 42.5667 8.77889 42.6039 8.77238C42.9804 8.71364 43.3595 8.6743 43.74 8.65451C44.179 8.61793 44.6058 8.60167 45.0183 8.60167C45.545 8.59196 46.0714 8.63554 46.5893 8.73174C46.9552 8.7887 47.2881 8.97644 47.5262 9.26013C47.7602 9.59293 47.8715 9.99659 47.8412 10.4023V10.5872C47.841 10.6551 47.8369 10.723 47.829 10.7905C47.7944 11.1238 47.7619 11.4835 47.7355 11.8716C47.7091 12.2598 47.7091 12.6277 47.7091 13.0057C47.7068 13.5089 47.7421 14.0116 47.8148 14.5096C47.8866 14.9675 48.0099 15.2839 48.1846 15.4586C48.2533 15.535 48.3389 15.5942 48.4346 15.6314C48.5379 15.6587 48.6452 15.6677 48.7517 15.6578C48.8051 15.6467 48.8605 15.6481 48.9133 15.6619C48.9662 15.6756 49.0152 15.7013 49.0565 15.7371C49.0997 15.777 49.1337 15.8259 49.1561 15.8803C49.1786 15.9347 49.189 15.9933 49.1866 16.0521C49.213 16.3427 49.0504 16.489 48.6988 16.489C48.4983 16.5011 48.2975 16.4712 48.1092 16.4012C47.9209 16.3312 47.7494 16.2227 47.6054 16.0826C47.329 15.7873 47.1373 15.4229 47.0506 15.0278C47.0154 15.0994 46.9604 15.1593 46.8921 15.2005C46.8226 15.2502 46.7397 15.2778 46.6543 15.2798H41.4435C41.4435 15.3306 41.4212 15.42 41.4049 15.542C41.3886 15.6639 41.3866 15.7798 41.3785 15.8854C41.3703 15.9911 41.3642 16.0744 41.3642 16.109C41.3486 16.2183 41.2926 16.3178 41.2072 16.3878C41.1217 16.4578 41.0132 16.4932 40.9029 16.487ZM46.9571 14.5726C46.9201 14.4298 46.8943 14.2844 46.8799 14.1377C46.8697 13.971 46.8657 13.7901 46.8657 13.5971C46.8657 13.2455 46.8799 12.8593 46.9043 12.4366C46.9287 12.0139 46.9673 11.5526 46.9835 11.077C46.9931 11.0029 46.9978 10.9282 46.9978 10.8535V10.6502C47.0207 10.3626 46.9615 10.0743 46.8271 9.81902C46.7618 9.72431 46.6752 9.64628 46.5742 9.5912C46.4733 9.53613 46.3608 9.50557 46.2458 9.50198C45.8565 9.45055 45.4638 9.42813 45.0712 9.43491C44.7114 9.43491 44.3294 9.4532 43.9249 9.48775C43.5205 9.5223 43.1323 9.56295 42.736 9.60766C42.6741 9.61023 42.612 9.60545 42.5511 9.59343C42.5195 9.58347 42.4889 9.57054 42.4597 9.55482C42.293 10.1523 42.1575 10.7193 42.0532 11.2559C41.9489 11.7924 41.8689 12.3208 41.8134 12.841C41.7423 13.3613 41.6589 13.8917 41.5634 14.4384H46.6543C46.7114 14.4383 46.7678 14.4501 46.82 14.4733C46.8722 14.4964 46.9189 14.5302 46.9571 14.5726Z" fill="white" stroke="white" stroke-width="0.304845" stroke-miterlimit="10"/>
<path d="M57.71 16.2758C56.9648 16.2931 56.228 16.1159 55.5721 15.7616C54.9798 15.4233 54.4951 14.9245 54.1738 14.3228C53.8349 13.6389 53.6675 12.8828 53.6861 12.1198C53.6678 11.3581 53.8308 10.603 54.1616 9.91675C54.4635 9.30674 54.9413 8.80127 55.5334 8.46569C56.201 8.10543 56.9519 7.92804 57.71 7.95152C58.4808 7.92526 59.2449 8.1026 59.9253 8.46569C60.5148 8.80069 60.9889 9.30665 61.2849 9.91675C61.6079 10.6052 61.7659 11.3595 61.7462 12.1198C61.7462 13.4746 61.3987 14.5037 60.7036 15.2068C60.0086 15.91 59.0107 16.2663 57.71 16.2758ZM57.71 15.4446C58.8102 15.4446 59.619 15.1675 60.1366 14.6134C60.6542 14.0593 60.9136 13.228 60.915 12.1198C60.915 11.0725 60.644 10.2548 60.1021 9.66678C59.5601 9.07877 58.7628 8.78205 57.71 8.77663C56.6451 8.77663 55.8444 9.08012 55.3079 9.6871C54.7713 10.2941 54.5004 11.1029 54.4949 12.1137C54.4949 13.1339 54.772 13.9468 55.3262 14.5524C55.8803 15.1581 56.6749 15.4554 57.71 15.4446Z" fill="white" stroke="white" stroke-width="0.304845" stroke-miterlimit="10"/>
<path d="M74.5029 15.9852C74.4619 15.9825 74.4214 15.9736 74.383 15.9588C74.277 15.9192 74.1856 15.8483 74.1209 15.7555C74.0679 15.6632 74.0533 15.5537 74.0802 15.4507C74.1996 15.0456 74.2832 14.6307 74.3302 14.211C74.3829 13.7556 74.4094 13.2976 74.4094 12.8392C74.4094 12.575 74.4094 12.321 74.383 12.075C74.3566 11.8291 74.3403 11.5771 74.3038 11.3495C74.2654 11.0495 74.1861 10.7561 74.068 10.4777C73.9694 10.2272 73.8102 10.0051 73.6047 9.83139C73.386 9.66071 73.1142 9.57247 72.837 9.58213C72.5598 9.59179 72.2948 9.69874 72.0886 9.88423C71.8602 10.1147 71.6848 10.3921 71.5744 10.6971C71.442 11.0621 71.3401 11.4373 71.2695 11.819C71.2577 11.9137 71.213 12.0012 71.1431 12.0662C71.0733 12.1313 70.9828 12.1696 70.8875 12.1746C70.7861 12.1797 70.6865 12.1466 70.6083 12.0819C70.53 12.0172 70.4788 11.9256 70.4647 11.8251C70.3909 11.4532 70.2764 11.0907 70.1233 10.7439C69.9957 10.436 69.8125 10.1542 69.5827 9.91268C69.485 9.80784 69.3663 9.72484 69.2342 9.66915C69.1022 9.61346 68.9598 9.58633 68.8166 9.58955C68.6864 9.58778 68.5572 9.61265 68.437 9.66263C68.3168 9.71261 68.208 9.78663 68.1174 9.88016C67.9089 10.0975 67.7514 10.3586 67.6561 10.6443C67.5463 10.9793 67.4668 11.3235 67.4183 11.6727C67.3663 12.0314 67.3398 12.3934 67.3391 12.7559C67.3397 13.2143 67.3662 13.6723 67.4183 14.1277C67.4712 14.5937 67.5389 15.0463 67.6216 15.4852C67.6343 15.5448 67.6337 15.6064 67.62 15.6658C67.6064 15.7251 67.5798 15.7807 67.5423 15.8287C67.4811 15.9081 67.3915 15.9605 67.2923 15.975C67.2374 15.9935 67.1784 15.9959 67.1222 15.9818C67.066 15.9678 67.015 15.9379 66.9753 15.8958C66.8966 15.8311 66.841 15.7427 66.8168 15.6438C66.7294 15.1967 66.6542 14.7333 66.5932 14.2598C66.5407 13.7819 66.5142 13.3016 66.514 12.8209C66.5124 12.326 66.5519 11.8318 66.6318 11.3434C66.7014 10.8936 66.8299 10.455 67.0139 10.0387C67.1788 9.67601 67.4283 9.3582 67.7415 9.11196C68.0752 8.87819 68.4765 8.76039 68.8836 8.77663C69.1838 8.77464 69.4791 8.85249 69.7392 9.00221C70.0003 9.14864 70.2297 9.34553 70.4139 9.58142C70.6022 9.80202 70.7451 10.0575 70.8346 10.3334C71.0192 9.89092 71.3037 9.49721 71.6658 9.18309C72.0121 8.90885 72.4437 8.76498 72.8852 8.77663C73.2852 8.76277 73.6788 8.87901 74.007 9.10789C74.3183 9.33429 74.5638 9.6394 74.7183 9.99194C74.9048 10.3938 75.0334 10.8201 75.1004 11.2581C75.1465 11.5271 75.1777 11.7985 75.1939 12.071C75.2203 12.3616 75.2325 12.6563 75.2325 12.955C75.2327 13.4361 75.2021 13.9167 75.1411 14.3939C75.0958 14.8324 75.0073 15.2654 74.8769 15.6864C74.8535 15.778 74.797 15.8576 74.7183 15.91C74.6564 15.9574 74.5809 15.9837 74.5029 15.9852Z" fill="white" stroke="white" stroke-width="0.304845" stroke-miterlimit="10"/>
<path d="M81.112 16.0765C81.0322 16.0653 80.959 16.026 80.9057 15.9656C80.8524 15.9053 80.8225 15.8278 80.8213 15.7473C80.7868 15.5196 80.7563 15.2148 80.7299 14.8368C80.7035 14.4588 80.6811 14.0381 80.6628 13.5707C80.6445 13.1032 80.6445 12.6297 80.6364 12.1481C80.6283 11.6664 80.6242 11.1847 80.6242 10.7376V9.53452C80.6266 9.47189 80.6416 9.4104 80.6686 9.35379C80.6955 9.29719 80.7336 9.24666 80.7807 9.20529C80.8208 9.17231 80.8674 9.1482 80.9175 9.13454C80.9676 9.12088 81.02 9.11798 81.0713 9.12603C81.1227 9.12546 81.1734 9.13715 81.2194 9.16012C81.2653 9.18309 81.3051 9.21669 81.3355 9.25813C81.4143 9.34392 81.4572 9.45666 81.4554 9.57313C81.4453 9.74181 81.4371 9.91253 81.429 10.0893V10.6157C81.429 11.2051 81.4452 11.8351 81.4818 12.5017C81.5184 13.1683 81.5509 13.8877 81.5855 14.6518C82.4499 13.6574 83.3075 12.7151 84.1584 11.8249C85.0092 10.9348 85.8757 10.1042 86.7577 9.33332C86.8375 9.26056 86.9404 9.21813 87.0483 9.21342C87.1466 9.21393 87.241 9.2517 87.3125 9.31909C87.3941 9.37989 87.45 9.46909 87.469 9.56907C87.5137 9.89424 87.5482 10.2214 87.5747 10.5466C87.6011 10.8718 87.6336 11.2498 87.6417 11.6806C87.6499 12.1115 87.6682 12.6399 87.6682 13.2638C87.6682 13.8877 87.6803 14.662 87.6803 15.5847C87.6856 15.6437 87.675 15.7031 87.6496 15.7567C87.6242 15.8103 87.585 15.8561 87.5361 15.8895C87.4527 15.9544 87.351 15.9914 87.2454 15.9952C87.1846 15.999 87.1238 15.9876 87.0684 15.962C87.0131 15.9365 86.965 15.8976 86.9284 15.8489C86.8699 15.7685 86.8379 15.6719 86.8369 15.5725C86.8369 15.4323 86.8491 15.2778 86.8491 15.1111V14.5726C86.8491 14.1526 86.8451 13.7041 86.8369 13.2272C86.8288 12.7503 86.8153 12.2802 86.7963 11.8168C86.78 11.3602 86.7584 10.9646 86.7313 10.6299C86.2218 11.0499 85.7598 11.4496 85.3452 11.829C84.9388 12.207 84.5465 12.5992 84.1584 13.0037C83.7702 13.4081 83.3902 13.8572 82.9593 14.3368C82.5285 14.8165 82.0753 15.353 81.5469 15.9627C81.4876 16.0354 81.4023 16.0821 81.3091 16.0927C81.2782 16.0922 81.2476 16.0881 81.2176 16.0806C81.1824 16.0832 81.1469 16.0818 81.112 16.0765Z" fill="white" stroke="white" stroke-width="0.304845" stroke-miterlimit="10"/>
<path d="M94.6064 16.0114C94.5508 16.0155 94.4951 16.0055 94.4443 15.9824C94.3935 15.9593 94.3494 15.9239 94.3158 15.8793C94.2579 15.8061 94.2176 15.7206 94.198 15.6293C94.1797 15.4891 94.1675 15.2737 94.1573 14.9831C94.1471 14.6925 94.141 14.288 94.1309 13.7637C94.1207 13.2394 94.1187 12.5748 94.1187 11.7578V8.70936C94.1138 8.65064 94.1246 8.59167 94.15 8.53848C94.1753 8.48529 94.2143 8.43976 94.263 8.40655C94.3465 8.34186 94.4481 8.30491 94.5536 8.30087C94.6154 8.29954 94.6765 8.31328 94.7317 8.3409C94.787 8.36852 94.8347 8.40919 94.8706 8.45939C94.9292 8.53976 94.9611 8.63638 94.9621 8.73578C94.9621 8.81504 94.9621 8.97762 94.9499 9.22557V10.1218C94.9499 10.4653 94.9499 10.8291 94.9357 11.2172V12.339C95.5534 12.3307 96.1678 12.246 96.7647 12.087C97.3291 11.9457 97.8689 11.7203 98.3662 11.4184C98.8022 11.1493 99.1713 10.7844 99.4454 10.3515C99.7016 9.92796 99.8175 9.43434 99.7766 8.94104C99.7712 8.88358 99.7777 8.82562 99.7956 8.77075C99.8134 8.71587 99.8424 8.66524 99.8806 8.62197C99.9188 8.5787 99.9654 8.54371 100.018 8.51915C100.07 8.4946 100.127 8.481 100.184 8.47919C100.242 8.47738 100.299 8.48741 100.353 8.50865C100.407 8.52989 100.455 8.56189 100.496 8.60268C100.537 8.64348 100.569 8.6922 100.59 8.74585C100.612 8.7995 100.622 8.85694 100.62 8.91462C100.655 9.62273 100.455 10.3226 100.053 10.9063C99.6459 11.4791 99.1188 11.9562 98.5085 12.3045C99.0816 12.902 99.57 13.4561 99.9737 13.9669C100.306 14.3372 100.574 14.7612 100.764 15.2208C100.801 15.2939 100.814 15.377 100.799 15.4576C100.785 15.5383 100.745 15.6121 100.685 15.668C100.643 15.7126 100.592 15.7476 100.535 15.7704C100.478 15.7932 100.417 15.8033 100.356 15.8001C100.274 15.8024 100.193 15.7779 100.126 15.7302C100.06 15.6825 100.01 15.6142 99.9859 15.5359C99.8322 15.2091 99.6375 14.9031 99.4067 14.6254C99.1358 14.2745 98.8499 13.9276 98.5491 13.5848C98.2402 13.2333 97.9597 12.9325 97.7057 12.6866C97.5212 12.7633 97.331 12.8251 97.1367 12.8715C96.9009 12.9325 96.6408 12.9914 96.3583 13.0443C96.0758 13.0971 95.8218 13.1215 95.5677 13.1479C95.3653 13.1718 95.1618 13.1853 94.958 13.1885C94.9763 13.8226 94.9845 14.3226 94.9845 14.6925C94.9845 15.0623 95.0109 15.3387 95.0373 15.5501C95.0479 15.6085 95.045 15.6685 95.0288 15.7256C95.0126 15.7826 94.9835 15.8352 94.9438 15.8793C94.9022 15.9267 94.8499 15.9634 94.7912 15.9864C94.7325 16.0094 94.6691 16.018 94.6064 16.0114Z" fill="white" stroke="white" stroke-width="0.304845" stroke-miterlimit="10"/>
<path d="M47.3799 28.6137C47.2646 28.6031 47.157 28.5511 47.0771 28.4674C47.0345 28.43 47.0015 28.3831 46.9807 28.3304C46.9598 28.2778 46.9518 28.2209 46.9572 28.1646V27.6768C46.9572 27.4309 46.9755 27.1525 46.9836 26.8456C46.9917 26.5387 46.9978 26.2359 46.9978 25.9351C46.9978 25.6343 47.01 25.421 47.01 25.2624H41.3521V26.1993C41.3521 26.4798 41.3683 26.7745 41.3785 27.0834C41.3887 27.3923 41.3948 27.7418 41.4049 28.1646C41.4135 28.2198 41.4083 28.2763 41.3899 28.3291C41.3714 28.3819 41.3403 28.4294 41.2992 28.4674C41.2611 28.5103 41.2141 28.5443 41.1614 28.5671C41.1088 28.5899 41.0518 28.601 40.9944 28.5995C40.9361 28.6121 40.8754 28.6077 40.8196 28.5868C40.7637 28.5659 40.7151 28.5294 40.6794 28.4816C40.6195 28.3987 40.5786 28.3036 40.5595 28.2032C40.5595 28.0284 40.5432 27.7459 40.5331 27.3598C40.5229 26.9736 40.5331 26.5286 40.5209 26.0266V23.2179C40.5209 22.8115 40.5331 22.4436 40.5331 22.1347C40.5331 21.8258 40.5514 21.6084 40.5595 21.4763C40.5852 21.2053 40.7173 21.0732 40.9558 21.08C41.0227 21.0712 41.0907 21.08 41.1531 21.1057C41.2155 21.1314 41.2701 21.173 41.3114 21.2263C41.3461 21.2678 41.3712 21.3165 41.3849 21.3688C41.3986 21.4212 41.4006 21.4759 41.3907 21.5291C41.3907 21.6084 41.3907 21.775 41.3785 22.0311C41.3663 22.2872 41.3785 22.5574 41.3643 22.8745C41.3501 23.1915 41.348 23.4842 41.3379 23.7707V24.4251H47.012C47.012 24.2761 47.008 24.0566 46.9998 23.7667C46.9998 23.476 46.9998 23.1773 46.9856 22.8684C46.9714 22.5595 46.9694 22.2709 46.9592 22.025V21.5372C46.9503 21.4756 46.9578 21.4127 46.981 21.3549C47.0042 21.297 47.0422 21.2464 47.0913 21.208C47.1757 21.1335 47.2836 21.091 47.3961 21.0881C47.4983 21.0873 47.597 21.1251 47.6725 21.1938C47.7124 21.2305 47.7436 21.2757 47.764 21.3259C47.7844 21.3761 47.7934 21.4303 47.7904 21.4844C47.8232 21.7542 47.8409 22.0256 47.8432 22.2973C47.8622 22.6496 47.871 23.0499 47.8697 23.4984C47.8683 23.9469 47.8731 24.3994 47.8839 24.856C47.8839 25.3221 47.8792 25.7793 47.8697 26.2278C47.8697 26.6688 47.8697 27.0631 47.8432 27.4146C47.8402 27.6864 47.8226 27.9577 47.7904 28.2276C47.7855 28.3338 47.741 28.4343 47.6659 28.5095C47.5907 28.5847 47.4902 28.6291 47.3839 28.634L47.3799 28.6137Z" fill="white" stroke="white" stroke-width="0.304845" stroke-miterlimit="10"/>
<path d="M60.4801 28.9288C60.3033 28.8861 60.2017 28.819 60.1752 28.7256C60.1456 28.6184 60.1326 28.5074 60.1366 28.3963C59.2487 28.7428 58.3054 28.926 57.3524 28.9369C56.7159 28.9463 56.0839 28.8296 55.4928 28.5935C54.9563 28.3783 54.4938 28.0118 54.1617 27.5387C53.8165 26.9929 53.6457 26.3549 53.6719 25.7096C53.6593 25.3722 53.7161 25.0357 53.8388 24.7211C53.9615 24.4065 54.1475 24.1204 54.3852 23.8806C54.8968 23.3772 55.5352 23.0218 56.2326 22.8522C56.6388 22.756 57.0548 22.7076 57.4723 22.7079C58.403 22.7119 59.3215 22.92 60.163 23.3176C60.0923 22.9777 59.9499 22.6569 59.7452 22.3765C59.5405 22.0961 59.2783 21.8627 58.9762 21.6918C58.3236 21.3579 57.5973 21.1943 56.8646 21.2162C56.4812 21.2171 56.0983 21.2436 55.7184 21.2955C55.3368 21.3375 54.9576 21.3992 54.5823 21.4804C54.5287 21.4936 54.4729 21.4957 54.4184 21.4867C54.3639 21.4776 54.3118 21.4575 54.2653 21.4276C54.1725 21.361 54.1074 21.2626 54.0824 21.1512C54.0707 21.0367 54.0933 20.9214 54.1474 20.8199C54.173 20.7711 54.2107 20.7297 54.257 20.6997C54.3033 20.6698 54.3566 20.6524 54.4116 20.6492C55.2271 20.4763 56.0575 20.3837 56.891 20.3728C58.254 20.3728 59.2919 20.7196 60.0045 21.4133C60.7172 22.107 61.1236 23.132 61.2239 24.4882C61.253 24.7507 61.2665 25.0147 61.2645 25.2788C61.2645 25.6222 61.2503 25.9962 61.2239 26.4006C61.1975 26.805 61.1629 27.1973 61.1182 27.5753C61.0735 27.9533 61.0268 28.2784 60.9739 28.5508C60.9734 28.6117 60.9558 28.6712 60.9231 28.7226C60.8904 28.774 60.8439 28.8151 60.789 28.8414C60.6941 28.8939 60.5884 28.9238 60.4801 28.9288ZM56.509 28.0183C56.6652 28.0546 56.8243 28.077 56.9845 28.0854C57.1417 28.1033 57.2998 28.1121 57.458 28.1118C57.9302 28.1115 58.4003 28.0493 58.8563 27.9269C59.3404 27.7997 59.8156 27.6408 60.2789 27.4513C60.3236 27.0448 60.3588 26.6628 60.3846 26.3051C60.4191 25.9535 60.4374 25.6141 60.4374 25.2889C60.4374 25.1385 60.4374 24.9943 60.4232 24.854C60.4089 24.7138 60.4028 24.5593 60.3846 24.4171H60.3703V24.4049C59.9318 24.1327 59.457 23.924 58.9599 23.785C58.4854 23.6374 57.9916 23.5614 57.4946 23.5594C57.3452 23.5601 57.196 23.569 57.0475 23.5859C56.8963 23.5962 56.7461 23.6186 56.5984 23.6529C56.0412 23.7681 55.5257 24.0322 55.1067 24.4171C54.9173 24.5964 54.7678 24.8135 54.668 25.0545C54.5682 25.2954 54.5203 25.5546 54.5275 25.8153C54.5275 26.4832 54.7165 26.9893 55.0945 27.3334C55.4964 27.6839 55.9848 27.9203 56.509 28.0183Z" fill="white" stroke="white" stroke-width="0.304845" stroke-miterlimit="10"/>
<path d="M74.8281 29.0874C74.7745 29.0893 74.7212 29.0782 74.6728 29.0553C74.6244 29.0323 74.5821 28.998 74.5497 28.9553C74.4793 28.8656 74.4419 28.7544 74.444 28.6403C74.4968 28.2176 74.5598 27.7461 74.6289 27.2177C74.698 26.6893 74.7793 26.167 74.8667 25.6224C74.9541 25.0777 75.0435 24.5351 75.1309 24.025C75.2183 23.5149 75.3199 23.0454 75.4073 22.641C75.4947 22.2366 75.5739 21.9012 75.6451 21.6634C75.6695 21.5724 75.7257 21.4931 75.8036 21.4399C75.87 21.3962 75.9477 21.3728 76.0271 21.3728C76.1314 21.3729 76.233 21.4056 76.3178 21.4663C76.3547 21.4524 76.3902 21.4347 76.4234 21.4135C76.4558 21.3934 76.4917 21.3796 76.5291 21.3728C76.8543 21.32 77.2323 21.2807 77.6631 21.255C78.1042 21.2204 78.5289 21.2021 78.9435 21.2021C79.4696 21.1929 79.9953 21.2372 80.5124 21.3342C80.8789 21.3897 81.2122 21.5777 81.4493 21.8626C81.6843 22.1942 81.7957 22.5976 81.7643 23.0027V23.1877C81.7646 23.2557 81.7598 23.3236 81.7501 23.3909C81.7156 23.7262 81.6851 24.0859 81.6587 24.4721C81.6322 24.8582 81.6322 25.2301 81.6322 25.6081C81.6289 26.1114 81.6642 26.6142 81.7379 27.112C81.809 27.5693 81.931 27.8843 82.1078 28.0611C82.177 28.1364 82.2625 28.1948 82.3578 28.2318C82.4609 28.2604 82.5684 28.2693 82.6748 28.2583C82.728 28.2482 82.7827 28.2502 82.8351 28.2639C82.8875 28.2776 82.9361 28.3027 82.9776 28.3375C83.0214 28.3775 83.056 28.4266 83.0788 28.4814C83.1016 28.5362 83.1122 28.5953 83.1097 28.6546C83.1361 28.9452 82.9735 29.0895 82.622 29.0895C82.4212 29.1012 82.2202 29.0711 82.0316 29.0012C81.843 28.9312 81.6711 28.8229 81.5265 28.683C81.2501 28.3877 81.0584 28.0233 80.9717 27.6282C80.9322 27.6995 80.8753 27.7598 80.8064 27.8035C80.7376 27.8471 80.6588 27.8728 80.5775 27.8782H75.3687C75.3687 27.9311 75.3463 28.0184 75.328 28.1424C75.3097 28.2664 75.3118 28.3802 75.3016 28.4859C75.2915 28.5915 75.2894 28.6749 75.2894 28.7094C75.2743 28.819 75.2183 28.9187 75.1328 28.9888C75.0473 29.0589 74.9385 29.0941 74.8281 29.0874ZM80.8823 27.175C80.8457 27.0321 80.8192 26.8868 80.803 26.7401C80.803 26.5735 80.7888 26.3926 80.7888 26.1995C80.7888 25.8479 80.803 25.4598 80.8295 25.0371C80.8559 24.6143 80.8904 24.155 80.9087 23.6795C80.9166 23.6052 80.9206 23.5306 80.9209 23.4559V23.2527C80.9436 22.9651 80.8844 22.6769 80.7502 22.4215C80.6845 22.3272 80.5978 22.2495 80.4969 22.1945C80.3961 22.1395 80.2838 22.1087 80.169 22.1045C79.7801 22.0549 79.3883 22.0332 78.9963 22.0394C78.6346 22.0394 78.2525 22.0577 77.8481 22.0923C77.4437 22.1268 77.0575 22.1675 76.6612 22.2101C76.5993 22.2121 76.5374 22.208 76.4763 22.1979C76.4441 22.1868 76.4129 22.1733 76.3828 22.1573C76.2161 22.7561 76.0847 23.3238 75.9885 23.8604C75.891 24.3969 75.8077 24.9232 75.7365 25.4435C75.6654 25.9638 75.5841 26.4942 75.4866 27.0389H80.5795C80.6366 27.0397 80.6929 27.0522 80.745 27.0757C80.7971 27.0991 80.8438 27.1329 80.8823 27.175Z" fill="white" stroke="white" stroke-width="0.304845" stroke-miterlimit="10"/>
<path d="M91.6067 28.8963C90.8475 28.9127 90.0972 28.7306 89.4301 28.3679C88.8228 28.0253 88.3247 27.5181 87.9933 26.9046C87.6386 26.2254 87.461 25.4677 87.4771 24.7016C87.4649 23.9629 87.6374 23.2329 87.9791 22.5779C88.3082 21.967 88.8008 21.4596 89.4017 21.1126C90.0612 20.738 90.8097 20.5484 91.5681 20.5639C92.2695 20.5542 92.9595 20.7415 93.5597 21.1045C94.1497 21.4668 94.6356 21.9758 94.9702 22.5819C95.331 23.228 95.5258 23.9536 95.5372 24.6935C95.5416 24.7989 95.5062 24.9021 95.4381 24.9827C95.3699 25.0632 95.274 25.1152 95.1693 25.1284C94.9661 25.1548 94.6897 25.1772 94.3117 25.1934C93.9337 25.2097 93.4988 25.23 93.0049 25.2463L91.4482 25.2727H88.3347C88.3831 25.8063 88.5648 26.3193 88.8631 26.7644C89.1549 27.1805 89.5509 27.5127 90.0114 27.7277C90.5064 27.96 91.0477 28.0767 91.5945 28.0691C92.1158 28.0686 92.6332 27.98 93.1248 27.807C93.5985 27.6509 94.0374 27.4045 94.4174 27.0814C94.5017 27.0199 94.6036 26.9871 94.708 26.988C94.765 26.9866 94.8217 26.9978 94.874 27.0206C94.9263 27.0434 94.973 27.0773 95.0108 27.1201C95.0633 27.1981 95.091 27.2902 95.0901 27.3843C95.0935 27.4416 95.0833 27.4989 95.0604 27.5515C95.0374 27.6042 95.0023 27.6506 94.958 27.6871C94.4867 28.0842 93.9448 28.389 93.3606 28.5853C92.7976 28.7869 92.2047 28.892 91.6067 28.8963ZM88.3083 24.4435H90.117L91.9624 24.4171C92.5721 24.4008 93.0984 24.3866 93.5719 24.3785L94.6816 24.3378C94.6282 23.7735 94.4378 23.2307 94.1268 22.7567C93.8379 22.3248 93.4424 21.9748 92.9785 21.7406C92.487 21.4965 91.9441 21.3738 91.3954 21.3829C90.8585 21.3823 90.3308 21.5224 89.865 21.7893C89.4181 22.0513 89.0458 22.4236 88.7838 22.8705C88.502 23.3494 88.3389 23.8887 88.3083 24.4435Z" fill="white" stroke="white" stroke-width="0.304845" stroke-miterlimit="10"/>
<path d="M102.24 28.8963C102.01 28.8963 101.866 28.7642 101.805 28.502C101.786 28.1673 101.768 27.7609 101.752 27.2826C101.734 26.7908 101.722 26.2665 101.711 25.7137C101.701 25.1609 101.699 24.6 101.699 24.0635C101.699 23.4578 101.708 22.8996 101.726 22.3888C101.742 21.8787 101.768 21.4906 101.805 21.2284C101.829 21.1294 101.884 21.0409 101.963 20.9764C102.031 20.921 102.113 20.8845 102.199 20.8707C102.368 20.8545 102.538 20.8402 102.715 20.8321C102.892 20.824 103.089 20.8179 103.282 20.8179C103.895 20.8194 104.506 20.8683 105.111 20.9642C105.662 21.0282 106.2 21.1748 106.707 21.3991C107.278 21.6385 107.781 22.0147 108.172 22.4945C108.538 22.9557 108.73 23.5316 108.713 24.1204C108.732 24.6388 108.579 25.1489 108.278 25.5714C107.975 25.9655 107.575 26.2744 107.117 26.4677C106.586 26.7011 106.028 26.865 105.455 26.9554C104.978 27.0313 104.498 27.0801 104.016 27.1017C103.498 27.1275 103.019 27.1363 102.579 27.1282V27.3314C102.579 27.4635 102.595 27.6179 102.606 27.7927C102.616 27.9675 102.622 28.122 102.632 28.2541L102.644 28.4573C102.675 28.7276 102.538 28.8759 102.24 28.8963ZM102.569 26.2848C103.062 26.2848 103.528 26.2719 103.967 26.2461C104.408 26.2197 104.855 26.175 105.313 26.114C105.965 26.0302 106.594 25.8144 107.16 25.48C107.387 25.3365 107.571 25.1351 107.694 24.8964C107.817 24.6577 107.874 24.3904 107.859 24.1224C107.879 23.6824 107.727 23.2519 107.436 22.9213C107.136 22.5848 106.762 22.3225 106.343 22.1551C105.885 21.9752 105.408 21.8517 104.92 21.7873C104.41 21.707 103.894 21.6669 103.378 21.6674C103.246 21.6674 103.114 21.6674 102.982 21.6816C102.849 21.6958 102.732 21.6816 102.599 21.6938C102.589 21.8706 102.581 22.1165 102.573 22.4335C102.565 22.7506 102.573 23.0961 102.559 23.4761C102.545 23.8562 102.559 24.2138 102.547 24.5837V26.0063C102.565 26.1364 102.569 26.2299 102.569 26.2909V26.2848Z" fill="white" stroke="white" stroke-width="0.304845" stroke-miterlimit="10"/>
<path d="M117.99 28.8963C117.231 28.9123 116.481 28.7301 115.813 28.3679C115.206 28.0253 114.708 27.5181 114.377 26.9046C114.023 26.2253 113.846 25.4675 113.862 24.7016C113.85 23.9631 114.021 23.2331 114.362 22.5779C114.692 21.967 115.184 21.4596 115.785 21.1126C116.445 20.738 117.193 20.5484 117.951 20.5639C118.653 20.5542 119.343 20.7415 119.943 21.1045C120.533 21.4668 121.019 21.9758 121.353 22.5819C121.715 23.2278 121.911 23.9534 121.923 24.6935C121.926 24.7991 121.891 24.9023 121.822 24.9828C121.754 25.0633 121.657 25.1153 121.553 25.1284C121.36 25.1548 121.073 25.1772 120.695 25.1934C120.317 25.2097 119.882 25.23 119.388 25.2463L117.831 25.2727H114.718C114.766 25.8063 114.948 26.3193 115.246 26.7644C115.538 27.1805 115.934 27.5127 116.395 27.7277C116.89 27.9598 117.431 28.0765 117.978 28.0691C118.499 28.0686 119.016 27.98 119.508 27.807C119.982 27.6509 120.421 27.4045 120.801 27.0814C120.885 27.0199 120.987 26.9871 121.091 26.988C121.148 26.9866 121.205 26.9978 121.257 27.0206C121.31 27.0434 121.356 27.0773 121.394 27.1201C121.447 27.1981 121.474 27.2902 121.473 27.3843C121.477 27.4416 121.467 27.4989 121.444 27.5515C121.421 27.6042 121.386 27.6506 121.341 27.6871C120.87 28.0838 120.329 28.3885 119.746 28.5853C119.182 28.7867 118.589 28.8919 117.99 28.8963ZM114.688 24.4435H116.496L118.346 24.4252C118.943 24.409 119.48 24.3947 119.953 24.3866L121.063 24.346C121.009 23.7816 120.819 23.2388 120.508 22.7648C120.219 22.3329 119.824 21.9829 119.36 21.7487C118.868 21.5046 118.325 21.382 117.777 21.391C117.24 21.3904 116.712 21.5305 116.246 21.7975C115.799 22.0594 115.427 22.4317 115.165 22.8787C114.884 23.3549 114.72 23.8914 114.688 24.4435Z" fill="white" stroke="white" stroke-width="0.304845" stroke-miterlimit="10"/>
<path d="M130.867 28.6524C130.629 28.6524 130.357 28.6524 130.054 28.6524C129.751 28.6524 129.464 28.622 129.184 28.5874C128.904 28.5529 128.674 28.5285 128.497 28.4939C128.415 28.4577 128.34 28.4091 128.274 28.3496C128.21 28.2969 128.164 28.226 128.141 28.1464C128.077 27.8953 128.037 27.6388 128.022 27.3802C127.994 26.9941 127.968 26.5368 127.942 26.0084C127.926 25.4821 127.908 24.9313 127.891 24.3602C127.875 23.7891 127.877 23.2343 127.877 22.7344C127.877 22.2852 127.877 21.891 127.891 21.5475C127.906 21.2041 127.912 20.9378 127.93 20.7692C127.951 20.6799 127.994 20.5976 128.057 20.5305C128.119 20.4634 128.198 20.414 128.286 20.3871C128.779 20.3153 129.245 20.2624 129.684 20.2286C130.123 20.1947 130.558 20.1723 130.991 20.1615C131.557 20.1586 132.123 20.2117 132.68 20.32C133.172 20.4027 133.648 20.5632 134.09 20.7956C134.48 20.9862 134.817 21.2721 135.067 21.6268C135.303 21.9719 135.425 22.3817 135.417 22.7994C135.425 23.0465 135.379 23.2924 135.283 23.5203C135.188 23.7482 135.044 23.9529 134.862 24.1204C134.466 24.4751 133.998 24.7405 133.49 24.8988C133.845 25.0315 134.147 25.2771 134.348 25.5979C134.576 25.9265 134.696 26.3178 134.692 26.7177C134.697 26.8896 134.669 27.0609 134.608 27.2218C134.546 27.3826 134.454 27.5297 134.336 27.6546C134.083 27.9152 133.771 28.1099 133.425 28.2216C133.032 28.3689 132.623 28.4712 132.206 28.5264C131.752 28.5928 131.306 28.6348 130.867 28.6524ZM130.54 27.809C131.069 27.8101 131.598 27.7748 132.123 27.7034C132.556 27.6543 132.979 27.5384 133.377 27.3599C133.702 27.1932 133.864 26.9778 133.864 26.7136C133.873 26.5545 133.843 26.3956 133.776 26.2508C133.71 26.106 133.609 25.9795 133.482 25.8824C133.195 25.6606 132.86 25.507 132.505 25.4333C132.094 25.3324 131.675 25.2645 131.253 25.23C131.143 25.2137 131.041 25.1624 130.962 25.0837C130.928 25.0419 130.902 24.9936 130.886 24.9416C130.87 24.8896 130.865 24.8349 130.871 24.7809C130.865 24.7188 130.877 24.6562 130.904 24.6002C130.932 24.5443 130.974 24.4971 131.027 24.4639C131.15 24.3899 131.291 24.3532 131.434 24.3582C131.808 24.3758 132.184 24.354 132.554 24.2932C132.908 24.2292 133.254 24.1227 133.584 23.9761C133.866 23.8522 134.118 23.6677 134.322 23.4355C134.411 23.3334 134.478 23.2139 134.519 23.0845C134.56 22.9551 134.574 22.8185 134.559 22.6836C134.544 22.4838 134.483 22.2903 134.38 22.1184C134.277 21.9466 134.135 21.8012 133.966 21.6938C133.56 21.4205 133.102 21.2324 132.621 21.1411C132.07 21.0249 131.509 20.9676 130.946 20.9703C130.578 20.9703 130.208 20.9968 129.838 21.0232C129.469 21.0496 129.105 21.0903 128.743 21.1431C128.727 21.2833 128.712 21.4723 128.704 21.7101C128.696 21.9479 128.69 22.2161 128.69 22.523C128.69 22.9437 128.69 23.4071 128.704 23.907C128.719 24.407 128.743 24.8927 128.769 25.3845C128.796 25.8763 128.822 26.3295 128.849 26.7441C128.875 27.1587 128.901 27.4737 128.928 27.7196C129.184 27.7548 129.448 27.7772 129.721 27.7867C129.991 27.7989 130.263 27.809 130.54 27.809Z" fill="white" stroke="white" stroke-width="0.304845" stroke-miterlimit="10"/>
<path d="M144.373 28.8963C143.614 28.9123 142.864 28.7301 142.197 28.3679C141.59 28.0247 141.092 27.5176 140.76 26.9046C140.406 26.2253 140.229 25.4675 140.246 24.7016C140.233 23.9631 140.405 23.2331 140.746 22.5779C141.075 21.967 141.567 21.4596 142.168 21.1126C142.828 20.738 143.576 20.5484 144.335 20.5639C145.036 20.5542 145.726 20.7415 146.326 21.1045C146.92 21.4659 147.41 21.9749 147.749 22.5819C148.108 23.2287 148.303 23.9538 148.316 24.6935C148.32 24.7991 148.284 24.9023 148.216 24.9828C148.147 25.0633 148.051 25.1153 147.946 25.1284C147.743 25.1548 147.467 25.1772 147.089 25.1934C146.711 25.2097 146.276 25.23 145.782 25.2463L144.225 25.2727H141.107C141.154 25.8064 141.335 26.3195 141.634 26.7644C141.926 27.1801 142.322 27.5122 142.782 27.7277C143.277 27.9598 143.818 28.0765 144.365 28.0691C144.886 28.0686 145.404 27.98 145.896 27.807C146.369 27.6509 146.808 27.4045 147.188 27.0814C147.272 27.0199 147.374 26.9871 147.479 26.988C147.536 26.9866 147.592 26.9978 147.645 27.0206C147.697 27.0434 147.744 27.0773 147.782 27.1201C147.834 27.1981 147.862 27.2902 147.861 27.3843C147.864 27.4416 147.854 27.4989 147.831 27.5515C147.808 27.6042 147.773 27.6506 147.729 27.6871C147.258 28.0838 146.717 28.3885 146.133 28.5853C145.568 28.7872 144.973 28.8923 144.373 28.8963ZM141.077 24.4496H142.884L144.731 24.4232C145.329 24.4069 145.865 24.3927 146.341 24.3846L147.448 24.3439C147.396 23.7794 147.205 23.2363 146.893 22.7628C146.605 22.3315 146.21 21.9815 145.747 21.7467C145.254 21.4979 144.708 21.3711 144.156 21.3768C143.62 21.3755 143.092 21.5157 142.628 21.7832C142.18 22.0446 141.807 22.4169 141.544 22.8644C141.264 23.3454 141.103 23.8872 141.077 24.4435V24.4496Z" fill="white" stroke="white" stroke-width="0.304845" stroke-miterlimit="10"/>
<path d="M43.5185 33.3999H42.2991V36.5154H41.8012V33.3999H40.5818V32.9609H43.5145L43.5185 33.3999Z" fill="white"/>
<path d="M47.012 35.7736C47.017 35.88 46.9952 35.9859 46.9487 36.0818C46.9022 36.1776 46.8324 36.2603 46.7458 36.3223C46.5082 36.4705 46.2307 36.5414 45.9511 36.5255H44.6545V33.8226H45.9044C46.1661 33.8073 46.4265 33.8703 46.6523 34.0034C46.7378 34.0575 46.8076 34.1331 46.8547 34.2226C46.9017 34.3121 46.9245 34.4125 46.9206 34.5135C46.9244 34.6454 46.8844 34.7748 46.8067 34.8814C46.7259 34.9888 46.6159 35.0707 46.4897 35.1171C46.643 35.1416 46.7816 35.2226 46.8782 35.344C46.9749 35.4655 47.0226 35.6187 47.012 35.7736ZM45.1321 34.981H45.8638C46.0123 34.9906 46.1604 34.9552 46.2885 34.8793C46.3358 34.8467 46.3739 34.8025 46.3992 34.7509C46.4244 34.6993 46.436 34.642 46.4328 34.5847C46.4328 34.3266 46.2438 34.1985 45.8638 34.1985H45.1321V34.981ZM46.3718 36.0418C46.422 36.0106 46.4627 35.9663 46.4895 35.9136C46.5164 35.861 46.5284 35.802 46.5243 35.7431C46.5283 35.6839 46.5178 35.6246 46.4938 35.5704C46.4697 35.5163 46.4327 35.4688 46.3861 35.4321C46.2527 35.3544 46.099 35.319 45.9451 35.3305H45.1321V36.1434H45.9146C46.0721 36.1518 46.2289 36.1166 46.3678 36.0418H46.3718Z" fill="white"/>
<path d="M48.8634 36.3669C48.6543 36.2535 48.4811 36.0838 48.3635 35.8771C48.2437 35.6592 48.181 35.4145 48.181 35.1658C48.181 34.9171 48.2437 34.6725 48.3635 34.4545C48.4811 34.2478 48.6543 34.0781 48.8634 33.9647C49.0862 33.8499 49.3332 33.79 49.5839 33.79C49.8345 33.79 50.0815 33.8499 50.3043 33.9647C50.512 34.0793 50.6843 34.2487 50.8022 34.4545C50.9207 34.6729 50.9827 34.9174 50.9827 35.1658C50.9827 35.4143 50.9207 35.6588 50.8022 35.8771C50.6843 36.0829 50.512 36.2523 50.3043 36.3669C50.0823 36.4844 49.835 36.5458 49.5839 36.5458C49.3327 36.5458 49.0854 36.4844 48.8634 36.3669ZM50.0604 36.0092C50.1969 35.9299 50.3082 35.8137 50.3815 35.6739C50.4591 35.5204 50.4994 35.3509 50.4994 35.179C50.4994 35.0071 50.4591 34.8376 50.3815 34.6842C50.3091 34.5443 50.1975 34.4285 50.0604 34.3509C49.9175 34.2735 49.7576 34.233 49.595 34.233C49.4325 34.233 49.2726 34.2735 49.1296 34.3509C48.9921 34.4292 48.8793 34.5447 48.8045 34.6842C48.7257 34.8372 48.6846 35.0069 48.6846 35.179C48.6846 35.3512 48.7257 35.5208 48.8045 35.6739C48.8798 35.8135 48.9924 35.9296 49.1296 36.0092C49.2722 36.0879 49.4323 36.1291 49.595 36.1291C49.7578 36.1291 49.9179 36.0879 50.0604 36.0092Z" fill="white"/>
<path d="M54.4766 33.9771C54.6809 34.0893 54.8493 34.257 54.9623 34.4608C55.0773 34.6825 55.1372 34.9285 55.1372 35.1782C55.1372 35.4279 55.0773 35.674 54.9623 35.8956C54.8503 36.1007 54.6817 36.2693 54.4766 36.3813C54.262 36.4992 54.0203 36.5588 53.7755 36.5541C53.5926 36.5566 53.4114 36.5184 53.245 36.4423C53.0857 36.3676 52.9464 36.2562 52.8386 36.1171V37.5093H52.3508V33.8308H52.8183V34.2576C52.9222 34.1118 53.0623 33.9955 53.2247 33.9202C53.3969 33.8418 53.5842 33.8022 53.7734 33.8044C54.0188 33.8004 54.2611 33.8599 54.4766 33.9771ZM54.2002 36.0094C54.3379 35.9303 54.4506 35.8141 54.5254 35.6741C54.6042 35.5211 54.6453 35.3514 54.6453 35.1792C54.6453 35.0071 54.6042 34.8374 54.5254 34.6844C54.4511 34.5445 54.3382 34.4288 54.2002 34.3511C54.0586 34.2732 53.8995 34.2323 53.7379 34.2323C53.5762 34.2323 53.4172 34.2732 53.2755 34.3511C53.1389 34.4306 53.0264 34.5458 52.9504 34.6844C52.8687 34.8353 52.8274 35.0047 52.8305 35.1762C52.827 35.3488 52.8675 35.5195 52.9483 35.6721C53.0216 35.8133 53.1346 35.9298 53.2735 36.0074C53.4153 36.0861 53.5747 36.1273 53.7369 36.1273C53.899 36.1273 54.0584 36.0861 54.2002 36.0074V36.0094Z" fill="white"/>
<path d="M56.5048 33.8225H56.9926V35.7837L58.6428 33.8225H59.0859V36.5153H58.5961V34.5541L56.9499 36.5153H56.5028L56.5048 33.8225Z" fill="white"/>
<path d="M62.6973 34.2493H61.7116V36.5153H61.2239V34.2493H60.2382V33.8225H62.6973V34.2493Z" fill="white"/>
<path d="M65.8839 34.9708C65.9744 35.0509 66.0455 35.1505 66.092 35.2621C66.1384 35.3737 66.159 35.4943 66.1522 35.615C66.1599 35.7425 66.1374 35.8701 66.0866 35.9873C66.0357 36.1046 65.9579 36.2082 65.8596 36.2897C65.6165 36.4615 65.321 36.5427 65.0243 36.5194H63.8557V33.8225H64.3435V34.7309H65.1015C65.3824 34.7161 65.6596 34.8011 65.8839 34.9708ZM65.4775 36.0174C65.5356 35.9676 65.5813 35.9049 65.6109 35.8344C65.6406 35.7638 65.6533 35.6873 65.6482 35.6109C65.6545 35.538 65.6427 35.4647 65.614 35.3973C65.5853 35.33 65.5405 35.2708 65.4836 35.2248C65.3318 35.1318 65.1553 35.0871 64.9775 35.0968H64.3374V36.1536H64.9775C65.1581 36.1676 65.3376 36.1164 65.4836 36.0093L65.4775 36.0174Z" fill="white"/>
<path d="M67.2659 36.4462C67.2321 36.4138 67.2056 36.3745 67.188 36.3311C67.1705 36.2877 67.1624 36.241 67.1643 36.1942C67.163 36.1484 67.1714 36.1028 67.1889 36.0605C67.2064 36.0181 67.2327 35.9799 67.2659 35.9483C67.2978 35.9163 67.3359 35.891 67.3778 35.8739C67.4196 35.8568 67.4645 35.8482 67.5097 35.8487C67.554 35.8477 67.5979 35.8559 67.6388 35.8727C67.6797 35.8894 67.7167 35.9145 67.7475 35.9463C67.7801 35.9786 67.8055 36.0173 67.8223 36.06C67.8391 36.1027 67.8469 36.1484 67.8451 36.1942C67.8463 36.2408 67.8381 36.2871 67.821 36.3304C67.8039 36.3737 67.7782 36.4131 67.7455 36.4462C67.7149 36.4778 67.6783 36.5029 67.6378 36.52C67.5973 36.5371 67.5537 36.5459 67.5097 36.5458C67.4645 36.5463 67.4196 36.5377 67.3778 36.5206C67.3359 36.5035 67.2978 36.4782 67.2659 36.4462Z" fill="white"/>
<path d="M74.6228 36.5154V33.9242L73.3384 36.0825H73.1047L71.806 33.9385V36.5154H71.3183V32.9609H71.7349L73.2185 35.4607L74.6818 32.9609H75.0984V36.5175L74.6228 36.5154Z" fill="white"/>
<path d="M79.2199 35.3305H77.0352C77.0465 35.4418 77.08 35.5497 77.1337 35.6478C77.1875 35.7459 77.2604 35.8322 77.3482 35.9016C77.5613 36.0594 77.8241 36.1354 78.0886 36.1157C78.3532 36.0959 78.6017 35.9817 78.7891 35.7938L79.0573 36.1088C78.934 36.2523 78.7778 36.3639 78.6021 36.434C78.4084 36.5117 78.2011 36.5497 77.9924 36.5458C77.7292 36.5506 77.4688 36.4906 77.2343 36.371C77.0205 36.2596 76.8434 36.0888 76.7242 35.8792C76.6021 35.6622 76.5397 35.4168 76.5434 35.1679C76.5402 34.9217 76.6003 34.6789 76.7181 34.4627C76.8313 34.2575 76.9986 34.0874 77.2018 33.9709C77.4136 33.8531 77.6525 33.7929 77.8948 33.7961C78.1359 33.792 78.3738 33.8524 78.5838 33.9709C78.784 34.0873 78.9474 34.2577 79.0553 34.4627C79.1721 34.6849 79.2308 34.9331 79.226 35.1842C79.2301 35.2207 79.226 35.2695 79.2199 35.3305ZM77.3116 34.422C77.1526 34.5671 77.0539 34.7665 77.0352 34.9809H78.7626C78.7424 34.7675 78.644 34.5692 78.4862 34.4241C78.3218 34.2858 78.1138 34.2099 77.8989 34.2099C77.684 34.2099 77.476 34.2858 77.3116 34.4241V34.422Z" fill="white"/>
<path d="M82.7967 33.8225V36.5153H82.309V35.428C82.038 35.5581 81.7418 35.6275 81.4412 35.6313C81.1622 35.6484 80.8862 35.5656 80.6628 35.3975C80.5676 35.3086 80.4935 35.1994 80.4461 35.0781C80.3986 34.9568 80.3789 34.8263 80.3885 34.6964V33.8225H80.8762V34.6659C80.8709 34.7448 80.8839 34.8238 80.9142 34.8968C80.9446 34.9697 80.9914 35.0347 81.051 35.0866C81.1935 35.1896 81.3673 35.2399 81.5428 35.2289C81.8075 35.2225 82.0682 35.1623 82.309 35.052V33.8327L82.7967 33.8225Z" fill="white"/>
<path d="M86.4101 34.2493H85.4225V36.5153H84.9347V34.2493H83.949V33.8225H86.4081L86.4101 34.2493Z" fill="white"/>
<path d="M89.3834 34.0704C89.4877 34.1772 89.5682 34.3048 89.6197 34.4449C89.6712 34.585 89.6925 34.7344 89.6822 34.8833V36.5092H89.2188V36.1535C89.1346 36.282 89.0134 36.3819 88.8713 36.4401C88.7011 36.5096 88.5185 36.5435 88.3348 36.5397C88.0754 36.5528 87.8196 36.4751 87.6113 36.3202C87.5271 36.2509 87.4592 36.164 87.4121 36.0657C87.3651 35.9673 87.3401 35.8599 87.339 35.7509C87.3378 35.6419 87.3605 35.534 87.4054 35.4347C87.4503 35.3354 87.5164 35.2471 87.5991 35.176C87.8404 35.0113 88.131 34.9345 88.4222 34.9585H89.1944V34.863C89.2002 34.774 89.1868 34.6848 89.1553 34.6014C89.1237 34.518 89.0747 34.4423 89.0115 34.3793C88.8593 34.2581 88.667 34.1986 88.473 34.2127C88.3138 34.2128 88.1558 34.2396 88.0055 34.2919C87.8652 34.3348 87.7342 34.4038 87.6194 34.4952L87.4162 34.1293C87.5641 34.0127 87.7332 33.9257 87.9141 33.8733C88.1118 33.8134 88.3172 33.7833 88.5238 33.7839C88.8365 33.7654 89.1443 33.868 89.3834 34.0704ZM88.8997 36.0458C89.0339 35.9633 89.1374 35.8391 89.1944 35.6922V35.3162H88.4425C88.036 35.3162 87.8226 35.4544 87.8226 35.7227C87.8202 35.7847 87.8332 35.8463 87.8605 35.902C87.8879 35.9577 87.9286 36.0057 87.9791 36.0417C88.1081 36.1276 88.2615 36.1689 88.4161 36.1596C88.5846 36.1665 88.7519 36.1272 88.8997 36.0458Z" fill="white"/>
<path d="M93.2285 34.2493H92.2429V36.5153H91.7551V34.2493H90.7695V33.8225H93.2285V34.2493Z" fill="white"/>
<path d="M96.4132 34.9708C96.5036 35.0509 96.5747 35.1505 96.6212 35.2621C96.6676 35.3737 96.6882 35.4943 96.6814 35.615C96.6894 35.7424 96.6672 35.8698 96.6167 35.9871C96.5662 36.1043 96.4888 36.208 96.3908 36.2897C96.1474 36.4608 95.8522 36.542 95.5555 36.5194H94.387V33.8225H94.8747V34.7309H95.6307C95.9117 34.716 96.1889 34.8009 96.4132 34.9708ZM96.0067 36.0174C96.0646 35.9675 96.11 35.9048 96.1393 35.8342C96.1686 35.7636 96.1809 35.6871 96.1754 35.6109C96.1816 35.538 96.1699 35.4647 96.1412 35.3973C96.1125 35.33 96.0677 35.2708 96.0108 35.2248C95.859 35.1318 95.6825 35.0871 95.5047 35.0968H94.8666V36.1536H95.5047C95.6866 36.1681 95.8675 36.1169 96.0148 36.0093L96.0067 36.0174Z" fill="white"/>
<path d="M97.7951 36.4462C97.7617 36.4135 97.7355 36.3742 97.718 36.3308C97.7005 36.2875 97.6922 36.2409 97.6935 36.1942C97.6928 36.1485 97.7014 36.103 97.7189 36.0607C97.7363 36.0185 97.7623 35.9802 97.7951 35.9483C97.8271 35.9163 97.8651 35.891 97.907 35.8739C97.9489 35.8568 97.9938 35.8482 98.039 35.8487C98.0835 35.8477 98.1278 35.8558 98.169 35.8726C98.2103 35.8894 98.2476 35.9145 98.2788 35.9463C98.3414 36.0145 98.376 36.1037 98.376 36.1962C98.376 36.2888 98.3414 36.378 98.2788 36.4462C98.2483 36.4779 98.2117 36.5031 98.1711 36.5202C98.1306 36.5373 98.087 36.546 98.043 36.5458C97.9971 36.5468 97.9515 36.5385 97.9089 36.5214C97.8663 36.5043 97.8276 36.4787 97.7951 36.4462Z" fill="white"/>
<path d="M104.616 34.9791C104.76 35.1714 104.825 35.412 104.796 35.6508C104.768 35.8896 104.649 36.1083 104.463 36.2614C104.171 36.4486 103.827 36.5376 103.481 36.5155H101.856V32.961H103.384C103.705 32.9427 104.024 33.0251 104.296 33.1967C104.403 33.2736 104.489 33.376 104.546 33.4945C104.604 33.6131 104.63 33.7441 104.624 33.8755C104.629 34.0506 104.578 34.2228 104.479 34.3673C104.377 34.5071 104.236 34.6132 104.073 34.6722C104.282 34.7134 104.472 34.821 104.616 34.9791ZM102.358 34.5238H103.349C103.549 34.5402 103.748 34.4909 103.916 34.3836C103.979 34.33 104.029 34.2636 104.063 34.1889C104.097 34.1141 104.115 34.0329 104.115 33.9507C104.115 33.8685 104.097 33.7873 104.063 33.7126C104.029 33.6379 103.979 33.5715 103.916 33.5178C103.75 33.4079 103.552 33.3552 103.353 33.3675H102.362L102.358 34.5238ZM104.288 35.5034C104.295 35.4175 104.28 35.3314 104.244 35.2529C104.209 35.1744 104.154 35.1061 104.085 35.0543C103.901 34.9467 103.688 34.8965 103.475 34.91H102.362V36.1131H103.475C104.017 36.1131 104.288 35.9099 104.288 35.5034Z" fill="white"/>
<path d="M106.662 36.3669C106.452 36.2536 106.278 36.084 106.16 35.8771C106.042 35.6588 105.98 35.4143 105.98 35.1658C105.98 34.9174 106.042 34.6729 106.16 34.4545C106.278 34.2477 106.452 34.078 106.662 33.9647C106.884 33.8464 107.132 33.7862 107.384 33.79C107.634 33.7862 107.881 33.8464 108.101 33.9647C108.309 34.0788 108.481 34.2483 108.599 34.4545C108.719 34.6725 108.781 34.9171 108.781 35.1658C108.781 35.4145 108.719 35.6592 108.599 35.8771C108.481 36.0833 108.309 36.2529 108.101 36.3669C107.882 36.4887 107.634 36.5504 107.384 36.5458C107.132 36.5501 106.883 36.4884 106.662 36.3669ZM107.847 35.9991C107.984 35.9205 108.097 35.8041 108.17 35.6637C108.248 35.5103 108.288 35.3408 108.288 35.1689C108.288 34.997 108.248 34.8275 108.17 34.674C108.097 34.5339 107.985 34.418 107.847 34.3407C107.704 34.2633 107.545 34.2228 107.382 34.2228C107.22 34.2228 107.061 34.2633 106.918 34.3407C106.78 34.4185 106.667 34.5341 106.593 34.674C106.514 34.8271 106.473 34.9967 106.473 35.1689C106.473 35.341 106.514 35.5107 106.593 35.6637C106.668 35.8038 106.78 35.92 106.918 35.9991C107.06 36.0777 107.22 36.119 107.382 36.119C107.545 36.119 107.705 36.0777 107.847 35.9991Z" fill="white"/>
<path d="M112.438 33.8225V36.5153H111.95V34.2493H110.792L110.761 34.8488C110.751 35.1528 110.719 35.4557 110.666 35.7552C110.631 35.9637 110.551 36.1621 110.432 36.3365C110.38 36.4075 110.312 36.4646 110.233 36.5029C110.154 36.5412 110.066 36.5594 109.979 36.556C109.877 36.5537 109.777 36.538 109.68 36.5092L109.71 36.1027C109.75 36.1123 109.791 36.117 109.832 36.117C109.895 36.1189 109.956 36.1034 110.01 36.0722C110.064 36.0409 110.108 35.9952 110.137 35.9402C110.207 35.8088 110.252 35.6654 110.269 35.5174C110.29 35.3549 110.308 35.1232 110.324 34.8224L110.371 33.8266L112.438 33.8225Z" fill="white"/>
<path d="M117.88 33.8225V36.5153H114.043V33.8225H114.531V36.0885H115.72V33.8225H116.208V36.0885H117.391V33.8225H117.88Z" fill="white"/>
<path d="M121.908 35.3305H119.724C119.735 35.4418 119.768 35.5497 119.822 35.6478C119.876 35.7459 119.949 35.8322 120.037 35.9016C120.225 36.0499 120.46 36.1269 120.699 36.119C120.844 36.1245 120.989 36.0983 121.123 36.0421C121.257 35.9859 121.378 35.9012 121.476 35.7938L121.746 36.1088C121.622 36.2518 121.466 36.3633 121.291 36.434C121.097 36.5117 120.89 36.5497 120.681 36.5458C120.418 36.5506 120.157 36.4906 119.923 36.371C119.709 36.2596 119.532 36.0888 119.413 35.8792C119.291 35.6622 119.228 35.4168 119.232 35.1679C119.229 34.9217 119.289 34.6789 119.407 34.4627C119.52 34.2575 119.687 34.0874 119.89 33.9709C120.102 33.8528 120.341 33.7926 120.583 33.7961C120.824 33.792 121.062 33.8524 121.272 33.9709C121.472 34.0879 121.635 34.2582 121.744 34.4627C121.861 34.6849 121.919 34.9331 121.914 35.1842C121.919 35.2207 121.914 35.2695 121.908 35.3305ZM120 34.422C119.841 34.5671 119.742 34.7665 119.724 34.9809H121.451C121.431 34.7675 121.332 34.5692 121.175 34.4241C121.01 34.2858 120.802 34.2099 120.587 34.2099C120.373 34.2099 120.165 34.2858 120 34.4241V34.422Z" fill="white"/>
<path d="M125.377 34.0807C125.572 34.1898 125.731 34.351 125.839 34.5461C125.951 34.7545 126.008 34.9883 126.003 35.2249C126.008 35.4673 125.947 35.7065 125.829 35.9179C125.712 36.1181 125.541 36.281 125.335 36.3874C125.111 36.5023 124.863 36.5603 124.611 36.5561C124.41 36.5672 124.209 36.5304 124.025 36.4488C123.841 36.3672 123.679 36.2431 123.552 36.0866C123.281 35.7001 123.149 35.2329 123.179 34.7615C123.153 34.3038 123.272 33.8497 123.518 33.4629C123.775 33.1319 124.147 32.9099 124.56 32.841L125.78 32.5667L125.851 33.0138L124.717 33.2576C124.421 33.3079 124.147 33.446 123.93 33.6539C123.741 33.8825 123.637 34.1699 123.636 34.4669C123.747 34.2952 123.901 34.1553 124.083 34.0604C124.272 33.9643 124.481 33.9154 124.693 33.9181C124.931 33.9096 125.168 33.9658 125.377 34.0807ZM125.081 36.0317C125.213 35.9561 125.322 35.8449 125.394 35.7106C125.47 35.5655 125.509 35.4032 125.505 35.2391C125.511 35.1191 125.493 34.9991 125.451 34.8864C125.409 34.7738 125.344 34.6709 125.261 34.5839C125.178 34.4969 125.079 34.4276 124.968 34.3803C124.858 34.3329 124.739 34.3085 124.618 34.3085C124.498 34.3085 124.379 34.3329 124.269 34.3803C124.158 34.4276 124.058 34.4969 123.976 34.5839C123.893 34.6709 123.828 34.7738 123.786 34.8864C123.744 34.9991 123.726 35.1191 123.731 35.2391C123.728 35.4037 123.768 35.5662 123.847 35.7106C123.92 35.8454 124.03 35.9567 124.164 36.0317C124.305 36.1091 124.462 36.1497 124.622 36.1497C124.783 36.1497 124.94 36.1091 125.081 36.0317Z" fill="white"/>
<path d="M127.359 33.8225H127.847V34.9647H129.381V33.8225H129.869V36.5153H129.381V35.3874H127.847V36.5153H127.359V33.8225Z" fill="white"/>
<path d="M131.48 33.8225H131.962V35.7837L133.612 33.8225H134.055V36.5153H133.568V34.5541L131.921 36.5153H131.474L131.48 33.8225Z" fill="white"/>
<path d="M137.815 33.8225V36.5153H137.327V35.428C137.056 35.5584 136.76 35.6278 136.46 35.6313C136.181 35.649 135.905 35.5669 135.681 35.3996C135.586 35.3106 135.512 35.2015 135.464 35.0801C135.417 34.9588 135.397 34.8284 135.407 34.6984V33.8245H135.895V34.6679C135.889 34.747 135.902 34.8263 135.933 34.8993C135.964 34.9724 136.011 35.0373 136.071 35.0886C136.213 35.1917 136.386 35.242 136.561 35.2309C136.826 35.2247 137.087 35.1645 137.327 35.0541V33.8347L137.815 33.8225Z" fill="white"/>
<path d="M141.238 34.0704C141.341 34.1774 141.422 34.3051 141.473 34.4452C141.524 34.5853 141.545 34.7346 141.534 34.8833V36.5092H141.073V36.1535C140.989 36.2819 140.868 36.3819 140.725 36.4401C140.555 36.5092 140.373 36.5431 140.189 36.5396C139.929 36.5531 139.674 36.4754 139.465 36.3202C139.378 36.2531 139.307 36.1661 139.26 36.0665C139.213 35.9668 139.19 35.8573 139.193 35.747C139.189 35.6384 139.21 35.5302 139.255 35.4311C139.3 35.332 139.367 35.2446 139.451 35.176C139.69 35.0135 139.976 34.9369 140.264 34.9585H141.036V34.863C141.042 34.774 141.029 34.6848 140.997 34.6014C140.966 34.518 140.917 34.4422 140.853 34.3793C140.701 34.2577 140.509 34.1982 140.315 34.2127C140.156 34.2128 139.998 34.2395 139.847 34.2919C139.707 34.3353 139.576 34.4042 139.461 34.4952L139.258 34.1293C139.406 34.0131 139.575 33.9262 139.756 33.8733C139.954 33.8136 140.159 33.7835 140.366 33.7838C140.683 33.7622 140.995 33.865 141.238 34.0704ZM140.752 36.0458C140.887 35.9638 140.99 35.8395 141.046 35.6922V35.3162H140.295C139.888 35.3162 139.685 35.4544 139.685 35.7227C139.683 35.7848 139.696 35.8465 139.724 35.9022C139.752 35.9578 139.793 36.0058 139.843 36.0417C139.972 36.1278 140.126 36.1692 140.28 36.1596C140.445 36.1649 140.608 36.1256 140.752 36.0458Z" fill="white"/>
<path d="M145.081 34.2493H144.095V36.5153H143.607V34.2493H142.622V33.8225H145.081V34.2493Z" fill="white"/>
<path d="M148.267 34.9708C148.358 35.0509 148.429 35.1505 148.475 35.2621C148.522 35.3737 148.542 35.4943 148.536 35.615C148.543 35.7424 148.521 35.8698 148.471 35.9871C148.42 36.1043 148.343 36.208 148.245 36.2897C148.001 36.4611 147.705 36.5423 147.408 36.5194H146.239V33.8225H146.727V34.7309H147.485C147.766 34.7161 148.043 34.8011 148.267 34.9708ZM147.861 36.0174C147.918 35.9672 147.963 35.9044 147.993 35.8339C148.022 35.7634 148.035 35.6871 148.029 35.6109C148.036 35.538 148.024 35.4647 147.995 35.3973C147.967 35.33 147.922 35.2708 147.865 35.2248C147.713 35.1318 147.537 35.0871 147.359 35.0968H146.719V36.1536H147.359C147.541 36.1681 147.722 36.1169 147.869 36.0093L147.861 36.0174Z" fill="white"/>
<path d="M149.643 36.4462C149.609 36.4138 149.583 36.3745 149.565 36.3311C149.548 36.2877 149.54 36.241 149.542 36.1942C149.54 36.1484 149.549 36.1028 149.566 36.0605C149.584 36.0181 149.61 35.9799 149.643 35.9483C149.675 35.9163 149.713 35.891 149.755 35.8739C149.797 35.8568 149.842 35.8482 149.887 35.8487C149.931 35.8477 149.975 35.8559 150.016 35.8727C150.057 35.8894 150.094 35.9145 150.125 35.9463C150.157 35.9786 150.183 36.0173 150.2 36.06C150.216 36.1027 150.224 36.1484 150.222 36.1942C150.224 36.2408 150.216 36.2873 150.199 36.3306C150.182 36.374 150.156 36.4134 150.123 36.4462C150.092 36.4779 150.056 36.5031 150.015 36.5202C149.975 36.5373 149.931 36.546 149.887 36.5458C149.842 36.5463 149.797 36.5377 149.755 36.5206C149.713 36.5035 149.675 36.4782 149.643 36.4462Z" fill="white"/>
</svg>
