<svg width="34" height="27" viewBox="0 0 34 27" fill="none" xmlns="http://www.w3.org/2000/svg">
<path d="M21.3484 14.004C21.3484 16.4893 19.3455 18.504 16.8747 18.504C14.404 18.504 12.401 16.4893 12.401 14.004C12.401 11.5187 14.404 9.50403 16.8747 9.50403C19.3455 9.50403 21.3484 11.5187 21.3484 14.004Z" fill="#679FBF"/>
<path fill-rule="evenodd" clip-rule="evenodd" d="M26.7347 2.22541e-05H7.26526C5.34004 -0.00475934 3.49205 0.761179 2.12903 2.12884C0.76601 3.49649 -5.86867e-06 5.35346 0 7.29001V19.71C-5.86867e-06 21.6465 0.76601 23.5035 2.12903 24.8712C3.49205 26.2388 5.34004 27.0048 7.26526 27H26.7347C28.66 27.0048 30.508 26.2388 31.871 24.8712C33.234 23.5035 34 21.6465 34 19.71V7.29001C34 5.35346 33.234 3.49649 31.871 2.12884C30.508 0.761179 28.66 -0.00475934 26.7347 2.22541e-05ZM16.8747 21.204C12.9215 21.204 9.71684 17.9804 9.71684 14.004C9.71684 10.0276 12.9215 6.80401 16.8747 6.80401C20.8279 6.80401 24.0326 10.0276 24.0326 14.004C24.0326 15.9136 23.2785 17.7449 21.9361 19.0952C20.5938 20.4454 18.7731 21.204 16.8747 21.204ZM26.7168 8.60401C27.211 8.60401 27.6116 8.20107 27.6116 7.70401V5.90401C27.6116 5.40696 27.211 5.00401 26.7168 5.00401H24.9274C24.4332 5.00401 24.0326 5.40696 24.0326 5.90401V7.70401C24.0326 8.20107 24.4332 8.60401 24.9274 8.60401H26.7168Z" fill="#679FBF"/>
</svg>
